<svg width="353" height="157" viewBox="0 0 353 157" fill="none" xmlns="http://www.w3.org/2000/svg">
<path d="M43.1084 24C42.9804 24 42.8684 23.952 42.7724 23.856C42.6764 23.76 42.6284 23.648 42.6284 23.52C42.6284 23.44 42.6364 23.352 42.6524 23.256L48.6044 7.728C48.6684 7.568 48.7564 7.44 48.8684 7.344C48.9804 7.248 49.1484 7.2 49.3724 7.2H51.0044C51.2124 7.2 51.3724 7.248 51.4844 7.344C51.6124 7.44 51.7084 7.568 51.7724 7.728L57.7004 23.256C57.7324 23.352 57.7484 23.44 57.7484 23.52C57.7484 23.648 57.7004 23.76 57.6044 23.856C57.5084 23.952 57.3964 24 57.2684 24H56.0444C55.8524 24 55.7084 23.952 55.6124 23.856C55.5324 23.76 55.4764 23.672 55.4444 23.592L54.1244 20.184H46.2524L44.9324 23.592C44.9164 23.672 44.8604 23.76 44.7644 23.856C44.6684 23.952 44.5244 24 44.3324 24H43.1084ZM46.9484 18.12H53.4284L50.1884 9.6L46.9484 18.12ZM64.2183 24C63.3223 24 62.5943 23.832 62.0343 23.496C61.4743 23.144 61.0663 22.656 60.8103 22.032C60.5543 21.392 60.4263 20.64 60.4263 19.776V13.44H58.5543C58.3943 13.44 58.2583 13.392 58.1463 13.296C58.0503 13.184 58.0023 13.048 58.0023 12.888V12.072C58.0023 11.912 58.0503 11.784 58.1463 11.688C58.2583 11.576 58.3943 11.52 58.5543 11.52H60.4263V7.512C60.4263 7.352 60.4743 7.224 60.5703 7.128C60.6823 7.016 60.8183 6.96 60.9783 6.96H62.1063C62.2663 6.96 62.3943 7.016 62.4903 7.128C62.6023 7.224 62.6583 7.352 62.6583 7.512V11.52H65.6343C65.7943 11.52 65.9223 11.576 66.0183 11.688C66.1303 11.784 66.1863 11.912 66.1863 12.072V12.888C66.1863 13.048 66.1303 13.184 66.0183 13.296C65.9223 13.392 65.7943 13.44 65.6343 13.44H62.6583V19.608C62.6583 20.36 62.7863 20.952 63.0423 21.384C63.2983 21.816 63.7543 22.032 64.4103 22.032H65.8743C66.0343 22.032 66.1623 22.088 66.2583 22.2C66.3703 22.296 66.4263 22.424 66.4263 22.584V23.448C66.4263 23.608 66.3703 23.744 66.2583 23.856C66.1623 23.952 66.0343 24 65.8743 24H64.2183ZM73.3773 24.24C72.3533 24.24 71.4813 24.016 70.7613 23.568C70.0573 23.104 69.5213 22.464 69.1533 21.648C68.7853 20.832 68.6013 19.896 68.6013 18.84V12.072C68.6013 11.912 68.6493 11.784 68.7453 11.688C68.8573 11.576 68.9933 11.52 69.1533 11.52H70.3533C70.5133 11.52 70.6413 11.576 70.7373 11.688C70.8493 11.784 70.9053 11.912 70.9053 12.072V18.72C70.9053 21.104 71.9453 22.296 74.0253 22.296C75.0173 22.296 75.8093 21.984 76.4013 21.36C77.0093 20.72 77.3133 19.84 77.3133 18.72V12.072C77.3133 11.912 77.3613 11.784 77.4573 11.688C77.5693 11.576 77.7053 11.52 77.8653 11.52H79.0413C79.2173 11.52 79.3533 11.576 79.4493 11.688C79.5453 11.784 79.5933 11.912 79.5933 12.072V23.448C79.5933 23.608 79.5453 23.744 79.4493 23.856C79.3533 23.952 79.2173 24 79.0413 24H77.9373C77.7773 24 77.6413 23.952 77.5293 23.856C77.4333 23.744 77.3853 23.608 77.3853 23.448V22.392C76.9533 22.952 76.4253 23.4 75.8013 23.736C75.1933 24.072 74.3853 24.24 73.3773 24.24ZM86.6388 24.24C85.8388 24.24 85.1108 24.08 84.4548 23.76C83.7988 23.44 83.2708 23.008 82.8708 22.464C82.4708 21.92 82.2708 21.304 82.2708 20.616C82.2708 19.512 82.7188 18.632 83.6148 17.976C84.5108 17.32 85.6788 16.888 87.1188 16.68L90.6948 16.176V15.48C90.6948 14.712 90.4708 14.112 90.0228 13.68C89.5908 13.248 88.8788 13.032 87.8868 13.032C87.1668 13.032 86.5828 13.176 86.1348 13.464C85.7028 13.752 85.3988 14.12 85.2228 14.568C85.1268 14.808 84.9588 14.928 84.7188 14.928H83.6388C83.4628 14.928 83.3268 14.88 83.2308 14.784C83.1508 14.672 83.1108 14.544 83.1108 14.4C83.1108 14.16 83.1988 13.864 83.3748 13.512C83.5668 13.16 83.8548 12.816 84.2388 12.48C84.6228 12.144 85.1108 11.864 85.7028 11.64C86.3108 11.4 87.0468 11.28 87.9108 11.28C88.8708 11.28 89.6788 11.408 90.3348 11.664C90.9908 11.904 91.5028 12.232 91.8708 12.648C92.2548 13.064 92.5268 13.536 92.6868 14.064C92.8628 14.592 92.9508 15.128 92.9508 15.672V23.448C92.9508 23.608 92.8948 23.744 92.7828 23.856C92.6868 23.952 92.5588 24 92.3988 24H91.2948C91.1188 24 90.9828 23.952 90.8868 23.856C90.7908 23.744 90.7428 23.608 90.7428 23.448V22.416C90.5348 22.704 90.2548 22.992 89.9028 23.28C89.5508 23.552 89.1108 23.784 88.5828 23.976C88.0548 24.152 87.4068 24.24 86.6388 24.24ZM87.1428 22.44C87.7988 22.44 88.3988 22.304 88.9428 22.032C89.4868 21.744 89.9108 21.304 90.2148 20.712C90.5348 20.12 90.6948 19.376 90.6948 18.48V17.808L87.9108 18.216C86.7748 18.376 85.9188 18.648 85.3428 19.032C84.7668 19.4 84.4788 19.872 84.4788 20.448C84.4788 20.896 84.6068 21.272 84.8628 21.576C85.1348 21.864 85.4708 22.08 85.8708 22.224C86.2868 22.368 86.7108 22.44 87.1428 22.44ZM96.977 24C96.817 24 96.681 23.952 96.569 23.856C96.473 23.744 96.425 23.608 96.425 23.448V7.512C96.425 7.352 96.473 7.224 96.569 7.128C96.681 7.016 96.817 6.96 96.977 6.96H98.105C98.281 6.96 98.417 7.016 98.513 7.128C98.609 7.224 98.657 7.352 98.657 7.512V23.448C98.657 23.608 98.609 23.744 98.513 23.856C98.417 23.952 98.281 24 98.105 24H96.977ZM102.789 24C102.629 24 102.493 23.952 102.381 23.856C102.285 23.744 102.237 23.608 102.237 23.448V12.072C102.237 11.912 102.285 11.784 102.381 11.688C102.493 11.576 102.629 11.52 102.789 11.52H103.869C104.029 11.52 104.157 11.576 104.253 11.688C104.365 11.784 104.421 11.912 104.421 12.072V12.912C104.789 12.416 105.253 12.024 105.813 11.736C106.373 11.432 107.045 11.28 107.829 11.28C109.637 11.264 110.917 12 111.669 13.488C112.037 12.816 112.573 12.28 113.277 11.88C113.981 11.48 114.781 11.28 115.677 11.28C116.509 11.28 117.261 11.472 117.933 11.856C118.621 12.24 119.157 12.824 119.541 13.608C119.941 14.376 120.141 15.344 120.141 16.512V23.448C120.141 23.608 120.085 23.744 119.973 23.856C119.877 23.952 119.749 24 119.589 24H118.461C118.301 24 118.165 23.952 118.053 23.856C117.957 23.744 117.909 23.608 117.909 23.448V16.728C117.909 15.832 117.781 15.128 117.525 14.616C117.269 14.104 116.925 13.744 116.493 13.536C116.061 13.328 115.589 13.224 115.077 13.224C114.661 13.224 114.237 13.328 113.805 13.536C113.373 13.744 113.013 14.104 112.725 14.616C112.453 15.128 112.317 15.832 112.317 16.728V23.448C112.317 23.608 112.261 23.744 112.149 23.856C112.053 23.952 111.925 24 111.765 24H110.637C110.477 24 110.341 23.952 110.229 23.856C110.133 23.744 110.085 23.608 110.085 23.448V16.728C110.085 15.832 109.949 15.128 109.677 14.616C109.405 14.104 109.053 13.744 108.621 13.536C108.189 13.328 107.733 13.224 107.253 13.224C106.837 13.224 106.413 13.328 105.981 13.536C105.549 13.744 105.189 14.104 104.901 14.616C104.629 15.128 104.493 15.824 104.493 16.704V23.448C104.493 23.608 104.437 23.744 104.325 23.856C104.229 23.952 104.101 24 103.941 24H102.789ZM128.533 24.24C126.885 24.24 125.573 23.736 124.597 22.728C123.621 21.704 123.085 20.312 122.989 18.552C122.973 18.344 122.965 18.08 122.965 17.76C122.965 17.424 122.973 17.152 122.989 16.944C123.053 15.808 123.317 14.816 123.781 13.968C124.245 13.104 124.877 12.44 125.677 11.976C126.493 11.512 127.445 11.28 128.533 11.28C129.749 11.28 130.765 11.536 131.581 12.048C132.413 12.56 133.045 13.288 133.477 14.232C133.909 15.176 134.125 16.28 134.125 17.544V17.952C134.125 18.128 134.069 18.264 133.957 18.36C133.861 18.456 133.733 18.504 133.573 18.504H125.269C125.269 18.52 125.269 18.552 125.269 18.6C125.269 18.648 125.269 18.688 125.269 18.72C125.301 19.376 125.445 19.992 125.701 20.568C125.957 21.128 126.325 21.584 126.805 21.936C127.285 22.288 127.861 22.464 128.533 22.464C129.109 22.464 129.589 22.376 129.973 22.2C130.357 22.024 130.669 21.832 130.909 21.624C131.149 21.4 131.309 21.232 131.389 21.12C131.533 20.912 131.645 20.792 131.725 20.76C131.805 20.712 131.933 20.688 132.109 20.688H133.261C133.421 20.688 133.549 20.736 133.645 20.832C133.757 20.912 133.805 21.032 133.789 21.192C133.773 21.432 133.645 21.728 133.405 22.08C133.165 22.416 132.821 22.752 132.373 23.088C131.925 23.424 131.381 23.704 130.741 23.928C130.101 24.136 129.365 24.24 128.533 24.24ZM125.269 16.848H131.845V16.776C131.845 16.056 131.709 15.416 131.437 14.856C131.181 14.296 130.805 13.856 130.309 13.536C129.813 13.2 129.221 13.032 128.533 13.032C127.845 13.032 127.253 13.2 126.757 13.536C126.277 13.856 125.909 14.296 125.653 14.856C125.397 15.416 125.269 16.056 125.269 16.776V16.848ZM137.547 24C137.387 24 137.251 23.952 137.139 23.856C137.043 23.744 136.995 23.608 136.995 23.448V12.072C136.995 11.912 137.043 11.784 137.139 11.688C137.251 11.576 137.387 11.52 137.547 11.52H138.675C138.835 11.52 138.963 11.576 139.059 11.688C139.171 11.784 139.227 11.912 139.227 12.072V13.128C139.643 12.584 140.163 12.144 140.787 11.808C141.427 11.456 142.243 11.28 143.235 11.28C144.275 11.28 145.155 11.512 145.875 11.976C146.611 12.424 147.163 13.056 147.531 13.872C147.899 14.672 148.083 15.608 148.083 16.68V23.448C148.083 23.608 148.035 23.744 147.939 23.856C147.843 23.952 147.715 24 147.555 24H146.355C146.195 24 146.059 23.952 145.947 23.856C145.851 23.744 145.803 23.608 145.803 23.448V16.8C145.803 15.68 145.531 14.808 144.987 14.184C144.443 13.544 143.643 13.224 142.587 13.224C141.595 13.224 140.795 13.544 140.187 14.184C139.595 14.808 139.299 15.68 139.299 16.8V23.448C139.299 23.608 139.243 23.744 139.131 23.856C139.035 23.952 138.907 24 138.747 24H137.547ZM156.257 24C155.361 24 154.633 23.832 154.073 23.496C153.513 23.144 153.105 22.656 152.849 22.032C152.593 21.392 152.465 20.64 152.465 19.776V13.44H150.593C150.433 13.44 150.297 13.392 150.185 13.296C150.089 13.184 150.041 13.048 150.041 12.888V12.072C150.041 11.912 150.089 11.784 150.185 11.688C150.297 11.576 150.433 11.52 150.593 11.52H152.465V7.512C152.465 7.352 152.513 7.224 152.609 7.128C152.721 7.016 152.857 6.96 153.017 6.96H154.145C154.305 6.96 154.433 7.016 154.529 7.128C154.641 7.224 154.697 7.352 154.697 7.512V11.52H157.673C157.833 11.52 157.961 11.576 158.057 11.688C158.169 11.784 158.225 11.912 158.225 12.072V12.888C158.225 13.048 158.169 13.184 158.057 13.296C157.961 13.392 157.833 13.44 157.673 13.44H154.697V19.608C154.697 20.36 154.825 20.952 155.081 21.384C155.337 21.816 155.793 22.032 156.449 22.032H157.913C158.073 22.032 158.201 22.088 158.297 22.2C158.409 22.296 158.465 22.424 158.465 22.584V23.448C158.465 23.608 158.409 23.744 158.297 23.856C158.201 23.952 158.073 24 157.913 24H156.257ZM165.728 24.24C164.08 24.24 162.768 23.736 161.792 22.728C160.816 21.704 160.28 20.312 160.184 18.552C160.168 18.344 160.16 18.08 160.16 17.76C160.16 17.424 160.168 17.152 160.184 16.944C160.248 15.808 160.512 14.816 160.976 13.968C161.44 13.104 162.072 12.44 162.872 11.976C163.688 11.512 164.64 11.28 165.728 11.28C166.944 11.28 167.96 11.536 168.776 12.048C169.608 12.56 170.24 13.288 170.672 14.232C171.104 15.176 171.32 16.28 171.32 17.544V17.952C171.32 18.128 171.264 18.264 171.152 18.36C171.056 18.456 170.928 18.504 170.768 18.504H162.464C162.464 18.52 162.464 18.552 162.464 18.6C162.464 18.648 162.464 18.688 162.464 18.72C162.496 19.376 162.64 19.992 162.896 20.568C163.152 21.128 163.52 21.584 164 21.936C164.48 22.288 165.056 22.464 165.728 22.464C166.304 22.464 166.784 22.376 167.168 22.2C167.552 22.024 167.864 21.832 168.104 21.624C168.344 21.4 168.504 21.232 168.584 21.12C168.728 20.912 168.84 20.792 168.92 20.76C169 20.712 169.128 20.688 169.304 20.688H170.456C170.616 20.688 170.744 20.736 170.84 20.832C170.952 20.912 171 21.032 170.984 21.192C170.968 21.432 170.84 21.728 170.6 22.08C170.36 22.416 170.016 22.752 169.568 23.088C169.12 23.424 168.576 23.704 167.936 23.928C167.296 24.136 166.56 24.24 165.728 24.24ZM162.464 16.848H169.04V16.776C169.04 16.056 168.904 15.416 168.632 14.856C168.376 14.296 168 13.856 167.504 13.536C167.008 13.2 166.416 13.032 165.728 13.032C165.04 13.032 164.448 13.2 163.952 13.536C163.472 13.856 163.104 14.296 162.848 14.856C162.592 15.416 162.464 16.056 162.464 16.776V16.848ZM183.553 24.24C182.753 24.24 182.025 24.08 181.369 23.76C180.713 23.44 180.185 23.008 179.785 22.464C179.385 21.92 179.185 21.304 179.185 20.616C179.185 19.512 179.633 18.632 180.529 17.976C181.425 17.32 182.593 16.888 184.033 16.68L187.609 16.176V15.48C187.609 14.712 187.385 14.112 186.937 13.68C186.505 13.248 185.793 13.032 184.801 13.032C184.081 13.032 183.497 13.176 183.049 13.464C182.617 13.752 182.313 14.12 182.137 14.568C182.041 14.808 181.873 14.928 181.633 14.928H180.553C180.377 14.928 180.241 14.88 180.145 14.784C180.065 14.672 180.025 14.544 180.025 14.4C180.025 14.16 180.113 13.864 180.289 13.512C180.481 13.16 180.769 12.816 181.153 12.48C181.537 12.144 182.025 11.864 182.617 11.64C183.225 11.4 183.961 11.28 184.825 11.28C185.785 11.28 186.593 11.408 187.249 11.664C187.905 11.904 188.417 12.232 188.785 12.648C189.169 13.064 189.441 13.536 189.601 14.064C189.777 14.592 189.865 15.128 189.865 15.672V23.448C189.865 23.608 189.809 23.744 189.697 23.856C189.601 23.952 189.473 24 189.313 24H188.209C188.033 24 187.897 23.952 187.801 23.856C187.705 23.744 187.657 23.608 187.657 23.448V22.416C187.449 22.704 187.169 22.992 186.817 23.28C186.465 23.552 186.025 23.784 185.497 23.976C184.969 24.152 184.321 24.24 183.553 24.24ZM184.057 22.44C184.713 22.44 185.313 22.304 185.857 22.032C186.401 21.744 186.825 21.304 187.129 20.712C187.449 20.12 187.609 19.376 187.609 18.48V17.808L184.825 18.216C183.689 18.376 182.833 18.648 182.257 19.032C181.681 19.4 181.393 19.872 181.393 20.448C181.393 20.896 181.521 21.272 181.777 21.576C182.049 21.864 182.385 22.08 182.785 22.224C183.201 22.368 183.625 22.44 184.057 22.44ZM198.355 24.24C197.219 24.24 196.235 24.024 195.403 23.592C194.587 23.144 193.955 22.512 193.507 21.696C193.059 20.864 192.819 19.872 192.787 18.72C192.771 18.48 192.763 18.16 192.763 17.76C192.763 17.36 192.771 17.04 192.787 16.8C192.819 15.648 193.059 14.664 193.507 13.848C193.955 13.016 194.587 12.384 195.403 11.952C196.235 11.504 197.219 11.28 198.355 11.28C199.283 11.28 200.075 11.408 200.731 11.664C201.403 11.92 201.955 12.248 202.387 12.648C202.819 13.048 203.139 13.48 203.347 13.944C203.571 14.408 203.691 14.848 203.707 15.264C203.723 15.424 203.675 15.552 203.563 15.648C203.451 15.744 203.315 15.792 203.155 15.792H202.003C201.843 15.792 201.723 15.76 201.643 15.696C201.563 15.616 201.483 15.488 201.403 15.312C201.115 14.528 200.723 13.976 200.227 13.656C199.731 13.336 199.115 13.176 198.379 13.176C197.419 13.176 196.635 13.472 196.027 14.064C195.435 14.656 195.115 15.608 195.067 16.92C195.051 17.496 195.051 18.056 195.067 18.6C195.115 19.928 195.435 20.888 196.027 21.48C196.635 22.056 197.419 22.344 198.379 22.344C199.115 22.344 199.731 22.184 200.227 21.864C200.723 21.544 201.115 20.992 201.403 20.208C201.483 20.032 201.563 19.912 201.643 19.848C201.723 19.768 201.843 19.728 202.003 19.728H203.155C203.315 19.728 203.451 19.776 203.563 19.872C203.675 19.968 203.723 20.096 203.707 20.256C203.691 20.592 203.619 20.936 203.491 21.288C203.363 21.64 203.155 22 202.867 22.368C202.595 22.72 202.251 23.04 201.835 23.328C201.419 23.6 200.915 23.824 200.323 24C199.747 24.16 199.091 24.24 198.355 24.24ZM211.669 24.24C210.453 24.24 209.437 24.008 208.621 23.544C207.805 23.08 207.181 22.44 206.749 21.624C206.317 20.792 206.077 19.848 206.029 18.792C206.013 18.52 206.005 18.176 206.005 17.76C206.005 17.328 206.013 16.984 206.029 16.728C206.077 15.656 206.317 14.712 206.749 13.896C207.197 13.08 207.829 12.44 208.645 11.976C209.461 11.512 210.469 11.28 211.669 11.28C212.869 11.28 213.877 11.512 214.693 11.976C215.509 12.44 216.133 13.08 216.565 13.896C217.013 14.712 217.261 15.656 217.309 16.728C217.325 16.984 217.333 17.328 217.333 17.76C217.333 18.176 217.325 18.52 217.309 18.792C217.261 19.848 217.021 20.792 216.589 21.624C216.157 22.44 215.533 23.08 214.717 23.544C213.901 24.008 212.885 24.24 211.669 24.24ZM211.669 22.392C212.661 22.392 213.453 22.08 214.045 21.456C214.637 20.816 214.957 19.888 215.005 18.672C215.021 18.432 215.029 18.128 215.029 17.76C215.029 17.392 215.021 17.088 215.005 16.848C214.957 15.632 214.637 14.712 214.045 14.088C213.453 13.448 212.661 13.128 211.669 13.128C210.677 13.128 209.877 13.448 209.269 14.088C208.677 14.712 208.365 15.632 208.333 16.848C208.317 17.088 208.309 17.392 208.309 17.76C208.309 18.128 208.317 18.432 208.333 18.672C208.365 19.888 208.677 20.816 209.269 21.456C209.877 22.08 210.677 22.392 211.669 22.392ZM220.891 24C220.731 24 220.595 23.952 220.483 23.856C220.387 23.744 220.339 23.608 220.339 23.448V12.072C220.339 11.912 220.387 11.784 220.483 11.688C220.595 11.576 220.731 11.52 220.891 11.52H221.971C222.131 11.52 222.259 11.576 222.355 11.688C222.467 11.784 222.523 11.912 222.523 12.072V12.912C222.891 12.416 223.355 12.024 223.915 11.736C224.475 11.432 225.147 11.28 225.931 11.28C227.739 11.264 229.019 12 229.771 13.488C230.139 12.816 230.675 12.28 231.379 11.88C232.083 11.48 232.883 11.28 233.779 11.28C234.611 11.28 235.363 11.472 236.035 11.856C236.723 12.24 237.259 12.824 237.643 13.608C238.043 14.376 238.243 15.344 238.243 16.512V23.448C238.243 23.608 238.187 23.744 238.075 23.856C237.979 23.952 237.851 24 237.691 24H236.563C236.403 24 236.267 23.952 236.155 23.856C236.059 23.744 236.011 23.608 236.011 23.448V16.728C236.011 15.832 235.883 15.128 235.627 14.616C235.371 14.104 235.027 13.744 234.595 13.536C234.163 13.328 233.691 13.224 233.179 13.224C232.763 13.224 232.339 13.328 231.907 13.536C231.475 13.744 231.115 14.104 230.827 14.616C230.555 15.128 230.419 15.832 230.419 16.728V23.448C230.419 23.608 230.363 23.744 230.251 23.856C230.155 23.952 230.027 24 229.867 24H228.739C228.579 24 228.443 23.952 228.331 23.856C228.235 23.744 228.187 23.608 228.187 23.448V16.728C228.187 15.832 228.051 15.128 227.779 14.616C227.507 14.104 227.155 13.744 226.723 13.536C226.291 13.328 225.835 13.224 225.355 13.224C224.939 13.224 224.515 13.328 224.083 13.536C223.651 13.744 223.291 14.104 223.003 14.616C222.731 15.128 222.595 15.824 222.595 16.704V23.448C222.595 23.608 222.539 23.744 222.427 23.856C222.331 23.952 222.203 24 222.043 24H220.891ZM242.243 28.56C242.083 28.56 241.947 28.504 241.835 28.392C241.739 28.296 241.691 28.168 241.691 28.008V12.072C241.691 11.912 241.739 11.784 241.835 11.688C241.947 11.576 242.083 11.52 242.243 11.52H243.347C243.507 11.52 243.635 11.576 243.731 11.688C243.843 11.784 243.899 11.912 243.899 12.072V13.128C244.283 12.6 244.795 12.16 245.435 11.808C246.075 11.456 246.875 11.28 247.835 11.28C248.731 11.28 249.491 11.432 250.115 11.736C250.755 12.04 251.275 12.456 251.675 12.984C252.091 13.512 252.403 14.112 252.611 14.784C252.819 15.456 252.931 16.176 252.947 16.944C252.963 17.2 252.971 17.472 252.971 17.76C252.971 18.048 252.963 18.32 252.947 18.576C252.931 19.328 252.819 20.048 252.611 20.736C252.403 21.408 252.091 22.008 251.675 22.536C251.275 23.048 250.755 23.464 250.115 23.784C249.491 24.088 248.731 24.24 247.835 24.24C246.907 24.24 246.123 24.072 245.483 23.736C244.859 23.384 244.347 22.952 243.947 22.44V28.008C243.947 28.168 243.899 28.296 243.803 28.392C243.707 28.504 243.571 28.56 243.395 28.56H242.243ZM247.331 22.296C248.163 22.296 248.811 22.12 249.275 21.768C249.755 21.4 250.099 20.928 250.307 20.352C250.515 19.76 250.635 19.128 250.667 18.456C250.683 17.992 250.683 17.528 250.667 17.064C250.635 16.392 250.515 15.768 250.307 15.192C250.099 14.6 249.755 14.128 249.275 13.776C248.811 13.408 248.163 13.224 247.331 13.224C246.547 13.224 245.907 13.408 245.411 13.776C244.931 14.144 244.571 14.616 244.331 15.192C244.107 15.752 243.979 16.328 243.947 16.92C243.931 17.176 243.923 17.48 243.923 17.832C243.923 18.184 243.931 18.496 243.947 18.768C243.963 19.328 244.091 19.88 244.331 20.424C244.587 20.968 244.963 21.416 245.459 21.768C245.955 22.12 246.579 22.296 247.331 22.296ZM259.444 24.24C258.644 24.24 257.916 24.08 257.26 23.76C256.604 23.44 256.076 23.008 255.676 22.464C255.276 21.92 255.076 21.304 255.076 20.616C255.076 19.512 255.524 18.632 256.42 17.976C257.316 17.32 258.484 16.888 259.924 16.68L263.5 16.176V15.48C263.5 14.712 263.276 14.112 262.828 13.68C262.396 13.248 261.684 13.032 260.692 13.032C259.972 13.032 259.388 13.176 258.94 13.464C258.508 13.752 258.204 14.12 258.028 14.568C257.932 14.808 257.764 14.928 257.524 14.928H256.444C256.268 14.928 256.132 14.88 256.036 14.784C255.956 14.672 255.916 14.544 255.916 14.4C255.916 14.16 256.004 13.864 256.18 13.512C256.372 13.16 256.66 12.816 257.044 12.48C257.428 12.144 257.916 11.864 258.508 11.64C259.116 11.4 259.852 11.28 260.716 11.28C261.676 11.28 262.484 11.408 263.14 11.664C263.796 11.904 264.308 12.232 264.676 12.648C265.06 13.064 265.332 13.536 265.492 14.064C265.668 14.592 265.756 15.128 265.756 15.672V23.448C265.756 23.608 265.7 23.744 265.588 23.856C265.492 23.952 265.364 24 265.204 24H264.1C263.924 24 263.788 23.952 263.692 23.856C263.596 23.744 263.548 23.608 263.548 23.448V22.416C263.34 22.704 263.06 22.992 262.708 23.28C262.356 23.552 261.916 23.784 261.388 23.976C260.86 24.152 260.212 24.24 259.444 24.24ZM259.948 22.44C260.604 22.44 261.204 22.304 261.748 22.032C262.292 21.744 262.716 21.304 263.02 20.712C263.34 20.12 263.5 19.376 263.5 18.48V17.808L260.716 18.216C259.58 18.376 258.724 18.648 258.148 19.032C257.572 19.4 257.284 19.872 257.284 20.448C257.284 20.896 257.412 21.272 257.668 21.576C257.94 21.864 258.276 22.08 258.676 22.224C259.092 22.368 259.516 22.44 259.948 22.44ZM269.758 24C269.598 24 269.462 23.952 269.35 23.856C269.254 23.744 269.206 23.608 269.206 23.448V12.072C269.206 11.912 269.254 11.784 269.35 11.688C269.462 11.576 269.598 11.52 269.758 11.52H270.886C271.046 11.52 271.174 11.576 271.27 11.688C271.382 11.784 271.438 11.912 271.438 12.072V13.128C271.854 12.584 272.374 12.144 272.998 11.808C273.638 11.456 274.454 11.28 275.446 11.28C276.486 11.28 277.366 11.512 278.086 11.976C278.822 12.424 279.374 13.056 279.742 13.872C280.11 14.672 280.294 15.608 280.294 16.68V23.448C280.294 23.608 280.246 23.744 280.15 23.856C280.054 23.952 279.926 24 279.766 24H278.566C278.406 24 278.27 23.952 278.158 23.856C278.062 23.744 278.014 23.608 278.014 23.448V16.8C278.014 15.68 277.742 14.808 277.198 14.184C276.654 13.544 275.854 13.224 274.798 13.224C273.806 13.224 273.006 13.544 272.398 14.184C271.806 14.808 271.51 15.68 271.51 16.8V23.448C271.51 23.608 271.454 23.744 271.342 23.856C271.246 23.952 271.118 24 270.958 24H269.758ZM284.336 24C284.176 24 284.04 23.952 283.928 23.856C283.832 23.744 283.784 23.608 283.784 23.448V7.512C283.784 7.352 283.832 7.224 283.928 7.128C284.04 7.016 284.176 6.96 284.336 6.96H285.536C285.712 6.96 285.848 7.016 285.944 7.128C286.04 7.224 286.088 7.352 286.088 7.512V13.104C286.52 12.56 287.048 12.12 287.672 11.784C288.296 11.448 289.088 11.28 290.048 11.28C291.088 11.28 291.968 11.512 292.688 11.976C293.424 12.424 293.976 13.056 294.344 13.872C294.728 14.672 294.92 15.608 294.92 16.68V23.448C294.92 23.608 294.872 23.744 294.776 23.856C294.68 23.952 294.544 24 294.368 24H293.168C293.008 24 292.872 23.952 292.76 23.856C292.664 23.744 292.616 23.608 292.616 23.448V16.8C292.616 15.68 292.344 14.808 291.8 14.184C291.256 13.544 290.456 13.224 289.4 13.224C288.408 13.224 287.608 13.544 287 14.184C286.392 14.808 286.088 15.68 286.088 16.8V23.448C286.088 23.608 286.04 23.744 285.944 23.856C285.848 23.952 285.712 24 285.536 24H284.336ZM301.865 24.24C301.065 24.24 300.337 24.08 299.681 23.76C299.025 23.44 298.497 23.008 298.097 22.464C297.697 21.92 297.497 21.304 297.497 20.616C297.497 19.512 297.945 18.632 298.841 17.976C299.737 17.32 300.905 16.888 302.345 16.68L305.921 16.176V15.48C305.921 14.712 305.697 14.112 305.249 13.68C304.817 13.248 304.105 13.032 303.113 13.032C302.393 13.032 301.809 13.176 301.361 13.464C300.929 13.752 300.625 14.12 300.449 14.568C300.353 14.808 300.185 14.928 299.945 14.928H298.865C298.689 14.928 298.553 14.88 298.457 14.784C298.377 14.672 298.337 14.544 298.337 14.4C298.337 14.16 298.425 13.864 298.601 13.512C298.793 13.16 299.081 12.816 299.465 12.48C299.849 12.144 300.337 11.864 300.929 11.64C301.537 11.4 302.273 11.28 303.137 11.28C304.097 11.28 304.905 11.408 305.561 11.664C306.217 11.904 306.729 12.232 307.097 12.648C307.481 13.064 307.753 13.536 307.913 14.064C308.089 14.592 308.177 15.128 308.177 15.672V23.448C308.177 23.608 308.121 23.744 308.009 23.856C307.913 23.952 307.785 24 307.625 24H306.521C306.345 24 306.209 23.952 306.113 23.856C306.017 23.744 305.969 23.608 305.969 23.448V22.416C305.761 22.704 305.481 22.992 305.129 23.28C304.777 23.552 304.337 23.784 303.809 23.976C303.281 24.152 302.633 24.24 301.865 24.24ZM302.369 22.44C303.025 22.44 303.625 22.304 304.169 22.032C304.713 21.744 305.137 21.304 305.441 20.712C305.761 20.12 305.921 19.376 305.921 18.48V17.808L303.137 18.216C302.001 18.376 301.145 18.648 300.569 19.032C299.993 19.4 299.705 19.872 299.705 20.448C299.705 20.896 299.833 21.272 300.089 21.576C300.361 21.864 300.697 22.08 301.097 22.224C301.513 22.368 301.937 22.44 302.369 22.44Z" fill="white"/>
<rect y="40" width="353" height="117" rx="20" fill="white"/>
<path d="M52.4248 99.416C52.0728 99.416 51.7848 99.304 51.5608 99.08C51.3368 98.856 51.2248 98.568 51.2248 98.216V89.432H42.6808C42.3288 89.432 42.0248 89.32 41.7688 89.096C41.5448 88.872 41.4328 88.584 41.4328 88.232V84.728C41.4328 84.376 41.5448 84.088 41.7688 83.864C42.0248 83.64 42.3288 83.528 42.6808 83.528H51.2248V74.984C51.2248 74.632 51.3368 74.344 51.5608 74.12C51.7848 73.896 52.0728 73.784 52.4248 73.784H56.3608C56.6808 73.784 56.9528 73.896 57.1768 74.12C57.4328 74.344 57.5608 74.632 57.5608 74.984V83.528H66.0568C66.4088 83.528 66.6968 83.64 66.9208 83.864C67.1448 84.088 67.2568 84.376 67.2568 84.728V88.232C67.2568 88.584 67.1448 88.872 66.9208 89.096C66.6968 89.32 66.4088 89.432 66.0568 89.432H57.5608V98.216C57.5608 98.568 57.4328 98.856 57.1768 99.08C56.9528 99.304 56.6808 99.416 56.3608 99.416H52.4248ZM94.5358 101.528C91.5278 101.528 89.0158 101.064 86.9998 100.136C84.9838 99.176 83.4478 97.944 82.3918 96.44C81.3678 94.904 80.8238 93.256 80.7598 91.496C80.7598 91.208 80.8558 90.968 81.0478 90.776C81.2398 90.584 81.4798 90.488 81.7678 90.488H88.1998C88.6158 90.488 88.9358 90.584 89.1598 90.776C89.4158 90.936 89.6078 91.144 89.7358 91.4C90.0238 92.136 90.3918 92.744 90.8398 93.224C91.3198 93.704 91.8638 94.056 92.4718 94.28C93.1118 94.504 93.8158 94.616 94.5838 94.616C95.4798 94.616 96.3118 94.424 97.0798 94.04C97.8478 93.656 98.4558 93.096 98.9038 92.36C99.3838 91.592 99.6238 90.68 99.6238 89.624C99.6238 88.664 99.3998 87.832 98.9518 87.128C98.5358 86.424 97.9438 85.864 97.1758 85.448C96.4078 85.032 95.5438 84.824 94.5838 84.824C93.8158 84.824 93.1918 84.92 92.7118 85.112C92.2318 85.272 91.8318 85.48 91.5118 85.736C91.1918 85.992 90.9038 86.216 90.6478 86.408C90.3918 86.568 90.1038 86.648 89.7838 86.648H83.4958C83.2078 86.648 82.9518 86.552 82.7278 86.36C82.5358 86.136 82.4398 85.88 82.4398 85.592L84.1678 68.84C84.2318 68.36 84.4078 68.008 84.6958 67.784C84.9838 67.528 85.3358 67.4 85.7518 67.4H105C105.352 67.4 105.64 67.512 105.864 67.736C106.088 67.96 106.2 68.248 106.2 68.6V73.112C106.2 73.464 106.088 73.752 105.864 73.976C105.64 74.2 105.352 74.312 105 74.312H91.0798L90.4558 80.552C91.1598 80.072 91.9758 79.688 92.9038 79.4C93.8638 79.08 95.1598 78.92 96.7918 78.92C98.3278 78.92 99.7838 79.176 101.16 79.688C102.568 80.2 103.816 80.936 104.904 81.896C106.024 82.856 106.888 84.008 107.496 85.352C108.136 86.664 108.456 88.152 108.456 89.816C108.456 92.088 107.896 94.104 106.776 95.864C105.688 97.624 104.104 99.016 102.024 100.04C99.9438 101.032 97.4478 101.528 94.5358 101.528ZM120.122 101C119.77 101 119.482 100.888 119.258 100.664C119.034 100.44 118.922 100.152 118.922 99.8V77.24C118.922 76.888 119.034 76.6 119.258 76.376C119.482 76.152 119.77 76.04 120.122 76.04H125.354C125.706 76.04 125.994 76.152 126.218 76.376C126.442 76.6 126.554 76.888 126.554 77.24V78.872C127.194 78.008 128.09 77.256 129.242 76.616C130.394 75.944 131.754 75.592 133.322 75.56C137.002 75.496 139.53 76.888 140.906 79.736C141.642 78.52 142.698 77.528 144.074 76.76C145.45 75.96 146.954 75.56 148.586 75.56C150.25 75.56 151.738 75.944 153.05 76.712C154.394 77.448 155.466 78.6 156.266 80.168C157.066 81.704 157.466 83.704 157.466 86.168V99.8C157.466 100.152 157.338 100.44 157.082 100.664C156.858 100.888 156.586 101 156.266 101H150.698C150.346 101 150.042 100.888 149.786 100.664C149.562 100.44 149.45 100.152 149.45 99.8V86.504C149.45 85.384 149.29 84.504 148.97 83.864C148.65 83.192 148.218 82.712 147.674 82.424C147.13 82.136 146.506 81.992 145.802 81.992C145.226 81.992 144.65 82.136 144.074 82.424C143.53 82.712 143.082 83.192 142.73 83.864C142.41 84.504 142.25 85.384 142.25 86.504V99.8C142.25 100.152 142.138 100.44 141.914 100.664C141.69 100.888 141.402 101 141.05 101H135.482C135.13 101 134.842 100.888 134.618 100.664C134.394 100.44 134.282 100.152 134.282 99.8V86.504C134.282 85.384 134.106 84.504 133.754 83.864C133.402 83.192 132.954 82.712 132.41 82.424C131.866 82.136 131.258 81.992 130.586 81.992C130.01 81.992 129.434 82.136 128.858 82.424C128.314 82.712 127.866 83.192 127.514 83.864C127.194 84.504 127.034 85.368 127.034 86.456V99.8C127.034 100.152 126.906 100.44 126.65 100.664C126.426 100.888 126.138 101 125.786 101H120.122ZM164.044 101C163.692 101 163.404 100.888 163.18 100.664C162.956 100.44 162.844 100.152 162.844 99.8V77.24C162.844 76.888 162.956 76.6 163.18 76.376C163.404 76.152 163.692 76.04 164.044 76.04H169.708C170.028 76.04 170.3 76.152 170.524 76.376C170.78 76.6 170.908 76.888 170.908 77.24V99.8C170.908 100.152 170.78 100.44 170.524 100.664C170.3 100.888 170.028 101 169.708 101H164.044ZM163.996 72.44C163.644 72.44 163.356 72.328 163.132 72.104C162.908 71.88 162.796 71.592 162.796 71.24V66.968C162.796 66.616 162.908 66.328 163.132 66.104C163.356 65.848 163.644 65.72 163.996 65.72H169.708C170.06 65.72 170.348 65.848 170.572 66.104C170.828 66.328 170.956 66.616 170.956 66.968V71.24C170.956 71.592 170.828 71.88 170.572 72.104C170.348 72.328 170.06 72.44 169.708 72.44H163.996ZM177.731 101C177.379 101 177.091 100.888 176.867 100.664C176.643 100.44 176.531 100.152 176.531 99.8V68.12C176.531 67.768 176.643 67.48 176.867 67.256C177.091 67.032 177.379 66.92 177.731 66.92H183.395C183.747 66.92 184.035 67.032 184.259 67.256C184.483 67.48 184.595 67.768 184.595 68.12V99.8C184.595 100.152 184.483 100.44 184.259 100.664C184.035 100.888 183.747 101 183.395 101H177.731ZM191.466 101C191.114 101 190.826 100.888 190.602 100.664C190.378 100.44 190.266 100.152 190.266 99.8V68.12C190.266 67.768 190.378 67.48 190.602 67.256C190.826 67.032 191.114 66.92 191.466 66.92H197.61C197.962 66.92 198.25 67.032 198.474 67.256C198.698 67.48 198.81 67.768 198.81 68.12V78.824C199.674 77.832 200.73 77.048 201.978 76.472C203.258 75.864 204.73 75.56 206.394 75.56C208.25 75.56 209.898 75.976 211.338 76.808C212.81 77.64 213.962 78.872 214.794 80.504C215.626 82.104 216.042 84.072 216.042 86.408V99.8C216.042 100.152 215.93 100.44 215.706 100.664C215.482 100.888 215.194 101 214.842 101H208.65C208.33 101 208.042 100.888 207.786 100.664C207.562 100.44 207.45 100.152 207.45 99.8V86.696C207.45 85.192 207.082 84.04 206.346 83.24C205.642 82.408 204.586 81.992 203.178 81.992C201.866 81.992 200.81 82.408 200.01 83.24C199.21 84.04 198.81 85.192 198.81 86.696V99.8C198.81 100.152 198.698 100.44 198.474 100.664C198.25 100.888 197.962 101 197.61 101H191.466ZM233.292 101.48C230.604 101.48 228.332 101.048 226.476 100.184C224.652 99.32 223.244 98.088 222.252 96.488C221.292 94.856 220.748 92.92 220.62 90.68C220.588 90.04 220.572 89.32 220.572 88.52C220.572 87.688 220.588 86.968 220.62 86.36C220.748 84.088 221.324 82.152 222.348 80.552C223.372 78.952 224.796 77.72 226.62 76.856C228.476 75.992 230.7 75.56 233.292 75.56C235.916 75.56 238.14 75.992 239.964 76.856C241.82 77.72 243.26 78.952 244.284 80.552C245.308 82.152 245.884 84.088 246.012 86.36C246.044 86.968 246.06 87.688 246.06 88.52C246.06 89.32 246.044 90.04 246.012 90.68C245.884 92.92 245.324 94.856 244.332 96.488C243.372 98.088 241.964 99.32 240.108 100.184C238.284 101.048 236.012 101.48 233.292 101.48ZM233.292 95.624C234.732 95.624 235.772 95.192 236.412 94.328C237.084 93.464 237.468 92.168 237.564 90.44C237.596 89.96 237.612 89.32 237.612 88.52C237.612 87.72 237.596 87.08 237.564 86.6C237.468 84.904 237.084 83.624 236.412 82.76C235.772 81.864 234.732 81.416 233.292 81.416C231.884 81.416 230.844 81.864 230.172 82.76C229.5 83.624 229.132 84.904 229.068 86.6C229.036 87.08 229.02 87.72 229.02 88.52C229.02 89.32 229.036 89.96 229.068 90.44C229.132 92.168 229.5 93.464 230.172 94.328C230.844 95.192 231.884 95.624 233.292 95.624ZM236.124 72.68C235.26 72.68 234.54 72.536 233.964 72.248C233.42 71.96 232.924 71.688 232.476 71.432C232.06 71.144 231.564 71 230.988 71C230.54 71 230.22 71.112 230.028 71.336C229.836 71.56 229.66 71.8 229.5 72.056C229.34 72.312 229.084 72.44 228.732 72.44H225.852C225.628 72.44 225.436 72.36 225.276 72.2C225.116 72.008 225.036 71.816 225.036 71.624C225.036 71.112 225.116 70.52 225.276 69.848C225.468 69.144 225.772 68.472 226.188 67.832C226.604 67.192 227.148 66.664 227.82 66.248C228.524 65.8 229.372 65.576 230.364 65.576C231.26 65.576 231.98 65.72 232.524 66.008C233.068 66.296 233.564 66.584 234.012 66.872C234.492 67.16 235.004 67.304 235.548 67.304C235.996 67.304 236.3 67.176 236.46 66.92C236.652 66.664 236.828 66.424 236.988 66.2C237.18 65.944 237.452 65.816 237.804 65.816H240.684C240.94 65.816 241.132 65.912 241.26 66.104C241.42 66.264 241.5 66.456 241.5 66.68C241.5 67.192 241.404 67.784 241.212 68.456C241.052 69.128 240.764 69.8 240.348 70.472C239.932 71.112 239.372 71.64 238.668 72.056C237.996 72.472 237.148 72.68 236.124 72.68ZM262.301 101.48C258.525 101.48 255.517 100.456 253.277 98.408C251.037 96.36 249.869 93.32 249.773 89.288C249.773 89.064 249.773 88.776 249.773 88.424C249.773 88.072 249.773 87.8 249.773 87.608C249.869 85.08 250.429 82.92 251.453 81.128C252.509 79.304 253.949 77.928 255.773 77C257.629 76.04 259.789 75.56 262.253 75.56C265.069 75.56 267.389 76.12 269.213 77.24C271.069 78.36 272.461 79.88 273.389 81.8C274.317 83.72 274.781 85.912 274.781 88.376V89.528C274.781 89.88 274.653 90.168 274.397 90.392C274.173 90.616 273.901 90.728 273.581 90.728H258.221C258.221 90.76 258.221 90.808 258.221 90.872C258.221 90.936 258.221 91 258.221 91.064C258.253 91.992 258.413 92.84 258.701 93.608C258.989 94.376 259.437 94.984 260.045 95.432C260.653 95.88 261.389 96.104 262.253 96.104C262.893 96.104 263.421 96.008 263.837 95.816C264.285 95.592 264.653 95.352 264.941 95.096C265.229 94.808 265.453 94.568 265.613 94.376C265.901 94.056 266.125 93.864 266.285 93.8C266.477 93.704 266.765 93.656 267.149 93.656H273.101C273.421 93.656 273.677 93.752 273.869 93.944C274.093 94.104 274.189 94.344 274.157 94.664C274.125 95.208 273.853 95.864 273.341 96.632C272.829 97.4 272.077 98.168 271.085 98.936C270.125 99.672 268.909 100.28 267.437 100.76C265.965 101.24 264.253 101.48 262.301 101.48ZM258.221 85.976H266.333V85.88C266.333 84.856 266.173 83.96 265.853 83.192C265.565 82.424 265.101 81.832 264.461 81.416C263.853 81 263.117 80.792 262.253 80.792C261.389 80.792 260.653 81 260.045 81.416C259.469 81.832 259.021 82.424 258.701 83.192C258.381 83.96 258.221 84.856 258.221 85.88V85.976ZM289.553 101.48C287.473 101.48 285.697 101.256 284.225 100.808C282.785 100.328 281.601 99.752 280.673 99.08C279.777 98.408 279.105 97.72 278.657 97.016C278.209 96.28 277.969 95.656 277.937 95.144C277.905 94.792 278.017 94.504 278.273 94.28C278.529 94.024 278.801 93.896 279.089 93.896H284.561C284.657 93.896 284.737 93.912 284.801 93.944C284.865 93.976 284.961 94.04 285.089 94.136C285.505 94.36 285.921 94.648 286.337 95C286.753 95.32 287.233 95.608 287.777 95.864C288.321 96.12 288.977 96.248 289.745 96.248C290.641 96.248 291.393 96.072 292.001 95.72C292.609 95.368 292.913 94.84 292.913 94.136C292.913 93.624 292.769 93.208 292.481 92.888C292.193 92.536 291.601 92.2 290.705 91.88C289.841 91.56 288.529 91.24 286.769 90.92C285.105 90.536 283.649 90.04 282.401 89.432C281.153 88.792 280.193 87.976 279.521 86.984C278.849 85.96 278.513 84.728 278.513 83.288C278.513 82.008 278.929 80.776 279.761 79.592C280.593 78.408 281.809 77.448 283.409 76.712C285.009 75.944 286.977 75.56 289.313 75.56C291.169 75.56 292.769 75.784 294.113 76.232C295.489 76.648 296.641 77.192 297.569 77.864C298.529 78.536 299.249 79.224 299.729 79.928C300.209 80.632 300.465 81.272 300.497 81.848C300.529 82.168 300.433 82.456 300.209 82.712C299.985 82.936 299.729 83.048 299.441 83.048H294.449C294.321 83.048 294.193 83.032 294.065 83C293.937 82.936 293.825 82.872 293.729 82.808C293.345 82.616 292.961 82.36 292.577 82.04C292.193 81.72 291.745 81.432 291.233 81.176C290.721 80.92 290.081 80.792 289.313 80.792C288.449 80.792 287.777 80.984 287.297 81.368C286.817 81.752 286.577 82.248 286.577 82.856C286.577 83.272 286.705 83.656 286.961 84.008C287.249 84.36 287.809 84.68 288.641 84.968C289.505 85.256 290.833 85.576 292.625 85.928C294.833 86.28 296.593 86.856 297.905 87.656C299.217 88.424 300.145 89.336 300.689 90.392C301.233 91.416 301.505 92.504 301.505 93.656C301.505 95.192 301.041 96.552 300.113 97.736C299.217 98.92 297.873 99.848 296.081 100.52C294.289 101.16 292.113 101.48 289.553 101.48ZM139.172 133.24C138.292 133.24 137.532 133.088 136.892 132.784C136.252 132.464 135.724 132.04 135.308 131.512C134.908 130.968 134.604 130.352 134.396 129.664C134.204 128.976 134.092 128.248 134.06 127.48C134.044 127.224 134.036 126.984 134.036 126.76C134.036 126.536 134.044 126.296 134.06 126.04C134.092 125.288 134.204 124.568 134.396 123.88C134.604 123.192 134.908 122.576 135.308 122.032C135.724 121.488 136.252 121.064 136.892 120.76C137.532 120.44 138.292 120.28 139.172 120.28C140.116 120.28 140.9 120.448 141.524 120.784C142.148 121.12 142.66 121.536 143.06 122.032V116.512C143.06 116.352 143.108 116.224 143.204 116.128C143.316 116.016 143.452 115.96 143.612 115.96H144.764C144.924 115.96 145.052 116.016 145.148 116.128C145.26 116.224 145.316 116.352 145.316 116.512V132.448C145.316 132.608 145.26 132.744 145.148 132.856C145.052 132.952 144.924 133 144.764 133H143.684C143.508 133 143.372 132.952 143.276 132.856C143.18 132.744 143.132 132.608 143.132 132.448V131.44C142.732 131.952 142.212 132.384 141.572 132.736C140.932 133.072 140.132 133.24 139.172 133.24ZM139.676 131.296C140.476 131.296 141.116 131.112 141.596 130.744C142.076 130.376 142.436 129.912 142.676 129.352C142.916 128.776 143.044 128.192 143.06 127.6C143.076 127.344 143.084 127.04 143.084 126.688C143.084 126.32 143.076 126.008 143.06 125.752C143.044 125.192 142.908 124.64 142.652 124.096C142.412 123.552 142.044 123.104 141.548 122.752C141.068 122.4 140.444 122.224 139.676 122.224C138.86 122.224 138.212 122.408 137.732 122.776C137.252 123.128 136.908 123.6 136.7 124.192C136.492 124.768 136.372 125.392 136.34 126.064C136.324 126.528 136.324 126.992 136.34 127.456C136.372 128.128 136.492 128.76 136.7 129.352C136.908 129.928 137.252 130.4 137.732 130.768C138.212 131.12 138.86 131.296 139.676 131.296ZM153.853 133.24C152.205 133.24 150.893 132.736 149.917 131.728C148.941 130.704 148.405 129.312 148.309 127.552C148.293 127.344 148.285 127.08 148.285 126.76C148.285 126.424 148.293 126.152 148.309 125.944C148.373 124.808 148.637 123.816 149.101 122.968C149.565 122.104 150.197 121.44 150.997 120.976C151.813 120.512 152.765 120.28 153.853 120.28C155.069 120.28 156.085 120.536 156.901 121.048C157.733 121.56 158.365 122.288 158.797 123.232C159.229 124.176 159.445 125.28 159.445 126.544V126.952C159.445 127.128 159.389 127.264 159.277 127.36C159.181 127.456 159.053 127.504 158.893 127.504H150.589C150.589 127.52 150.589 127.552 150.589 127.6C150.589 127.648 150.589 127.688 150.589 127.72C150.621 128.376 150.765 128.992 151.021 129.568C151.277 130.128 151.645 130.584 152.125 130.936C152.605 131.288 153.181 131.464 153.853 131.464C154.429 131.464 154.909 131.376 155.293 131.2C155.677 131.024 155.989 130.832 156.229 130.624C156.469 130.4 156.629 130.232 156.709 130.12C156.853 129.912 156.965 129.792 157.045 129.76C157.125 129.712 157.253 129.688 157.429 129.688H158.581C158.741 129.688 158.869 129.736 158.965 129.832C159.077 129.912 159.125 130.032 159.109 130.192C159.093 130.432 158.965 130.728 158.725 131.08C158.485 131.416 158.141 131.752 157.693 132.088C157.245 132.424 156.701 132.704 156.061 132.928C155.421 133.136 154.685 133.24 153.853 133.24ZM150.589 125.848H157.165V125.776C157.165 125.056 157.029 124.416 156.757 123.856C156.501 123.296 156.125 122.856 155.629 122.536C155.133 122.2 154.541 122.032 153.853 122.032C153.165 122.032 152.573 122.2 152.077 122.536C151.597 122.856 151.229 123.296 150.973 123.856C150.717 124.416 150.589 125.056 150.589 125.776V125.848ZM168.75 133C168.59 133 168.454 132.952 168.342 132.856C168.246 132.744 168.198 132.608 168.198 132.448V121.096C168.198 120.936 168.246 120.8 168.342 120.688C168.454 120.576 168.59 120.52 168.75 120.52H169.854C170.014 120.52 170.15 120.576 170.262 120.688C170.374 120.8 170.43 120.936 170.43 121.096V122.152C170.75 121.608 171.19 121.2 171.75 120.928C172.31 120.656 172.982 120.52 173.766 120.52H174.726C174.886 120.52 175.014 120.576 175.11 120.688C175.206 120.784 175.254 120.912 175.254 121.072V122.056C175.254 122.216 175.206 122.344 175.11 122.44C175.014 122.536 174.886 122.584 174.726 122.584H173.286C172.422 122.584 171.742 122.84 171.246 123.352C170.75 123.848 170.502 124.528 170.502 125.392V132.448C170.502 132.608 170.446 132.744 170.334 132.856C170.222 132.952 170.086 133 169.926 133H168.75ZM182.049 133.24C180.401 133.24 179.089 132.736 178.113 131.728C177.137 130.704 176.601 129.312 176.505 127.552C176.489 127.344 176.481 127.08 176.481 126.76C176.481 126.424 176.489 126.152 176.505 125.944C176.569 124.808 176.833 123.816 177.297 122.968C177.761 122.104 178.393 121.44 179.193 120.976C180.009 120.512 180.961 120.28 182.049 120.28C183.265 120.28 184.281 120.536 185.097 121.048C185.929 121.56 186.561 122.288 186.993 123.232C187.425 124.176 187.641 125.28 187.641 126.544V126.952C187.641 127.128 187.585 127.264 187.473 127.36C187.377 127.456 187.249 127.504 187.089 127.504H178.785C178.785 127.52 178.785 127.552 178.785 127.6C178.785 127.648 178.785 127.688 178.785 127.72C178.817 128.376 178.961 128.992 179.217 129.568C179.473 130.128 179.841 130.584 180.321 130.936C180.801 131.288 181.377 131.464 182.049 131.464C182.625 131.464 183.105 131.376 183.489 131.2C183.873 131.024 184.185 130.832 184.425 130.624C184.665 130.4 184.825 130.232 184.905 130.12C185.049 129.912 185.161 129.792 185.241 129.76C185.321 129.712 185.449 129.688 185.625 129.688H186.777C186.937 129.688 187.065 129.736 187.161 129.832C187.273 129.912 187.321 130.032 187.305 130.192C187.289 130.432 187.161 130.728 186.921 131.08C186.681 131.416 186.337 131.752 185.889 132.088C185.441 132.424 184.897 132.704 184.257 132.928C183.617 133.136 182.881 133.24 182.049 133.24ZM178.785 125.848H185.361V125.776C185.361 125.056 185.225 124.416 184.953 123.856C184.697 123.296 184.321 122.856 183.825 122.536C183.329 122.2 182.737 122.032 182.049 122.032C181.361 122.032 180.769 122.2 180.273 122.536C179.793 122.856 179.425 123.296 179.169 123.856C178.913 124.416 178.785 125.056 178.785 125.776V125.848ZM193.99 133.24C193.19 133.24 192.462 133.08 191.806 132.76C191.15 132.44 190.622 132.008 190.222 131.464C189.822 130.92 189.622 130.304 189.622 129.616C189.622 128.512 190.07 127.632 190.966 126.976C191.862 126.32 193.03 125.888 194.47 125.68L198.046 125.176V124.48C198.046 123.712 197.822 123.112 197.374 122.68C196.942 122.248 196.23 122.032 195.238 122.032C194.518 122.032 193.934 122.176 193.486 122.464C193.054 122.752 192.75 123.12 192.574 123.568C192.478 123.808 192.31 123.928 192.07 123.928H190.99C190.814 123.928 190.678 123.88 190.582 123.784C190.502 123.672 190.462 123.544 190.462 123.4C190.462 123.16 190.55 122.864 190.726 122.512C190.918 122.16 191.206 121.816 191.59 121.48C191.974 121.144 192.462 120.864 193.054 120.64C193.662 120.4 194.398 120.28 195.262 120.28C196.222 120.28 197.03 120.408 197.686 120.664C198.342 120.904 198.854 121.232 199.222 121.648C199.606 122.064 199.878 122.536 200.038 123.064C200.214 123.592 200.302 124.128 200.302 124.672V132.448C200.302 132.608 200.246 132.744 200.134 132.856C200.038 132.952 199.91 133 199.75 133H198.646C198.47 133 198.334 132.952 198.238 132.856C198.142 132.744 198.094 132.608 198.094 132.448V131.416C197.886 131.704 197.606 131.992 197.254 132.28C196.902 132.552 196.462 132.784 195.934 132.976C195.406 133.152 194.758 133.24 193.99 133.24ZM194.494 131.44C195.15 131.44 195.75 131.304 196.294 131.032C196.838 130.744 197.262 130.304 197.566 129.712C197.886 129.12 198.046 128.376 198.046 127.48V126.808L195.262 127.216C194.126 127.376 193.27 127.648 192.694 128.032C192.118 128.4 191.83 128.872 191.83 129.448C191.83 129.896 191.958 130.272 192.214 130.576C192.486 130.864 192.822 131.08 193.222 131.224C193.638 131.368 194.062 131.44 194.494 131.44ZM204.305 133C204.145 133 204.009 132.952 203.897 132.856C203.801 132.744 203.753 132.608 203.753 132.448V121.072C203.753 120.912 203.801 120.784 203.897 120.688C204.009 120.576 204.145 120.52 204.305 120.52H205.457C205.617 120.52 205.745 120.576 205.841 120.688C205.937 120.784 205.985 120.912 205.985 121.072V132.448C205.985 132.608 205.937 132.744 205.841 132.856C205.745 132.952 205.617 133 205.457 133H204.305ZM204.113 118.192C203.953 118.192 203.817 118.144 203.705 118.048C203.609 117.936 203.561 117.8 203.561 117.64V116.344C203.561 116.184 203.609 116.056 203.705 115.96C203.817 115.848 203.953 115.792 204.113 115.792H205.625C205.785 115.792 205.913 115.848 206.009 115.96C206.121 116.056 206.177 116.184 206.177 116.344V117.64C206.177 117.8 206.121 117.936 206.009 118.048C205.913 118.144 205.785 118.192 205.625 118.192H204.113ZM214.026 133.24C213.13 133.24 212.362 133.128 211.722 132.904C211.082 132.68 210.562 132.408 210.162 132.088C209.762 131.768 209.458 131.448 209.25 131.128C209.058 130.808 208.954 130.552 208.938 130.36C208.922 130.184 208.978 130.048 209.106 129.952C209.234 129.856 209.362 129.808 209.49 129.808H210.546C210.642 129.808 210.714 129.824 210.762 129.856C210.826 129.872 210.906 129.936 211.002 130.048C211.21 130.272 211.442 130.496 211.698 130.72C211.954 130.944 212.266 131.128 212.634 131.272C213.018 131.416 213.49 131.488 214.05 131.488C214.866 131.488 215.538 131.336 216.066 131.032C216.594 130.712 216.858 130.248 216.858 129.64C216.858 129.24 216.746 128.92 216.522 128.68C216.314 128.44 215.93 128.224 215.37 128.032C214.826 127.84 214.074 127.64 213.114 127.432C212.154 127.208 211.394 126.936 210.834 126.616C210.274 126.28 209.874 125.888 209.634 125.44C209.394 124.976 209.274 124.456 209.274 123.88C209.274 123.288 209.45 122.72 209.802 122.176C210.154 121.616 210.666 121.16 211.338 120.808C212.026 120.456 212.882 120.28 213.906 120.28C214.738 120.28 215.45 120.384 216.042 120.592C216.634 120.8 217.122 121.064 217.506 121.384C217.89 121.688 218.178 121.992 218.37 122.296C218.562 122.6 218.666 122.856 218.682 123.064C218.698 123.224 218.65 123.36 218.538 123.472C218.426 123.568 218.298 123.616 218.154 123.616H217.146C217.034 123.616 216.938 123.592 216.858 123.544C216.794 123.496 216.73 123.44 216.666 123.376C216.506 123.168 216.314 122.96 216.09 122.752C215.882 122.544 215.602 122.376 215.25 122.248C214.914 122.104 214.466 122.032 213.906 122.032C213.106 122.032 212.506 122.2 212.106 122.536C211.706 122.872 211.506 123.296 211.506 123.808C211.506 124.112 211.594 124.384 211.77 124.624C211.946 124.864 212.282 125.08 212.778 125.272C213.274 125.464 214.01 125.672 214.986 125.896C216.042 126.104 216.874 126.384 217.482 126.736C218.09 127.088 218.522 127.496 218.778 127.96C219.034 128.424 219.162 128.96 219.162 129.568C219.162 130.24 218.962 130.856 218.562 131.416C218.178 131.976 217.602 132.424 216.834 132.76C216.082 133.08 215.146 133.24 214.026 133.24Z" fill="#171E35"/>
</svg>
