<svg width="353" height="157" viewBox="0 0 353 157" fill="none" xmlns="http://www.w3.org/2000/svg">
<path d="M37.9213 24C37.7453 24 37.6093 23.952 37.5133 23.856C37.4173 23.744 37.3693 23.608 37.3693 23.448V7.776C37.3693 7.6 37.4173 7.464 37.5133 7.368C37.6093 7.256 37.7453 7.2 37.9213 7.2H43.7773C45.5853 7.2 47.0173 7.624 48.0733 8.472C49.1293 9.32 49.6573 10.576 49.6573 12.24C49.6573 13.472 49.3453 14.48 48.7213 15.264C48.1133 16.032 47.2813 16.568 46.2253 16.872L49.9213 23.256C49.9693 23.352 49.9933 23.44 49.9933 23.52C49.9933 23.648 49.9373 23.76 49.8253 23.856C49.7293 23.952 49.6173 24 49.4893 24H48.3373C48.0653 24 47.8653 23.928 47.7373 23.784C47.6093 23.64 47.4973 23.496 47.4012 23.352L43.9213 17.256H39.7213V23.448C39.7213 23.608 39.6653 23.744 39.5533 23.856C39.4573 23.952 39.3213 24 39.1453 24H37.9213ZM39.7213 15.216H43.6813C44.8813 15.216 45.7773 14.968 46.3693 14.472C46.9613 13.96 47.2573 13.208 47.2573 12.216C47.2573 11.24 46.9613 10.496 46.3693 9.984C45.7933 9.472 44.8973 9.216 43.6813 9.216H39.7213V15.216ZM57.6112 24.24C55.9632 24.24 54.6512 23.736 53.6752 22.728C52.6992 21.704 52.1632 20.312 52.0672 18.552C52.0512 18.344 52.0432 18.08 52.0432 17.76C52.0432 17.424 52.0512 17.152 52.0672 16.944C52.1312 15.808 52.3952 14.816 52.8592 13.968C53.3232 13.104 53.9552 12.44 54.7552 11.976C55.5712 11.512 56.5232 11.28 57.6112 11.28C58.8272 11.28 59.8432 11.536 60.6592 12.048C61.4912 12.56 62.1232 13.288 62.5552 14.232C62.9872 15.176 63.2032 16.28 63.2032 17.544V17.952C63.2032 18.128 63.1472 18.264 63.0352 18.36C62.9392 18.456 62.8112 18.504 62.6512 18.504H54.3472C54.3472 18.52 54.3472 18.552 54.3472 18.6C54.3472 18.648 54.3472 18.688 54.3472 18.72C54.3792 19.376 54.5232 19.992 54.7792 20.568C55.0352 21.128 55.4032 21.584 55.8832 21.936C56.3632 22.288 56.9392 22.464 57.6112 22.464C58.1872 22.464 58.6672 22.376 59.0512 22.2C59.4352 22.024 59.7472 21.832 59.9872 21.624C60.2272 21.4 60.3872 21.232 60.4672 21.12C60.6112 20.912 60.7232 20.792 60.8032 20.76C60.8832 20.712 61.0112 20.688 61.1872 20.688H62.3392C62.4992 20.688 62.6272 20.736 62.7232 20.832C62.8352 20.912 62.8832 21.032 62.8672 21.192C62.8512 21.432 62.7232 21.728 62.4832 22.08C62.2432 22.416 61.8992 22.752 61.4512 23.088C61.0032 23.424 60.4592 23.704 59.8192 23.928C59.1792 24.136 58.4432 24.24 57.6112 24.24ZM54.3472 16.848H60.9232V16.776C60.9232 16.056 60.7872 15.416 60.5152 14.856C60.2592 14.296 59.8832 13.856 59.3872 13.536C58.8912 13.2 58.2992 13.032 57.6112 13.032C56.9232 13.032 56.3312 13.2 55.8352 13.536C55.3552 13.856 54.9872 14.296 54.7312 14.856C54.4752 15.416 54.3472 16.056 54.3472 16.776V16.848ZM69.5529 24.24C68.7529 24.24 68.0249 24.08 67.3689 23.76C66.7129 23.44 66.1849 23.008 65.7849 22.464C65.3849 21.92 65.1849 21.304 65.1849 20.616C65.1849 19.512 65.6329 18.632 66.5289 17.976C67.4249 17.32 68.5929 16.888 70.0329 16.68L73.6089 16.176V15.48C73.6089 14.712 73.3849 14.112 72.9369 13.68C72.5049 13.248 71.7929 13.032 70.8009 13.032C70.0809 13.032 69.4969 13.176 69.0489 13.464C68.6169 13.752 68.3129 14.12 68.1369 14.568C68.0409 14.808 67.8729 14.928 67.6329 14.928H66.5529C66.3769 14.928 66.2409 14.88 66.1449 14.784C66.0649 14.672 66.0249 14.544 66.0249 14.4C66.0249 14.16 66.1129 13.864 66.2889 13.512C66.4809 13.16 66.7689 12.816 67.1529 12.48C67.5369 12.144 68.0249 11.864 68.6169 11.64C69.2249 11.4 69.9609 11.28 70.8249 11.28C71.7849 11.28 72.5929 11.408 73.2489 11.664C73.9049 11.904 74.4169 12.232 74.7849 12.648C75.1689 13.064 75.4409 13.536 75.6009 14.064C75.7769 14.592 75.8649 15.128 75.8649 15.672V23.448C75.8649 23.608 75.8089 23.744 75.6969 23.856C75.6009 23.952 75.4729 24 75.3129 24H74.2089C74.0329 24 73.8969 23.952 73.8009 23.856C73.7049 23.744 73.6569 23.608 73.6569 23.448V22.416C73.4489 22.704 73.1689 22.992 72.8169 23.28C72.4649 23.552 72.0249 23.784 71.4969 23.976C70.9689 24.152 70.3209 24.24 69.5529 24.24ZM70.0569 22.44C70.7129 22.44 71.3129 22.304 71.8569 22.032C72.4009 21.744 72.8249 21.304 73.1289 20.712C73.4489 20.12 73.6089 19.376 73.6089 18.48V17.808L70.8249 18.216C69.6889 18.376 68.8329 18.648 68.2569 19.032C67.6809 19.4 67.3929 19.872 67.3929 20.448C67.3929 20.896 67.5209 21.272 67.7769 21.576C68.0489 21.864 68.3849 22.08 68.7849 22.224C69.2009 22.368 69.6249 22.44 70.0569 22.44ZM79.8911 24C79.7311 24 79.5951 23.952 79.4831 23.856C79.3871 23.744 79.3391 23.608 79.3391 23.448V7.512C79.3391 7.352 79.3871 7.224 79.4831 7.128C79.5951 7.016 79.7311 6.96 79.8911 6.96H81.0191C81.1951 6.96 81.3311 7.016 81.4271 7.128C81.5231 7.224 81.5711 7.352 81.5711 7.512V23.448C81.5711 23.608 81.5231 23.744 81.4271 23.856C81.3311 23.952 81.1951 24 81.0191 24H79.8911ZM85.9374 24C85.7774 24 85.6414 23.952 85.5294 23.856C85.4334 23.744 85.3854 23.608 85.3854 23.448V12.072C85.3854 11.912 85.4334 11.784 85.5294 11.688C85.6414 11.576 85.7774 11.52 85.9374 11.52H87.0894C87.2494 11.52 87.3774 11.576 87.4734 11.688C87.5694 11.784 87.6174 11.912 87.6174 12.072V23.448C87.6174 23.608 87.5694 23.744 87.4734 23.856C87.3774 23.952 87.2494 24 87.0894 24H85.9374ZM85.7454 9.192C85.5854 9.192 85.4494 9.144 85.3374 9.048C85.2414 8.936 85.1934 8.8 85.1934 8.64V7.344C85.1934 7.184 85.2414 7.056 85.3374 6.96C85.4494 6.848 85.5854 6.792 85.7454 6.792H87.2574C87.4174 6.792 87.5454 6.848 87.6414 6.96C87.7534 7.056 87.8094 7.184 87.8094 7.344V8.64C87.8094 8.8 87.7534 8.936 87.6414 9.048C87.5454 9.144 87.4174 9.192 87.2574 9.192H85.7454ZM91.0751 24C90.9151 24 90.7791 23.952 90.6671 23.856C90.5711 23.744 90.5231 23.608 90.5231 23.448V22.608C90.5231 22.464 90.5551 22.328 90.6191 22.2C90.6991 22.072 90.7791 21.952 90.8591 21.84L97.4831 13.416H91.2911C91.1311 13.416 90.9951 13.368 90.8831 13.272C90.7871 13.176 90.7391 13.04 90.7391 12.864V12.072C90.7391 11.912 90.7871 11.784 90.8831 11.688C90.9951 11.576 91.1311 11.52 91.2911 11.52H99.8351C99.9951 11.52 100.123 11.576 100.219 11.688C100.331 11.784 100.387 11.912 100.387 12.072V12.96C100.387 13.104 100.347 13.232 100.267 13.344C100.203 13.456 100.131 13.576 100.051 13.704L93.4991 22.104H100.315C100.475 22.104 100.603 22.152 100.699 22.248C100.811 22.344 100.867 22.48 100.867 22.656V23.448C100.867 23.608 100.811 23.744 100.699 23.856C100.603 23.952 100.475 24 100.315 24H91.0751ZM108.497 24.24C107.281 24.24 106.265 24.008 105.449 23.544C104.633 23.08 104.009 22.44 103.577 21.624C103.145 20.792 102.905 19.848 102.857 18.792C102.841 18.52 102.833 18.176 102.833 17.76C102.833 17.328 102.841 16.984 102.857 16.728C102.905 15.656 103.145 14.712 103.577 13.896C104.025 13.08 104.657 12.44 105.473 11.976C106.289 11.512 107.297 11.28 108.497 11.28C109.697 11.28 110.705 11.512 111.521 11.976C112.337 12.44 112.961 13.08 113.393 13.896C113.841 14.712 114.089 15.656 114.137 16.728C114.153 16.984 114.161 17.328 114.161 17.76C114.161 18.176 114.153 18.52 114.137 18.792C114.089 19.848 113.849 20.792 113.417 21.624C112.985 22.44 112.361 23.08 111.545 23.544C110.729 24.008 109.713 24.24 108.497 24.24ZM108.497 22.392C109.489 22.392 110.281 22.08 110.873 21.456C111.465 20.816 111.785 19.888 111.833 18.672C111.849 18.432 111.857 18.128 111.857 17.76C111.857 17.392 111.849 17.088 111.833 16.848C111.785 15.632 111.465 14.712 110.873 14.088C110.281 13.448 109.489 13.128 108.497 13.128C107.505 13.128 106.705 13.448 106.097 14.088C105.505 14.712 105.193 15.632 105.161 16.848C105.145 17.088 105.137 17.392 105.137 17.76C105.137 18.128 105.145 18.432 105.161 18.672C105.193 19.888 105.505 20.816 106.097 21.456C106.705 22.08 107.505 22.392 108.497 22.392ZM121.823 24.24C120.799 24.24 119.927 24.016 119.207 23.568C118.503 23.104 117.967 22.464 117.599 21.648C117.231 20.832 117.047 19.896 117.047 18.84V12.072C117.047 11.912 117.095 11.784 117.191 11.688C117.303 11.576 117.439 11.52 117.599 11.52H118.799C118.959 11.52 119.087 11.576 119.183 11.688C119.295 11.784 119.351 11.912 119.351 12.072V18.72C119.351 21.104 120.391 22.296 122.471 22.296C123.463 22.296 124.255 21.984 124.847 21.36C125.455 20.72 125.759 19.84 125.759 18.72V12.072C125.759 11.912 125.807 11.784 125.903 11.688C126.015 11.576 126.151 11.52 126.311 11.52H127.487C127.663 11.52 127.799 11.576 127.895 11.688C127.991 11.784 128.039 11.912 128.039 12.072V23.448C128.039 23.608 127.991 23.744 127.895 23.856C127.799 23.952 127.663 24 127.487 24H126.383C126.223 24 126.087 23.952 125.975 23.856C125.879 23.744 125.831 23.608 125.831 23.448V22.392C125.399 22.952 124.871 23.4 124.247 23.736C123.639 24.072 122.831 24.24 121.823 24.24ZM142.527 24.24C141.391 24.24 140.407 24.024 139.575 23.592C138.759 23.144 138.127 22.512 137.679 21.696C137.231 20.864 136.991 19.872 136.959 18.72C136.943 18.48 136.935 18.16 136.935 17.76C136.935 17.36 136.943 17.04 136.959 16.8C136.991 15.648 137.231 14.664 137.679 13.848C138.127 13.016 138.759 12.384 139.575 11.952C140.407 11.504 141.391 11.28 142.527 11.28C143.455 11.28 144.247 11.408 144.903 11.664C145.575 11.92 146.127 12.248 146.559 12.648C146.991 13.048 147.311 13.48 147.519 13.944C147.743 14.408 147.863 14.848 147.879 15.264C147.895 15.424 147.847 15.552 147.735 15.648C147.623 15.744 147.487 15.792 147.327 15.792H146.175C146.015 15.792 145.895 15.76 145.815 15.696C145.735 15.616 145.655 15.488 145.575 15.312C145.287 14.528 144.895 13.976 144.399 13.656C143.903 13.336 143.287 13.176 142.551 13.176C141.591 13.176 140.807 13.472 140.199 14.064C139.607 14.656 139.287 15.608 139.239 16.92C139.223 17.496 139.223 18.056 139.239 18.6C139.287 19.928 139.607 20.888 140.199 21.48C140.807 22.056 141.591 22.344 142.551 22.344C143.287 22.344 143.903 22.184 144.399 21.864C144.895 21.544 145.287 20.992 145.575 20.208C145.655 20.032 145.735 19.912 145.815 19.848C145.895 19.768 146.015 19.728 146.175 19.728H147.327C147.487 19.728 147.623 19.776 147.735 19.872C147.847 19.968 147.895 20.096 147.879 20.256C147.863 20.592 147.791 20.936 147.663 21.288C147.535 21.64 147.327 22 147.039 22.368C146.767 22.72 146.423 23.04 146.007 23.328C145.591 23.6 145.087 23.824 144.495 24C143.919 24.16 143.263 24.24 142.527 24.24ZM155.841 24.24C154.625 24.24 153.609 24.008 152.793 23.544C151.977 23.08 151.353 22.44 150.921 21.624C150.489 20.792 150.249 19.848 150.201 18.792C150.185 18.52 150.177 18.176 150.177 17.76C150.177 17.328 150.185 16.984 150.201 16.728C150.249 15.656 150.489 14.712 150.921 13.896C151.369 13.08 152.001 12.44 152.817 11.976C153.633 11.512 154.641 11.28 155.841 11.28C157.041 11.28 158.049 11.512 158.865 11.976C159.681 12.44 160.305 13.08 160.737 13.896C161.185 14.712 161.433 15.656 161.481 16.728C161.497 16.984 161.505 17.328 161.505 17.76C161.505 18.176 161.497 18.52 161.481 18.792C161.433 19.848 161.193 20.792 160.761 21.624C160.329 22.44 159.705 23.08 158.889 23.544C158.073 24.008 157.057 24.24 155.841 24.24ZM155.841 22.392C156.833 22.392 157.625 22.08 158.217 21.456C158.809 20.816 159.129 19.888 159.177 18.672C159.193 18.432 159.201 18.128 159.201 17.76C159.201 17.392 159.193 17.088 159.177 16.848C159.129 15.632 158.809 14.712 158.217 14.088C157.625 13.448 156.833 13.128 155.841 13.128C154.849 13.128 154.049 13.448 153.441 14.088C152.849 14.712 152.537 15.632 152.505 16.848C152.489 17.088 152.481 17.392 152.481 17.76C152.481 18.128 152.489 18.432 152.505 18.672C152.537 19.888 152.849 20.816 153.441 21.456C154.049 22.08 154.849 22.392 155.841 22.392ZM165.062 24C164.902 24 164.766 23.952 164.654 23.856C164.558 23.744 164.51 23.608 164.51 23.448V12.072C164.51 11.912 164.558 11.784 164.654 11.688C164.766 11.576 164.902 11.52 165.062 11.52H166.19C166.35 11.52 166.478 11.576 166.574 11.688C166.686 11.784 166.742 11.912 166.742 12.072V13.128C167.158 12.584 167.678 12.144 168.302 11.808C168.942 11.456 169.758 11.28 170.75 11.28C171.79 11.28 172.67 11.512 173.39 11.976C174.126 12.424 174.678 13.056 175.046 13.872C175.414 14.672 175.598 15.608 175.598 16.68V23.448C175.598 23.608 175.55 23.744 175.454 23.856C175.358 23.952 175.23 24 175.07 24H173.87C173.71 24 173.574 23.952 173.462 23.856C173.366 23.744 173.318 23.608 173.318 23.448V16.8C173.318 15.68 173.046 14.808 172.502 14.184C171.958 13.544 171.158 13.224 170.102 13.224C169.11 13.224 168.31 13.544 167.702 14.184C167.11 14.808 166.814 15.68 166.814 16.8V23.448C166.814 23.608 166.758 23.744 166.646 23.856C166.55 23.952 166.422 24 166.262 24H165.062ZM183.385 24.24C182.489 24.24 181.721 24.128 181.081 23.904C180.441 23.68 179.921 23.408 179.521 23.088C179.121 22.768 178.817 22.448 178.609 22.128C178.417 21.808 178.313 21.552 178.297 21.36C178.281 21.184 178.337 21.048 178.465 20.952C178.593 20.856 178.721 20.808 178.849 20.808H179.905C180.001 20.808 180.073 20.824 180.121 20.856C180.185 20.872 180.265 20.936 180.361 21.048C180.569 21.272 180.801 21.496 181.057 21.72C181.313 21.944 181.625 22.128 181.993 22.272C182.377 22.416 182.849 22.488 183.409 22.488C184.225 22.488 184.897 22.336 185.425 22.032C185.953 21.712 186.217 21.248 186.217 20.64C186.217 20.24 186.105 19.92 185.881 19.68C185.673 19.44 185.289 19.224 184.729 19.032C184.185 18.84 183.433 18.64 182.473 18.432C181.513 18.208 180.753 17.936 180.193 17.616C179.633 17.28 179.233 16.888 178.993 16.44C178.753 15.976 178.633 15.456 178.633 14.88C178.633 14.288 178.809 13.72 179.161 13.176C179.513 12.616 180.025 12.16 180.697 11.808C181.385 11.456 182.241 11.28 183.265 11.28C184.097 11.28 184.809 11.384 185.401 11.592C185.993 11.8 186.481 12.064 186.865 12.384C187.249 12.688 187.537 12.992 187.729 13.296C187.921 13.6 188.025 13.856 188.041 14.064C188.057 14.224 188.009 14.36 187.897 14.472C187.785 14.568 187.657 14.616 187.513 14.616H186.505C186.393 14.616 186.297 14.592 186.217 14.544C186.153 14.496 186.089 14.44 186.025 14.376C185.865 14.168 185.673 13.96 185.449 13.752C185.241 13.544 184.961 13.376 184.609 13.248C184.273 13.104 183.825 13.032 183.265 13.032C182.465 13.032 181.865 13.2 181.465 13.536C181.065 13.872 180.865 14.296 180.865 14.808C180.865 15.112 180.953 15.384 181.129 15.624C181.305 15.864 181.641 16.08 182.137 16.272C182.633 16.464 183.369 16.672 184.345 16.896C185.401 17.104 186.233 17.384 186.841 17.736C187.449 18.088 187.881 18.496 188.137 18.96C188.393 19.424 188.521 19.96 188.521 20.568C188.521 21.24 188.321 21.856 187.921 22.416C187.537 22.976 186.961 23.424 186.193 23.76C185.441 24.08 184.505 24.24 183.385 24.24ZM195.955 24.24C194.931 24.24 194.059 24.016 193.339 23.568C192.635 23.104 192.099 22.464 191.731 21.648C191.363 20.832 191.179 19.896 191.179 18.84V12.072C191.179 11.912 191.227 11.784 191.323 11.688C191.435 11.576 191.571 11.52 191.731 11.52H192.931C193.091 11.52 193.219 11.576 193.315 11.688C193.427 11.784 193.483 11.912 193.483 12.072V18.72C193.483 21.104 194.523 22.296 196.603 22.296C197.595 22.296 198.387 21.984 198.979 21.36C199.587 20.72 199.891 19.84 199.891 18.72V12.072C199.891 11.912 199.939 11.784 200.035 11.688C200.147 11.576 200.283 11.52 200.443 11.52H201.619C201.795 11.52 201.931 11.576 202.027 11.688C202.123 11.784 202.171 11.912 202.171 12.072V23.448C202.171 23.608 202.123 23.744 202.027 23.856C201.931 23.952 201.795 24 201.619 24H200.515C200.355 24 200.219 23.952 200.107 23.856C200.011 23.744 199.963 23.608 199.963 23.448V22.392C199.531 22.952 199.003 23.4 198.379 23.736C197.771 24.072 196.963 24.24 195.955 24.24ZM206.313 24C206.153 24 206.017 23.952 205.905 23.856C205.809 23.744 205.761 23.608 205.761 23.448V7.512C205.761 7.352 205.809 7.224 205.905 7.128C206.017 7.016 206.153 6.96 206.313 6.96H207.441C207.617 6.96 207.753 7.016 207.849 7.128C207.945 7.224 207.993 7.352 207.993 7.512V23.448C207.993 23.608 207.945 23.744 207.849 23.856C207.753 23.952 207.617 24 207.441 24H206.313ZM216.445 24C215.549 24 214.821 23.832 214.261 23.496C213.701 23.144 213.293 22.656 213.037 22.032C212.781 21.392 212.653 20.64 212.653 19.776V13.44H210.781C210.621 13.44 210.485 13.392 210.373 13.296C210.277 13.184 210.229 13.048 210.229 12.888V12.072C210.229 11.912 210.277 11.784 210.373 11.688C210.485 11.576 210.621 11.52 210.781 11.52H212.653V7.512C212.653 7.352 212.701 7.224 212.797 7.128C212.909 7.016 213.045 6.96 213.205 6.96H214.333C214.493 6.96 214.621 7.016 214.717 7.128C214.829 7.224 214.885 7.352 214.885 7.512V11.52H217.861C218.021 11.52 218.149 11.576 218.245 11.688C218.357 11.784 218.413 11.912 218.413 12.072V12.888C218.413 13.048 218.357 13.184 218.245 13.296C218.149 13.392 218.021 13.44 217.861 13.44H214.885V19.608C214.885 20.36 215.013 20.952 215.269 21.384C215.525 21.816 215.981 22.032 216.637 22.032H218.101C218.261 22.032 218.389 22.088 218.485 22.2C218.597 22.296 218.653 22.424 218.653 22.584V23.448C218.653 23.608 218.597 23.744 218.485 23.856C218.389 23.952 218.261 24 218.101 24H216.445ZM226.06 24.24C224.844 24.24 223.828 24.008 223.012 23.544C222.196 23.08 221.572 22.44 221.14 21.624C220.708 20.792 220.468 19.848 220.42 18.792C220.404 18.52 220.396 18.176 220.396 17.76C220.396 17.328 220.404 16.984 220.42 16.728C220.468 15.656 220.708 14.712 221.14 13.896C221.588 13.08 222.22 12.44 223.036 11.976C223.852 11.512 224.86 11.28 226.06 11.28C227.26 11.28 228.268 11.512 229.084 11.976C229.9 12.44 230.524 13.08 230.956 13.896C231.404 14.712 231.652 15.656 231.7 16.728C231.716 16.984 231.724 17.328 231.724 17.76C231.724 18.176 231.716 18.52 231.7 18.792C231.652 19.848 231.412 20.792 230.98 21.624C230.548 22.44 229.924 23.08 229.108 23.544C228.292 24.008 227.276 24.24 226.06 24.24ZM226.06 22.392C227.052 22.392 227.844 22.08 228.436 21.456C229.028 20.816 229.348 19.888 229.396 18.672C229.412 18.432 229.42 18.128 229.42 17.76C229.42 17.392 229.412 17.088 229.396 16.848C229.348 15.632 229.028 14.712 228.436 14.088C227.844 13.448 227.052 13.128 226.06 13.128C225.068 13.128 224.268 13.448 223.66 14.088C223.068 14.712 222.756 15.632 222.724 16.848C222.708 17.088 222.7 17.392 222.7 17.76C222.7 18.128 222.708 18.432 222.724 18.672C222.756 19.888 223.068 20.816 223.66 21.456C224.268 22.08 225.068 22.392 226.06 22.392ZM235.281 24C235.121 24 234.985 23.952 234.873 23.856C234.777 23.744 234.729 23.608 234.729 23.448V12.096C234.729 11.936 234.777 11.8 234.873 11.688C234.985 11.576 235.121 11.52 235.281 11.52H236.385C236.545 11.52 236.681 11.576 236.793 11.688C236.905 11.8 236.961 11.936 236.961 12.096V13.152C237.281 12.608 237.721 12.2 238.281 11.928C238.841 11.656 239.513 11.52 240.297 11.52H241.257C241.417 11.52 241.545 11.576 241.641 11.688C241.737 11.784 241.785 11.912 241.785 12.072V13.056C241.785 13.216 241.737 13.344 241.641 13.44C241.545 13.536 241.417 13.584 241.257 13.584H239.817C238.953 13.584 238.273 13.84 237.777 14.352C237.281 14.848 237.033 15.528 237.033 16.392V23.448C237.033 23.608 236.977 23.744 236.865 23.856C236.753 23.952 236.617 24 236.457 24H235.281ZM244.398 24C244.238 24 244.102 23.952 243.99 23.856C243.894 23.744 243.846 23.608 243.846 23.448V12.072C243.846 11.912 243.894 11.784 243.99 11.688C244.102 11.576 244.238 11.52 244.398 11.52H245.55C245.71 11.52 245.838 11.576 245.934 11.688C246.03 11.784 246.078 11.912 246.078 12.072V23.448C246.078 23.608 246.03 23.744 245.934 23.856C245.838 23.952 245.71 24 245.55 24H244.398ZM244.206 9.192C244.046 9.192 243.91 9.144 243.798 9.048C243.702 8.936 243.654 8.8 243.654 8.64V7.344C243.654 7.184 243.702 7.056 243.798 6.96C243.91 6.848 244.046 6.792 244.206 6.792H245.718C245.878 6.792 246.006 6.848 246.102 6.96C246.214 7.056 246.27 7.184 246.27 7.344V8.64C246.27 8.8 246.214 8.936 246.102 9.048C246.006 9.144 245.878 9.192 245.718 9.192H244.206ZM253.139 24.24C252.339 24.24 251.611 24.08 250.955 23.76C250.299 23.44 249.771 23.008 249.371 22.464C248.971 21.92 248.771 21.304 248.771 20.616C248.771 19.512 249.219 18.632 250.115 17.976C251.011 17.32 252.179 16.888 253.619 16.68L257.195 16.176V15.48C257.195 14.712 256.971 14.112 256.523 13.68C256.091 13.248 255.379 13.032 254.387 13.032C253.667 13.032 253.083 13.176 252.635 13.464C252.203 13.752 251.899 14.12 251.723 14.568C251.627 14.808 251.459 14.928 251.219 14.928H250.139C249.963 14.928 249.827 14.88 249.731 14.784C249.651 14.672 249.611 14.544 249.611 14.4C249.611 14.16 249.699 13.864 249.875 13.512C250.067 13.16 250.355 12.816 250.739 12.48C251.123 12.144 251.611 11.864 252.203 11.64C252.811 11.4 253.547 11.28 254.411 11.28C255.371 11.28 256.179 11.408 256.835 11.664C257.491 11.904 258.003 12.232 258.371 12.648C258.755 13.064 259.027 13.536 259.187 14.064C259.363 14.592 259.451 15.128 259.451 15.672V23.448C259.451 23.608 259.395 23.744 259.283 23.856C259.187 23.952 259.059 24 258.899 24H257.795C257.619 24 257.483 23.952 257.387 23.856C257.291 23.744 257.243 23.608 257.243 23.448V22.416C257.035 22.704 256.755 22.992 256.403 23.28C256.051 23.552 255.611 23.784 255.083 23.976C254.555 24.152 253.907 24.24 253.139 24.24ZM253.643 22.44C254.299 22.44 254.899 22.304 255.443 22.032C255.987 21.744 256.411 21.304 256.715 20.712C257.035 20.12 257.195 19.376 257.195 18.48V17.808L254.411 18.216C253.275 18.376 252.419 18.648 251.843 19.032C251.267 19.4 250.979 19.872 250.979 20.448C250.979 20.896 251.107 21.272 251.363 21.576C251.635 21.864 251.971 22.08 252.371 22.224C252.787 22.368 253.211 22.44 253.643 22.44ZM269.36 28.56C269.2 28.56 269.064 28.504 268.952 28.392C268.856 28.296 268.808 28.168 268.808 28.008V12.072C268.808 11.912 268.856 11.784 268.952 11.688C269.064 11.576 269.2 11.52 269.36 11.52H270.464C270.624 11.52 270.752 11.576 270.848 11.688C270.96 11.784 271.016 11.912 271.016 12.072V13.128C271.4 12.6 271.912 12.16 272.552 11.808C273.192 11.456 273.992 11.28 274.952 11.28C275.848 11.28 276.608 11.432 277.232 11.736C277.872 12.04 278.392 12.456 278.792 12.984C279.208 13.512 279.52 14.112 279.728 14.784C279.936 15.456 280.048 16.176 280.064 16.944C280.08 17.2 280.088 17.472 280.088 17.76C280.088 18.048 280.08 18.32 280.064 18.576C280.048 19.328 279.936 20.048 279.728 20.736C279.52 21.408 279.208 22.008 278.792 22.536C278.392 23.048 277.872 23.464 277.232 23.784C276.608 24.088 275.848 24.24 274.952 24.24C274.024 24.24 273.24 24.072 272.6 23.736C271.976 23.384 271.464 22.952 271.064 22.44V28.008C271.064 28.168 271.016 28.296 270.92 28.392C270.824 28.504 270.688 28.56 270.512 28.56H269.36ZM274.448 22.296C275.28 22.296 275.928 22.12 276.392 21.768C276.872 21.4 277.216 20.928 277.424 20.352C277.632 19.76 277.752 19.128 277.784 18.456C277.8 17.992 277.8 17.528 277.784 17.064C277.752 16.392 277.632 15.768 277.424 15.192C277.216 14.6 276.872 14.128 276.392 13.776C275.928 13.408 275.28 13.224 274.448 13.224C273.664 13.224 273.024 13.408 272.528 13.776C272.048 14.144 271.688 14.616 271.448 15.192C271.224 15.752 271.096 16.328 271.064 16.92C271.048 17.176 271.04 17.48 271.04 17.832C271.04 18.184 271.048 18.496 271.064 18.768C271.08 19.328 271.208 19.88 271.448 20.424C271.704 20.968 272.08 21.416 272.576 21.768C273.072 22.12 273.696 22.296 274.448 22.296ZM286.561 24.24C285.761 24.24 285.033 24.08 284.377 23.76C283.721 23.44 283.193 23.008 282.793 22.464C282.393 21.92 282.193 21.304 282.193 20.616C282.193 19.512 282.641 18.632 283.537 17.976C284.433 17.32 285.601 16.888 287.041 16.68L290.617 16.176V15.48C290.617 14.712 290.393 14.112 289.945 13.68C289.513 13.248 288.801 13.032 287.809 13.032C287.089 13.032 286.505 13.176 286.057 13.464C285.625 13.752 285.321 14.12 285.145 14.568C285.049 14.808 284.881 14.928 284.641 14.928H283.561C283.385 14.928 283.249 14.88 283.153 14.784C283.073 14.672 283.033 14.544 283.033 14.4C283.033 14.16 283.121 13.864 283.297 13.512C283.489 13.16 283.777 12.816 284.161 12.48C284.545 12.144 285.033 11.864 285.625 11.64C286.233 11.4 286.969 11.28 287.833 11.28C288.793 11.28 289.601 11.408 290.257 11.664C290.913 11.904 291.425 12.232 291.793 12.648C292.177 13.064 292.449 13.536 292.609 14.064C292.785 14.592 292.873 15.128 292.873 15.672V23.448C292.873 23.608 292.817 23.744 292.705 23.856C292.609 23.952 292.481 24 292.321 24H291.217C291.041 24 290.905 23.952 290.809 23.856C290.713 23.744 290.665 23.608 290.665 23.448V22.416C290.457 22.704 290.177 22.992 289.825 23.28C289.473 23.552 289.033 23.784 288.505 23.976C287.977 24.152 287.329 24.24 286.561 24.24ZM287.065 22.44C287.721 22.44 288.321 22.304 288.865 22.032C289.409 21.744 289.833 21.304 290.137 20.712C290.457 20.12 290.617 19.376 290.617 18.48V17.808L287.833 18.216C286.697 18.376 285.841 18.648 285.265 19.032C284.689 19.4 284.401 19.872 284.401 20.448C284.401 20.896 284.529 21.272 284.785 21.576C285.057 21.864 285.393 22.08 285.793 22.224C286.209 22.368 286.633 22.44 287.065 22.44ZM296.875 24C296.715 24 296.579 23.952 296.467 23.856C296.371 23.744 296.323 23.608 296.323 23.448V12.096C296.323 11.936 296.371 11.8 296.467 11.688C296.579 11.576 296.715 11.52 296.875 11.52H297.979C298.139 11.52 298.275 11.576 298.387 11.688C298.499 11.8 298.555 11.936 298.555 12.096V13.152C298.875 12.608 299.315 12.2 299.875 11.928C300.435 11.656 301.107 11.52 301.891 11.52H302.851C303.011 11.52 303.139 11.576 303.235 11.688C303.331 11.784 303.379 11.912 303.379 12.072V13.056C303.379 13.216 303.331 13.344 303.235 13.44C303.139 13.536 303.011 13.584 302.851 13.584H301.411C300.547 13.584 299.867 13.84 299.371 14.352C298.875 14.848 298.627 15.528 298.627 16.392V23.448C298.627 23.608 298.571 23.744 298.459 23.856C298.347 23.952 298.211 24 298.051 24H296.875ZM308.733 24.24C307.933 24.24 307.205 24.08 306.549 23.76C305.893 23.44 305.365 23.008 304.965 22.464C304.565 21.92 304.365 21.304 304.365 20.616C304.365 19.512 304.813 18.632 305.709 17.976C306.605 17.32 307.773 16.888 309.213 16.68L312.789 16.176V15.48C312.789 14.712 312.565 14.112 312.117 13.68C311.685 13.248 310.973 13.032 309.981 13.032C309.261 13.032 308.677 13.176 308.229 13.464C307.797 13.752 307.493 14.12 307.317 14.568C307.221 14.808 307.053 14.928 306.813 14.928H305.733C305.557 14.928 305.421 14.88 305.325 14.784C305.245 14.672 305.205 14.544 305.205 14.4C305.205 14.16 305.293 13.864 305.469 13.512C305.661 13.16 305.949 12.816 306.333 12.48C306.717 12.144 307.205 11.864 307.797 11.64C308.405 11.4 309.141 11.28 310.005 11.28C310.965 11.28 311.773 11.408 312.429 11.664C313.085 11.904 313.597 12.232 313.965 12.648C314.349 13.064 314.621 13.536 314.781 14.064C314.957 14.592 315.045 15.128 315.045 15.672V23.448C315.045 23.608 314.989 23.744 314.877 23.856C314.781 23.952 314.653 24 314.493 24H313.389C313.213 24 313.077 23.952 312.981 23.856C312.885 23.744 312.837 23.608 312.837 23.448V22.416C312.629 22.704 312.349 22.992 311.997 23.28C311.645 23.552 311.205 23.784 310.677 23.976C310.149 24.152 309.501 24.24 308.733 24.24ZM309.237 22.44C309.893 22.44 310.493 22.304 311.037 22.032C311.581 21.744 312.005 21.304 312.309 20.712C312.629 20.12 312.789 19.376 312.789 18.48V17.808L310.005 18.216C308.869 18.376 308.013 18.648 307.437 19.032C306.861 19.4 306.573 19.872 306.573 20.448C306.573 20.896 306.701 21.272 306.957 21.576C307.229 21.864 307.565 22.08 307.965 22.224C308.381 22.368 308.805 22.44 309.237 22.44Z" fill="white"/>
<rect y="40" width="353" height="117" rx="20" fill="white"/>
<path d="M39.6982 99.416C39.3462 99.416 39.0582 99.304 38.8342 99.08C38.6102 98.856 38.4982 98.568 38.4982 98.216V89.432H29.9542C29.6022 89.432 29.2982 89.32 29.0422 89.096C28.8182 88.872 28.7062 88.584 28.7062 88.232V84.728C28.7062 84.376 28.8182 84.088 29.0422 83.864C29.2982 83.64 29.6022 83.528 29.9542 83.528H38.4982V74.984C38.4982 74.632 38.6102 74.344 38.8342 74.12C39.0582 73.896 39.3462 73.784 39.6982 73.784H43.6342C43.9542 73.784 44.2262 73.896 44.4502 74.12C44.7062 74.344 44.8342 74.632 44.8342 74.984V83.528H53.3302C53.6822 83.528 53.9702 83.64 54.1942 83.864C54.4182 84.088 54.5302 84.376 54.5302 84.728V88.232C54.5302 88.584 54.4182 88.872 54.1942 89.096C53.9702 89.32 53.6822 89.432 53.3302 89.432H44.8342V98.216C44.8342 98.568 44.7062 98.856 44.4502 99.08C44.2262 99.304 43.9542 99.416 43.6342 99.416H39.6982ZM79.7452 101C79.4252 101 79.1372 100.888 78.8812 100.664C78.6572 100.44 78.5452 100.152 78.5452 99.8V76.952L71.9692 81.992C71.6812 82.216 71.3772 82.296 71.0572 82.232C70.7692 82.168 70.5132 81.992 70.2892 81.704L67.4572 78.008C67.2652 77.72 67.1852 77.416 67.2172 77.096C67.2812 76.744 67.4732 76.472 67.7932 76.28L78.8332 67.736C79.0252 67.608 79.2012 67.528 79.3612 67.496C79.5532 67.432 79.7612 67.4 79.9852 67.4H85.9852C86.3052 67.4 86.5772 67.512 86.8012 67.736C87.0572 67.96 87.1852 68.248 87.1852 68.6V99.8C87.1852 100.152 87.0572 100.44 86.8012 100.664C86.5772 100.888 86.3052 101 85.9852 101H79.7452ZM106.581 101.48C104.277 101.48 102.277 101.16 100.581 100.52C98.8846 99.848 97.4766 98.936 96.3566 97.784C95.2686 96.632 94.4366 95.288 93.8606 93.752C93.2846 92.216 92.9486 90.568 92.8526 88.808C92.8206 87.944 92.7886 86.968 92.7566 85.88C92.7566 84.76 92.7566 83.64 92.7566 82.52C92.7886 81.368 92.8206 80.344 92.8526 79.448C92.9486 77.688 93.2846 76.056 93.8606 74.552C94.4686 73.016 95.3326 71.688 96.4526 70.568C97.6046 69.416 99.0126 68.52 100.677 67.88C102.373 67.24 104.341 66.92 106.581 66.92C108.853 66.92 110.821 67.24 112.485 67.88C114.149 68.52 115.541 69.416 116.661 70.568C117.813 71.688 118.693 73.016 119.301 74.552C119.909 76.056 120.245 77.688 120.309 79.448C120.373 80.344 120.405 81.368 120.405 82.52C120.437 83.64 120.437 84.76 120.405 85.88C120.405 86.968 120.373 87.944 120.309 88.808C120.245 90.568 119.909 92.216 119.301 93.752C118.725 95.288 117.877 96.632 116.757 97.784C115.669 98.936 114.277 99.848 112.581 100.52C110.917 101.16 108.917 101.48 106.581 101.48ZM106.581 94.52C108.245 94.52 109.445 93.992 110.181 92.936C110.949 91.848 111.349 90.392 111.381 88.568C111.445 87.64 111.477 86.664 111.477 85.64C111.509 84.616 111.509 83.592 111.477 82.568C111.477 81.544 111.445 80.6 111.381 79.736C111.349 77.976 110.949 76.552 110.181 75.464C109.445 74.376 108.245 73.816 106.581 73.784C104.917 73.816 103.717 74.376 102.981 75.464C102.245 76.552 101.845 77.976 101.781 79.736C101.749 80.6 101.717 81.544 101.685 82.568C101.685 83.592 101.685 84.616 101.685 85.64C101.717 86.664 101.749 87.64 101.781 88.568C101.845 90.392 102.261 91.848 103.029 92.936C103.797 93.992 104.981 94.52 106.581 94.52ZM132.848 101C132.496 101 132.208 100.888 131.984 100.664C131.76 100.44 131.648 100.152 131.648 99.8V77.24C131.648 76.888 131.76 76.6 131.984 76.376C132.208 76.152 132.496 76.04 132.848 76.04H138.08C138.432 76.04 138.72 76.152 138.944 76.376C139.168 76.6 139.28 76.888 139.28 77.24V78.872C139.92 78.008 140.816 77.256 141.968 76.616C143.12 75.944 144.48 75.592 146.048 75.56C149.728 75.496 152.256 76.888 153.632 79.736C154.368 78.52 155.424 77.528 156.8 76.76C158.176 75.96 159.68 75.56 161.312 75.56C162.976 75.56 164.464 75.944 165.776 76.712C167.12 77.448 168.192 78.6 168.992 80.168C169.792 81.704 170.192 83.704 170.192 86.168V99.8C170.192 100.152 170.064 100.44 169.808 100.664C169.584 100.888 169.312 101 168.992 101H163.424C163.072 101 162.768 100.888 162.512 100.664C162.288 100.44 162.176 100.152 162.176 99.8V86.504C162.176 85.384 162.016 84.504 161.696 83.864C161.376 83.192 160.944 82.712 160.4 82.424C159.856 82.136 159.232 81.992 158.528 81.992C157.952 81.992 157.376 82.136 156.8 82.424C156.256 82.712 155.808 83.192 155.456 83.864C155.136 84.504 154.976 85.384 154.976 86.504V99.8C154.976 100.152 154.864 100.44 154.64 100.664C154.416 100.888 154.128 101 153.776 101H148.208C147.856 101 147.568 100.888 147.344 100.664C147.12 100.44 147.008 100.152 147.008 99.8V86.504C147.008 85.384 146.832 84.504 146.48 83.864C146.128 83.192 145.68 82.712 145.136 82.424C144.592 82.136 143.984 81.992 143.312 81.992C142.736 81.992 142.16 82.136 141.584 82.424C141.04 82.712 140.592 83.192 140.24 83.864C139.92 84.504 139.76 85.368 139.76 86.456V99.8C139.76 100.152 139.632 100.44 139.376 100.664C139.152 100.888 138.864 101 138.512 101H132.848ZM176.77 101C176.418 101 176.13 100.888 175.906 100.664C175.682 100.44 175.57 100.152 175.57 99.8V77.24C175.57 76.888 175.682 76.6 175.906 76.376C176.13 76.152 176.418 76.04 176.77 76.04H182.434C182.754 76.04 183.026 76.152 183.25 76.376C183.506 76.6 183.634 76.888 183.634 77.24V99.8C183.634 100.152 183.506 100.44 183.25 100.664C183.026 100.888 182.754 101 182.434 101H176.77ZM176.722 72.44C176.37 72.44 176.082 72.328 175.858 72.104C175.634 71.88 175.522 71.592 175.522 71.24V66.968C175.522 66.616 175.634 66.328 175.858 66.104C176.082 65.848 176.37 65.72 176.722 65.72H182.434C182.786 65.72 183.074 65.848 183.298 66.104C183.554 66.328 183.682 66.616 183.682 66.968V71.24C183.682 71.592 183.554 71.88 183.298 72.104C183.074 72.328 182.786 72.44 182.434 72.44H176.722ZM190.458 101C190.106 101 189.818 100.888 189.594 100.664C189.37 100.44 189.258 100.152 189.258 99.8V68.12C189.258 67.768 189.37 67.48 189.594 67.256C189.818 67.032 190.106 66.92 190.458 66.92H196.122C196.474 66.92 196.762 67.032 196.986 67.256C197.21 67.48 197.322 67.768 197.322 68.12V99.8C197.322 100.152 197.21 100.44 196.986 100.664C196.762 100.888 196.474 101 196.122 101H190.458ZM204.192 101C203.84 101 203.552 100.888 203.328 100.664C203.104 100.44 202.992 100.152 202.992 99.8V68.12C202.992 67.768 203.104 67.48 203.328 67.256C203.552 67.032 203.84 66.92 204.192 66.92H210.336C210.688 66.92 210.976 67.032 211.2 67.256C211.424 67.48 211.536 67.768 211.536 68.12V78.824C212.4 77.832 213.456 77.048 214.704 76.472C215.984 75.864 217.456 75.56 219.12 75.56C220.976 75.56 222.624 75.976 224.064 76.808C225.536 77.64 226.688 78.872 227.52 80.504C228.352 82.104 228.768 84.072 228.768 86.408V99.8C228.768 100.152 228.656 100.44 228.432 100.664C228.208 100.888 227.92 101 227.568 101H221.376C221.056 101 220.768 100.888 220.512 100.664C220.288 100.44 220.176 100.152 220.176 99.8V86.696C220.176 85.192 219.808 84.04 219.072 83.24C218.368 82.408 217.312 81.992 215.904 81.992C214.592 81.992 213.536 82.408 212.736 83.24C211.936 84.04 211.536 85.192 211.536 86.696V99.8C211.536 100.152 211.424 100.44 211.2 100.664C210.976 100.888 210.688 101 210.336 101H204.192ZM246.019 101.48C243.331 101.48 241.059 101.048 239.203 100.184C237.379 99.32 235.971 98.088 234.979 96.488C234.019 94.856 233.475 92.92 233.347 90.68C233.315 90.04 233.299 89.32 233.299 88.52C233.299 87.688 233.315 86.968 233.347 86.36C233.475 84.088 234.051 82.152 235.075 80.552C236.099 78.952 237.523 77.72 239.347 76.856C241.203 75.992 243.427 75.56 246.019 75.56C248.643 75.56 250.867 75.992 252.691 76.856C254.547 77.72 255.987 78.952 257.011 80.552C258.035 82.152 258.611 84.088 258.739 86.36C258.771 86.968 258.787 87.688 258.787 88.52C258.787 89.32 258.771 90.04 258.739 90.68C258.611 92.92 258.051 94.856 257.059 96.488C256.099 98.088 254.691 99.32 252.835 100.184C251.011 101.048 248.739 101.48 246.019 101.48ZM246.019 95.624C247.459 95.624 248.499 95.192 249.139 94.328C249.811 93.464 250.195 92.168 250.291 90.44C250.323 89.96 250.339 89.32 250.339 88.52C250.339 87.72 250.323 87.08 250.291 86.6C250.195 84.904 249.811 83.624 249.139 82.76C248.499 81.864 247.459 81.416 246.019 81.416C244.611 81.416 243.571 81.864 242.899 82.76C242.227 83.624 241.859 84.904 241.795 86.6C241.763 87.08 241.747 87.72 241.747 88.52C241.747 89.32 241.763 89.96 241.795 90.44C241.859 92.168 242.227 93.464 242.899 94.328C243.571 95.192 244.611 95.624 246.019 95.624ZM248.851 72.68C247.987 72.68 247.267 72.536 246.691 72.248C246.147 71.96 245.651 71.688 245.203 71.432C244.787 71.144 244.291 71 243.715 71C243.267 71 242.947 71.112 242.755 71.336C242.563 71.56 242.387 71.8 242.227 72.056C242.067 72.312 241.811 72.44 241.459 72.44H238.579C238.355 72.44 238.163 72.36 238.003 72.2C237.843 72.008 237.763 71.816 237.763 71.624C237.763 71.112 237.843 70.52 238.003 69.848C238.195 69.144 238.499 68.472 238.915 67.832C239.331 67.192 239.875 66.664 240.547 66.248C241.251 65.8 242.099 65.576 243.091 65.576C243.987 65.576 244.707 65.72 245.251 66.008C245.795 66.296 246.291 66.584 246.739 66.872C247.219 67.16 247.731 67.304 248.275 67.304C248.723 67.304 249.027 67.176 249.187 66.92C249.379 66.664 249.555 66.424 249.715 66.2C249.907 65.944 250.179 65.816 250.531 65.816H253.411C253.667 65.816 253.859 65.912 253.987 66.104C254.147 66.264 254.227 66.456 254.227 66.68C254.227 67.192 254.131 67.784 253.939 68.456C253.779 69.128 253.491 69.8 253.075 70.472C252.659 71.112 252.099 71.64 251.395 72.056C250.723 72.472 249.875 72.68 248.851 72.68ZM275.028 101.48C271.252 101.48 268.244 100.456 266.004 98.408C263.764 96.36 262.596 93.32 262.5 89.288C262.5 89.064 262.5 88.776 262.5 88.424C262.5 88.072 262.5 87.8 262.5 87.608C262.596 85.08 263.156 82.92 264.18 81.128C265.236 79.304 266.676 77.928 268.5 77C270.356 76.04 272.516 75.56 274.98 75.56C277.796 75.56 280.116 76.12 281.94 77.24C283.796 78.36 285.188 79.88 286.116 81.8C287.044 83.72 287.508 85.912 287.508 88.376V89.528C287.508 89.88 287.38 90.168 287.124 90.392C286.9 90.616 286.628 90.728 286.308 90.728H270.948C270.948 90.76 270.948 90.808 270.948 90.872C270.948 90.936 270.948 91 270.948 91.064C270.98 91.992 271.14 92.84 271.428 93.608C271.716 94.376 272.164 94.984 272.772 95.432C273.38 95.88 274.116 96.104 274.98 96.104C275.62 96.104 276.148 96.008 276.564 95.816C277.012 95.592 277.38 95.352 277.668 95.096C277.956 94.808 278.18 94.568 278.34 94.376C278.628 94.056 278.852 93.864 279.012 93.8C279.204 93.704 279.492 93.656 279.876 93.656H285.828C286.148 93.656 286.404 93.752 286.596 93.944C286.82 94.104 286.916 94.344 286.884 94.664C286.852 95.208 286.58 95.864 286.068 96.632C285.556 97.4 284.804 98.168 283.812 98.936C282.852 99.672 281.636 100.28 280.164 100.76C278.692 101.24 276.98 101.48 275.028 101.48ZM270.948 85.976H279.06V85.88C279.06 84.856 278.9 83.96 278.58 83.192C278.292 82.424 277.828 81.832 277.188 81.416C276.58 81 275.844 80.792 274.98 80.792C274.116 80.792 273.38 81 272.772 81.416C272.196 81.832 271.748 82.424 271.428 83.192C271.108 83.96 270.948 84.856 270.948 85.88V85.976ZM302.28 101.48C300.2 101.48 298.424 101.256 296.952 100.808C295.512 100.328 294.328 99.752 293.4 99.08C292.504 98.408 291.832 97.72 291.384 97.016C290.936 96.28 290.696 95.656 290.664 95.144C290.632 94.792 290.744 94.504 291 94.28C291.256 94.024 291.528 93.896 291.816 93.896H297.288C297.384 93.896 297.464 93.912 297.528 93.944C297.592 93.976 297.688 94.04 297.816 94.136C298.232 94.36 298.648 94.648 299.064 95C299.48 95.32 299.96 95.608 300.504 95.864C301.048 96.12 301.704 96.248 302.472 96.248C303.368 96.248 304.12 96.072 304.728 95.72C305.336 95.368 305.64 94.84 305.64 94.136C305.64 93.624 305.496 93.208 305.208 92.888C304.92 92.536 304.328 92.2 303.432 91.88C302.568 91.56 301.256 91.24 299.496 90.92C297.832 90.536 296.376 90.04 295.128 89.432C293.88 88.792 292.92 87.976 292.248 86.984C291.576 85.96 291.24 84.728 291.24 83.288C291.24 82.008 291.656 80.776 292.488 79.592C293.32 78.408 294.536 77.448 296.136 76.712C297.736 75.944 299.704 75.56 302.04 75.56C303.896 75.56 305.496 75.784 306.84 76.232C308.216 76.648 309.368 77.192 310.296 77.864C311.256 78.536 311.976 79.224 312.456 79.928C312.936 80.632 313.192 81.272 313.224 81.848C313.256 82.168 313.16 82.456 312.936 82.712C312.712 82.936 312.456 83.048 312.168 83.048H307.176C307.048 83.048 306.92 83.032 306.792 83C306.664 82.936 306.552 82.872 306.456 82.808C306.072 82.616 305.688 82.36 305.304 82.04C304.92 81.72 304.472 81.432 303.96 81.176C303.448 80.92 302.808 80.792 302.04 80.792C301.176 80.792 300.504 80.984 300.024 81.368C299.544 81.752 299.304 82.248 299.304 82.856C299.304 83.272 299.432 83.656 299.688 84.008C299.976 84.36 300.536 84.68 301.368 84.968C302.232 85.256 303.56 85.576 305.352 85.928C307.56 86.28 309.32 86.856 310.632 87.656C311.944 88.424 312.872 89.336 313.416 90.392C313.96 91.416 314.232 92.504 314.232 93.656C314.232 95.192 313.768 96.552 312.84 97.736C311.944 98.92 310.6 99.848 308.808 100.52C307.016 101.16 304.84 101.48 302.28 101.48ZM139.172 133.24C138.292 133.24 137.532 133.088 136.892 132.784C136.252 132.464 135.724 132.04 135.308 131.512C134.908 130.968 134.604 130.352 134.396 129.664C134.204 128.976 134.092 128.248 134.06 127.48C134.044 127.224 134.036 126.984 134.036 126.76C134.036 126.536 134.044 126.296 134.06 126.04C134.092 125.288 134.204 124.568 134.396 123.88C134.604 123.192 134.908 122.576 135.308 122.032C135.724 121.488 136.252 121.064 136.892 120.76C137.532 120.44 138.292 120.28 139.172 120.28C140.116 120.28 140.9 120.448 141.524 120.784C142.148 121.12 142.66 121.536 143.06 122.032V116.512C143.06 116.352 143.108 116.224 143.204 116.128C143.316 116.016 143.452 115.96 143.612 115.96H144.764C144.924 115.96 145.052 116.016 145.148 116.128C145.26 116.224 145.316 116.352 145.316 116.512V132.448C145.316 132.608 145.26 132.744 145.148 132.856C145.052 132.952 144.924 133 144.764 133H143.684C143.508 133 143.372 132.952 143.276 132.856C143.18 132.744 143.132 132.608 143.132 132.448V131.44C142.732 131.952 142.212 132.384 141.572 132.736C140.932 133.072 140.132 133.24 139.172 133.24ZM139.676 131.296C140.476 131.296 141.116 131.112 141.596 130.744C142.076 130.376 142.436 129.912 142.676 129.352C142.916 128.776 143.044 128.192 143.06 127.6C143.076 127.344 143.084 127.04 143.084 126.688C143.084 126.32 143.076 126.008 143.06 125.752C143.044 125.192 142.908 124.64 142.652 124.096C142.412 123.552 142.044 123.104 141.548 122.752C141.068 122.4 140.444 122.224 139.676 122.224C138.86 122.224 138.212 122.408 137.732 122.776C137.252 123.128 136.908 123.6 136.7 124.192C136.492 124.768 136.372 125.392 136.34 126.064C136.324 126.528 136.324 126.992 136.34 127.456C136.372 128.128 136.492 128.76 136.7 129.352C136.908 129.928 137.252 130.4 137.732 130.768C138.212 131.12 138.86 131.296 139.676 131.296ZM153.853 133.24C152.205 133.24 150.893 132.736 149.917 131.728C148.941 130.704 148.405 129.312 148.309 127.552C148.293 127.344 148.285 127.08 148.285 126.76C148.285 126.424 148.293 126.152 148.309 125.944C148.373 124.808 148.637 123.816 149.101 122.968C149.565 122.104 150.197 121.44 150.997 120.976C151.813 120.512 152.765 120.28 153.853 120.28C155.069 120.28 156.085 120.536 156.901 121.048C157.733 121.56 158.365 122.288 158.797 123.232C159.229 124.176 159.445 125.28 159.445 126.544V126.952C159.445 127.128 159.389 127.264 159.277 127.36C159.181 127.456 159.053 127.504 158.893 127.504H150.589C150.589 127.52 150.589 127.552 150.589 127.6C150.589 127.648 150.589 127.688 150.589 127.72C150.621 128.376 150.765 128.992 151.021 129.568C151.277 130.128 151.645 130.584 152.125 130.936C152.605 131.288 153.181 131.464 153.853 131.464C154.429 131.464 154.909 131.376 155.293 131.2C155.677 131.024 155.989 130.832 156.229 130.624C156.469 130.4 156.629 130.232 156.709 130.12C156.853 129.912 156.965 129.792 157.045 129.76C157.125 129.712 157.253 129.688 157.429 129.688H158.581C158.741 129.688 158.869 129.736 158.965 129.832C159.077 129.912 159.125 130.032 159.109 130.192C159.093 130.432 158.965 130.728 158.725 131.08C158.485 131.416 158.141 131.752 157.693 132.088C157.245 132.424 156.701 132.704 156.061 132.928C155.421 133.136 154.685 133.24 153.853 133.24ZM150.589 125.848H157.165V125.776C157.165 125.056 157.029 124.416 156.757 123.856C156.501 123.296 156.125 122.856 155.629 122.536C155.133 122.2 154.541 122.032 153.853 122.032C153.165 122.032 152.573 122.2 152.077 122.536C151.597 122.856 151.229 123.296 150.973 123.856C150.717 124.416 150.589 125.056 150.589 125.776V125.848ZM168.75 133C168.59 133 168.454 132.952 168.342 132.856C168.246 132.744 168.198 132.608 168.198 132.448V121.096C168.198 120.936 168.246 120.8 168.342 120.688C168.454 120.576 168.59 120.52 168.75 120.52H169.854C170.014 120.52 170.15 120.576 170.262 120.688C170.374 120.8 170.43 120.936 170.43 121.096V122.152C170.75 121.608 171.19 121.2 171.75 120.928C172.31 120.656 172.982 120.52 173.766 120.52H174.726C174.886 120.52 175.014 120.576 175.11 120.688C175.206 120.784 175.254 120.912 175.254 121.072V122.056C175.254 122.216 175.206 122.344 175.11 122.44C175.014 122.536 174.886 122.584 174.726 122.584H173.286C172.422 122.584 171.742 122.84 171.246 123.352C170.75 123.848 170.502 124.528 170.502 125.392V132.448C170.502 132.608 170.446 132.744 170.334 132.856C170.222 132.952 170.086 133 169.926 133H168.75ZM182.049 133.24C180.401 133.24 179.089 132.736 178.113 131.728C177.137 130.704 176.601 129.312 176.505 127.552C176.489 127.344 176.481 127.08 176.481 126.76C176.481 126.424 176.489 126.152 176.505 125.944C176.569 124.808 176.833 123.816 177.297 122.968C177.761 122.104 178.393 121.44 179.193 120.976C180.009 120.512 180.961 120.28 182.049 120.28C183.265 120.28 184.281 120.536 185.097 121.048C185.929 121.56 186.561 122.288 186.993 123.232C187.425 124.176 187.641 125.28 187.641 126.544V126.952C187.641 127.128 187.585 127.264 187.473 127.36C187.377 127.456 187.249 127.504 187.089 127.504H178.785C178.785 127.52 178.785 127.552 178.785 127.6C178.785 127.648 178.785 127.688 178.785 127.72C178.817 128.376 178.961 128.992 179.217 129.568C179.473 130.128 179.841 130.584 180.321 130.936C180.801 131.288 181.377 131.464 182.049 131.464C182.625 131.464 183.105 131.376 183.489 131.2C183.873 131.024 184.185 130.832 184.425 130.624C184.665 130.4 184.825 130.232 184.905 130.12C185.049 129.912 185.161 129.792 185.241 129.76C185.321 129.712 185.449 129.688 185.625 129.688H186.777C186.937 129.688 187.065 129.736 187.161 129.832C187.273 129.912 187.321 130.032 187.305 130.192C187.289 130.432 187.161 130.728 186.921 131.08C186.681 131.416 186.337 131.752 185.889 132.088C185.441 132.424 184.897 132.704 184.257 132.928C183.617 133.136 182.881 133.24 182.049 133.24ZM178.785 125.848H185.361V125.776C185.361 125.056 185.225 124.416 184.953 123.856C184.697 123.296 184.321 122.856 183.825 122.536C183.329 122.2 182.737 122.032 182.049 122.032C181.361 122.032 180.769 122.2 180.273 122.536C179.793 122.856 179.425 123.296 179.169 123.856C178.913 124.416 178.785 125.056 178.785 125.776V125.848ZM193.99 133.24C193.19 133.24 192.462 133.08 191.806 132.76C191.15 132.44 190.622 132.008 190.222 131.464C189.822 130.92 189.622 130.304 189.622 129.616C189.622 128.512 190.07 127.632 190.966 126.976C191.862 126.32 193.03 125.888 194.47 125.68L198.046 125.176V124.48C198.046 123.712 197.822 123.112 197.374 122.68C196.942 122.248 196.23 122.032 195.238 122.032C194.518 122.032 193.934 122.176 193.486 122.464C193.054 122.752 192.75 123.12 192.574 123.568C192.478 123.808 192.31 123.928 192.07 123.928H190.99C190.814 123.928 190.678 123.88 190.582 123.784C190.502 123.672 190.462 123.544 190.462 123.4C190.462 123.16 190.55 122.864 190.726 122.512C190.918 122.16 191.206 121.816 191.59 121.48C191.974 121.144 192.462 120.864 193.054 120.64C193.662 120.4 194.398 120.28 195.262 120.28C196.222 120.28 197.03 120.408 197.686 120.664C198.342 120.904 198.854 121.232 199.222 121.648C199.606 122.064 199.878 122.536 200.038 123.064C200.214 123.592 200.302 124.128 200.302 124.672V132.448C200.302 132.608 200.246 132.744 200.134 132.856C200.038 132.952 199.91 133 199.75 133H198.646C198.47 133 198.334 132.952 198.238 132.856C198.142 132.744 198.094 132.608 198.094 132.448V131.416C197.886 131.704 197.606 131.992 197.254 132.28C196.902 132.552 196.462 132.784 195.934 132.976C195.406 133.152 194.758 133.24 193.99 133.24ZM194.494 131.44C195.15 131.44 195.75 131.304 196.294 131.032C196.838 130.744 197.262 130.304 197.566 129.712C197.886 129.12 198.046 128.376 198.046 127.48V126.808L195.262 127.216C194.126 127.376 193.27 127.648 192.694 128.032C192.118 128.4 191.83 128.872 191.83 129.448C191.83 129.896 191.958 130.272 192.214 130.576C192.486 130.864 192.822 131.08 193.222 131.224C193.638 131.368 194.062 131.44 194.494 131.44ZM204.305 133C204.145 133 204.009 132.952 203.897 132.856C203.801 132.744 203.753 132.608 203.753 132.448V121.072C203.753 120.912 203.801 120.784 203.897 120.688C204.009 120.576 204.145 120.52 204.305 120.52H205.457C205.617 120.52 205.745 120.576 205.841 120.688C205.937 120.784 205.985 120.912 205.985 121.072V132.448C205.985 132.608 205.937 132.744 205.841 132.856C205.745 132.952 205.617 133 205.457 133H204.305ZM204.113 118.192C203.953 118.192 203.817 118.144 203.705 118.048C203.609 117.936 203.561 117.8 203.561 117.64V116.344C203.561 116.184 203.609 116.056 203.705 115.96C203.817 115.848 203.953 115.792 204.113 115.792H205.625C205.785 115.792 205.913 115.848 206.009 115.96C206.121 116.056 206.177 116.184 206.177 116.344V117.64C206.177 117.8 206.121 117.936 206.009 118.048C205.913 118.144 205.785 118.192 205.625 118.192H204.113ZM214.026 133.24C213.13 133.24 212.362 133.128 211.722 132.904C211.082 132.68 210.562 132.408 210.162 132.088C209.762 131.768 209.458 131.448 209.25 131.128C209.058 130.808 208.954 130.552 208.938 130.36C208.922 130.184 208.978 130.048 209.106 129.952C209.234 129.856 209.362 129.808 209.49 129.808H210.546C210.642 129.808 210.714 129.824 210.762 129.856C210.826 129.872 210.906 129.936 211.002 130.048C211.21 130.272 211.442 130.496 211.698 130.72C211.954 130.944 212.266 131.128 212.634 131.272C213.018 131.416 213.49 131.488 214.05 131.488C214.866 131.488 215.538 131.336 216.066 131.032C216.594 130.712 216.858 130.248 216.858 129.64C216.858 129.24 216.746 128.92 216.522 128.68C216.314 128.44 215.93 128.224 215.37 128.032C214.826 127.84 214.074 127.64 213.114 127.432C212.154 127.208 211.394 126.936 210.834 126.616C210.274 126.28 209.874 125.888 209.634 125.44C209.394 124.976 209.274 124.456 209.274 123.88C209.274 123.288 209.45 122.72 209.802 122.176C210.154 121.616 210.666 121.16 211.338 120.808C212.026 120.456 212.882 120.28 213.906 120.28C214.738 120.28 215.45 120.384 216.042 120.592C216.634 120.8 217.122 121.064 217.506 121.384C217.89 121.688 218.178 121.992 218.37 122.296C218.562 122.6 218.666 122.856 218.682 123.064C218.698 123.224 218.65 123.36 218.538 123.472C218.426 123.568 218.298 123.616 218.154 123.616H217.146C217.034 123.616 216.938 123.592 216.858 123.544C216.794 123.496 216.73 123.44 216.666 123.376C216.506 123.168 216.314 122.96 216.09 122.752C215.882 122.544 215.602 122.376 215.25 122.248C214.914 122.104 214.466 122.032 213.906 122.032C213.106 122.032 212.506 122.2 212.106 122.536C211.706 122.872 211.506 123.296 211.506 123.808C211.506 124.112 211.594 124.384 211.77 124.624C211.946 124.864 212.282 125.08 212.778 125.272C213.274 125.464 214.01 125.672 214.986 125.896C216.042 126.104 216.874 126.384 217.482 126.736C218.09 127.088 218.522 127.496 218.778 127.96C219.034 128.424 219.162 128.96 219.162 129.568C219.162 130.24 218.962 130.856 218.562 131.416C218.178 131.976 217.602 132.424 216.834 132.76C216.082 133.08 215.146 133.24 214.026 133.24Z" fill="#171E35"/>
</svg>
