<svg width="257" height="258" viewBox="0 0 257 258" fill="none" xmlns="http://www.w3.org/2000/svg">
<g clip-path="url(#clip0_2247_755)">
<path d="M156.965 168.66H114.687C108.346 168.66 103.187 163.505 103.187 157.169V45.4913C103.187 39.155 108.346 34 114.687 34H156.965C163.306 34 168.465 39.155 168.465 45.4913C169.252 90.3375 170.594 140.558 168.465 157.169C168.465 163.505 163.306 168.66 156.965 168.66L156.965 168.66V168.66Z" fill="#A6A9B1"/>
<path d="M169.055 75.0786C168.786 75.0786 168.568 75.2966 168.568 75.5648V91.1211C168.568 91.3892 168.786 91.6073 169.055 91.6073C169.323 91.6073 169.541 91.3892 169.541 91.1211V75.5648C169.541 75.2966 169.323 75.0786 169.055 75.0786Z" fill="#3F3D56"/>
<path d="M167.37 45.4912V157.167C167.37 162.682 163.074 167.193 157.643 167.543H157.64C157.56 167.548 157.48 167.553 157.397 167.555C157.253 167.563 157.11 167.565 156.964 167.565C156.964 167.565 156.429 167.526 155.451 167.453C154.463 167.38 153.026 167.271 151.233 167.128C150.695 167.086 150.128 167.04 149.53 166.991C148.338 166.894 147.029 166.787 145.626 166.666C145.066 166.62 144.487 166.568 143.896 166.517C140.875 166.257 137.491 165.954 133.923 165.608C133.319 165.552 132.711 165.494 132.098 165.433C131.938 165.416 104.281 158.469 104.281 157.167V45.4912C104.281 39.7475 108.94 35.0928 114.688 35.0928H120.901C121.893 35.0928 122.691 35.8657 122.776 36.855C122.783 36.9207 122.791 36.9863 122.803 37.0519C122.983 38.0461 123.895 38.7388 124.907 38.7388H146.745C147.757 38.7388 148.669 38.0461 148.849 37.0519C148.861 36.9863 148.868 36.9207 148.876 36.855C148.961 35.8657 149.759 35.0928 150.751 35.0928H156.964C162.712 35.0928 167.37 39.7475 167.37 45.4912H167.37Z" fill="white"/>
<path d="M102.943 63.4111C102.675 63.4111 102.457 63.6292 102.457 63.8973V67.7864C102.457 68.0545 102.675 68.2725 102.943 68.2725C103.212 68.2725 103.43 68.0545 103.43 67.7864V63.8973C103.43 63.6292 103.212 63.4111 102.943 63.4111V63.4111Z" fill="#3F3D56"/>
<path d="M102.943 75.0786C102.675 75.0786 102.457 75.2966 102.457 75.5648V83.0999C102.457 83.368 102.675 83.586 102.943 83.586C103.212 83.586 103.43 83.368 103.43 83.0999V75.5648C103.43 75.2966 103.212 75.0786 102.943 75.0786V75.0786Z" fill="#3F3D56"/>
<path d="M102.943 85.7734C102.675 85.7734 102.457 85.9915 102.457 86.2596V93.7947C102.457 94.0628 102.675 94.2808 102.943 94.2808C103.212 94.2808 103.43 94.0628 103.43 93.7947V86.2596C103.43 85.9915 103.212 85.7734 102.943 85.7734Z" fill="#3F3D56"/>
<path d="M120.741 36.7954H111.418C111.372 36.7954 111.336 36.832 111.336 36.8772V37.929C111.336 37.9742 111.372 38.0108 111.418 38.0108H120.741C120.786 38.0108 120.823 37.9742 120.823 37.929V36.8772C120.823 36.832 120.786 36.7954 120.741 36.7954Z" fill="#E6E6E6"/>
<path d="M152.288 38.0105C152.826 38.0105 153.261 37.5752 153.261 37.0382C153.261 36.5012 152.826 36.0659 152.288 36.0659C151.751 36.0659 151.315 36.5012 151.315 37.0382C151.315 37.5752 151.751 38.0105 152.288 38.0105Z" fill="#E6E6E6"/>
<path d="M154.964 38.0105C155.502 38.0105 155.937 37.5752 155.937 37.0382C155.937 36.5012 155.502 36.0659 154.964 36.0659C154.427 36.0659 153.991 36.5012 153.991 37.0382C153.991 37.5752 154.427 38.0105 154.964 38.0105Z" fill="#E6E6E6"/>
<path d="M157.64 38.0105C158.177 38.0105 158.613 37.5752 158.613 37.0382C158.613 36.5012 158.177 36.0659 157.64 36.0659C157.103 36.0659 156.667 36.5012 156.667 37.0382C156.667 37.5752 157.103 38.0105 157.64 38.0105Z" fill="#E6E6E6"/>
<path d="M57.7751 168.687C57.7751 168.861 57.9149 169 58.089 169H202.686C202.86 169 203 168.861 203 168.687C203 168.513 202.86 168.373 202.686 168.373H58.089C57.9149 168.373 57.7751 168.513 57.7751 168.687V168.687Z" fill="#CCCCCC"/>
<path d="M103.879 166.627L100.914 166.626L99.5032 155.198L103.88 155.198L103.879 166.627Z" fill="#FFB6B6"/>
<path d="M93.7197 166.559C93.6273 166.715 93.5786 167.216 93.5786 167.397C93.5786 167.952 94.0292 168.402 94.585 168.402H103.768C104.147 168.402 104.455 168.095 104.455 167.716V167.334C104.455 167.334 104.909 166.186 103.974 164.771C103.974 164.771 102.811 165.879 101.074 164.144L100.562 163.216L96.8543 165.926L94.7992 166.179C94.3496 166.234 93.951 166.17 93.7197 166.559H93.7197V166.559H93.7197Z" fill="#2F2E41"/>
<path d="M87.4806 150.753L84.5154 150.743L83.1411 139.31L87.5175 139.324L87.4806 150.753Z" fill="#FFB6B6"/>
<path d="M77.3217 150.653C77.2289 150.808 77.1786 151.31 77.178 151.49C77.1762 152.046 77.6254 152.497 78.1812 152.499L87.3642 152.528C87.7433 152.529 88.0517 152.223 88.0529 151.844L88.0541 151.462C88.0541 151.462 88.5121 150.316 87.5813 148.898C87.5813 148.898 86.4154 150.002 84.6839 148.261L84.1747 147.332L80.4584 150.03L78.4025 150.276C77.9527 150.33 77.5542 150.265 77.3217 150.653H77.3217V150.653Z" fill="#2F2E41"/>
<path d="M99.5543 97.2446L95.8621 97.5081C95.8621 97.5081 83.3628 104.609 82.3079 106.19C81.253 107.772 79.8025 110.011 81.1211 112.383C82.4398 114.755 81.4362 143.471 81.4362 143.471L87.7373 142.047L91.7744 112.002L100.214 110.816C100.214 110.816 103.115 117.07 102.06 122.244C101.005 127.418 100.477 130.58 100.477 130.58L99.1587 161.148L104.301 161.016L108.916 132.688L116.828 110.289L106.543 98.1669L99.5543 97.2446Z" fill="#A6A9B1"/>
<path d="M117.751 64.8315L110.103 65.6221L109.312 68.2573L101.928 72.2101L104.301 88.8118L102.455 91.7105L103.246 94.6092C103.246 94.6092 101.137 94.8728 101.4 96.4539L96.6533 97.2444C96.6533 97.2444 102.949 98.5288 104.285 104.87C105.62 111.211 116.696 112.002 116.696 112.002L125.399 84.859L126.19 68.7843L120.125 67.2032L117.751 64.8315Z" fill="#FF0CF6"/>
<path d="M113.721 63.8317C117.004 63.8317 119.666 61.172 119.666 57.891C119.666 54.61 117.004 51.9502 113.721 51.9502C110.437 51.9502 107.775 54.61 107.775 57.891C107.775 61.172 110.437 63.8317 113.721 63.8317Z" fill="#FFB6B6"/>
<path d="M110.631 63.2507C110.631 63.2507 105.356 62.9872 105.884 58.7708C104.578 54.2809 105.734 51.3657 109.84 50.3382C109.84 50.3382 110.894 50.0747 111.158 50.0747C114.627 50.0747 116.433 51.1288 116.433 51.1288C116.433 51.1288 116.169 50.0851 116.433 50.3434C116.696 50.6017 116.96 51.1288 116.96 51.1288C116.96 51.1288 119.597 52.4464 119.597 55.0816C119.597 57.7168 119.597 56.6627 119.597 56.6627C119.597 56.6627 119.07 56.6627 118.542 55.0816C118.015 53.5005 114.6 54.5545 114.6 54.5545L114.85 55.0816L114.059 54.8181L113.268 55.6086L112.74 55.3451C112.74 55.3451 110.631 55.3451 110.894 55.3451C111.158 55.3451 110.974 57.136 110.974 57.136L109.048 59.2979L111.158 63.2507H110.631Z" fill="#2F2E41"/>
<path d="M82.5297 94.7027C81.0283 95.5215 80.2338 96.9593 80.7553 97.914C81.2768 98.8688 82.9167 98.979 84.4182 98.1601C85.0754 97.8017 85.5971 97.3247 85.9324 96.8215L92.251 93.2721L90.521 90.3447L84.4756 94.1544C83.8708 94.1639 83.187 94.3443 82.5297 94.7027H82.5297Z" fill="#FFB6B6"/>
<path d="M103.838 72.3331C103.838 72.3331 101.361 71.3907 100.508 72.525C99.6544 73.6594 94.0168 87.4231 94.0168 87.4231L85.7454 91.7396L88.0714 95.7869L98.7225 92.2436L105.75 79.4013L103.838 72.3331V72.3331Z" fill="#FF0CF6"/>
<path d="M181.946 117.535V145.468C181.946 147.938 179.934 149.948 177.462 149.948H108.367C105.894 149.948 103.883 147.938 103.883 145.468V117.535C103.883 115.065 105.894 113.055 108.367 113.055H177.462C179.934 113.055 181.946 115.065 181.946 117.535Z" fill="white"/>
<path d="M181.946 117.535V145.468C181.946 147.938 179.934 149.948 177.462 149.948H108.367C105.894 149.948 103.883 147.938 103.883 145.468V117.535C103.883 115.065 105.894 113.055 108.367 113.055H177.462C179.934 113.055 181.946 115.065 181.946 117.535ZM177.462 149.421C179.647 149.421 181.418 147.651 181.418 145.468V131.385C181.418 121.553 173.441 113.582 163.601 113.582H108.367C106.182 113.582 104.411 115.352 104.411 117.535V145.468C104.411 147.651 106.182 149.421 108.367 149.421H177.462Z" fill="#3F3D56"/>
<path d="M134.9 129.931H125.875C125.648 129.931 125.463 130.116 125.463 130.343C125.463 130.571 125.648 130.756 125.875 130.756H134.9C135.128 130.756 135.313 130.571 135.313 130.343C135.313 130.116 135.128 129.931 134.9 129.931Z" fill="#7CEDFF"/>
<path d="M148.614 129.931H139.589C139.361 129.931 139.176 130.116 139.176 130.343C139.176 130.571 139.361 130.756 139.589 130.756H148.614C148.841 130.756 149.026 130.571 149.026 130.343C149.026 130.116 148.841 129.931 148.614 129.931Z" fill="#7CEDFF"/>
<path d="M134.9 134.439H125.875C125.648 134.439 125.463 134.624 125.463 134.851C125.463 135.079 125.648 135.264 125.875 135.264H134.9C135.128 135.264 135.313 135.079 135.313 134.851C135.313 134.624 135.128 134.439 134.9 134.439Z" fill="#7CEDFF"/>
<path d="M148.614 134.439H139.589C139.361 134.439 139.176 134.624 139.176 134.851C139.176 135.079 139.361 135.264 139.589 135.264H148.614C148.841 135.264 149.026 135.079 149.026 134.851C149.026 134.624 148.841 134.439 148.614 134.439Z" fill="#7CEDFF"/>
<path d="M162.74 134.851C162.74 134.624 162.555 134.439 162.327 134.439H153.303C153.075 134.439 152.89 134.624 152.89 134.851C152.89 135.079 153.075 135.264 153.303 135.264H162.327C162.555 135.264 162.74 135.079 162.74 134.851Z" fill="#7CEDFF"/>
<path d="M129.625 126.332C129.853 126.332 130.038 126.147 130.038 125.92C130.038 125.692 129.853 125.507 129.625 125.507H120.601C120.373 125.507 120.188 125.692 120.188 125.92C120.188 126.147 120.373 126.332 120.601 126.332H129.625Z" fill="#7CEDFF"/>
<path d="M156.203 126.164H165.228C165.456 126.164 165.641 125.979 165.641 125.752C165.641 125.525 165.456 125.34 165.228 125.34H156.203C155.976 125.34 155.791 125.525 155.791 125.752C155.791 125.979 155.976 126.164 156.203 126.164Z" fill="#7CEDFF"/>
<path d="M133.427 126.251H152.138C152.365 126.251 152.55 126.066 152.55 125.839C152.55 125.612 152.365 125.427 152.138 125.427H133.427C133.2 125.427 133.015 125.612 133.015 125.839C133.015 126.066 133.2 126.251 133.427 126.251Z" fill="#7CEDFF"/>
<path d="M140.789 138.535H131.764C131.537 138.535 131.352 138.72 131.352 138.947C131.352 139.174 131.537 139.359 131.764 139.359H140.789C141.017 139.359 141.202 139.174 141.202 138.947C141.202 138.72 141.017 138.535 140.789 138.535Z" fill="#7CEDFF"/>
<path d="M169.936 117.325V145.258C169.936 147.728 167.925 149.737 165.453 149.737H137.498C135.026 149.737 133.015 147.728 133.015 145.258V117.325C133.015 114.854 135.026 112.845 137.498 112.845H165.453C167.925 112.845 169.936 114.854 169.936 117.325Z" fill="white"/>
<path d="M169.936 117.325V145.258C169.936 147.728 167.925 149.737 165.453 149.737H137.498C135.026 149.737 133.015 147.728 133.015 145.258V117.325C133.015 114.854 135.026 112.845 137.498 112.845H165.453C167.925 112.845 169.936 114.854 169.936 117.325ZM163.719 149.21C166.861 149.21 169.409 146.665 169.409 143.525V131.175C169.409 121.342 161.432 113.372 151.592 113.372H137.498C135.313 113.372 133.542 115.141 133.542 117.325V141.36C133.542 145.696 137.06 149.21 141.399 149.21H163.719V149.21H163.719V149.21Z" fill="#3F3D56"/>
<path d="M155.197 124.253H146.172C145.945 124.253 145.76 124.068 145.76 123.841C145.76 123.614 145.945 123.429 146.172 123.429H155.197C155.424 123.429 155.61 123.614 155.61 123.841C155.61 124.068 155.424 124.253 155.197 124.253V124.253Z" fill="#FF0CF6"/>
<path d="M155.197 133.045H146.172C145.945 133.045 145.76 132.86 145.76 132.632C145.76 132.405 145.945 132.22 146.172 132.22H155.197C155.424 132.22 155.61 132.405 155.61 132.632C155.61 132.86 155.424 133.045 155.197 133.045V133.045Z" fill="#FF0CF6"/>
<path d="M150.714 145.167H141.689C141.461 145.167 141.276 144.982 141.276 144.755C141.276 144.527 141.461 144.342 141.689 144.342H150.714C150.941 144.342 151.126 144.527 151.126 144.755C151.126 144.982 150.941 145.167 150.714 145.167V145.167Z" fill="#FF0CF6"/>
<path d="M160.04 128.652H141.329C141.102 128.652 140.917 128.467 140.917 128.239C140.917 128.012 141.102 127.827 141.329 127.827H160.04C160.267 127.827 160.452 128.012 160.452 128.239C160.452 128.467 160.267 128.652 160.04 128.652V128.652V128.652Z" fill="#FF0CF6"/>
<path d="M164.676 101.846C164.676 93.1322 157.306 88.3386 148.886 86.0682C138.092 83.1574 130.186 89.0476 133.096 101.846C133.756 104.747 135.333 108.134 137.286 111.032H152.781C157.956 107.665 164.676 108.61 164.676 101.846H164.676Z" fill="#FF0CF6"/>
<path d="M148.655 118.319C149.536 116.64 150.653 115.428 151.885 114.506H137.372C141.107 119.838 146.061 123.26 148.655 118.319Z" fill="#FF0CF6"/>
<path d="M146.98 92.5176C147.911 92.5176 148.667 93.2724 148.667 94.2033V97.5747H145.293V94.2033C145.293 93.2724 146.048 92.5176 146.98 92.5176V92.5176ZM149.51 97.5747V94.2033C149.51 92.8069 148.377 91.6748 146.98 91.6748C145.582 91.6748 144.449 92.8069 144.449 94.2033V97.5747C143.518 97.5747 142.762 98.3294 142.762 99.2604V103.475C142.762 104.406 143.518 105.16 144.449 105.16H149.51C150.442 105.16 151.197 104.406 151.197 103.475V99.2604C151.197 98.3294 150.442 97.5747 149.51 97.5747H149.51ZM144.449 98.4175H149.51C149.976 98.4175 150.354 98.7949 150.354 99.2604V103.475C150.354 103.94 149.976 104.317 149.51 104.317H144.449C143.983 104.317 143.606 103.94 143.606 103.475V99.2604C143.606 98.7949 143.983 98.4175 144.449 98.4175V98.4175Z" fill="white"/>
<path d="M122.872 112.145C122.668 113.842 123.379 115.323 124.46 115.452C125.541 115.581 126.582 114.311 126.786 112.613C126.875 111.871 126.788 111.169 126.573 110.604L127.344 103.403L123.954 103.113L123.553 110.243C123.21 110.741 122.961 111.402 122.872 112.145V112.145Z" fill="#FFB6B6"/>
<path d="M123.685 69.1796C123.685 69.1796 127.377 68.1256 128.168 69.7067C128.96 71.2878 130.806 92.1058 130.806 92.1058L127.245 108.723L123.158 107.653L125.267 90.7882L122.366 78.1393L123.685 69.1796Z" fill="#FF0CF6"/>
<path d="M69.4279 119.733C77.9484 119.733 84.8557 112.831 84.8557 104.317C84.8557 95.8033 77.9484 88.9014 69.4279 88.9014C60.9073 88.9014 54 95.8033 54 104.317C54 112.831 60.9073 119.733 69.4279 119.733Z" fill="#00DEFF"/>
<path d="M69.428 97.4161C70.5178 97.4161 71.4013 98.2989 71.4013 99.3879V103.331H67.4546V99.3879C67.4546 98.2989 68.3381 97.4161 69.428 97.4161V97.4161ZM72.388 103.331V99.3879C72.388 97.7544 71.0627 96.4302 69.428 96.4302C67.7932 96.4302 66.468 97.7544 66.468 99.3879V103.331C65.3781 103.331 64.4946 104.214 64.4946 105.303V110.233C64.4946 111.322 65.3781 112.205 66.468 112.205H72.388C73.4778 112.205 74.3613 111.322 74.3613 110.233V105.303C74.3613 104.214 73.4778 103.331 72.388 103.331H72.388V103.331ZM66.468 104.317H72.388C72.9329 104.317 73.3746 104.759 73.3746 105.303V110.233C73.3746 110.777 72.9329 111.219 72.388 111.219H66.468C65.923 111.219 65.4813 110.777 65.4813 110.233V105.303C65.4813 104.759 65.923 104.317 66.468 104.317V104.317Z" fill="white"/>
</g>
<rect x="22.2053" y="167" width="212.589" height="5.84703" rx="2.92351" fill="white"/>
<path d="M21.5226 195.847C21.416 195.847 21.3253 195.81 21.2506 195.735C21.176 195.661 21.1386 195.57 21.1386 195.463V185.047C21.1386 184.93 21.176 184.834 21.2506 184.759C21.3253 184.685 21.416 184.647 21.5226 184.647H26.1626C27.0266 184.647 27.7306 184.781 28.2746 185.047C28.8186 185.303 29.2186 185.661 29.4746 186.119C29.7413 186.578 29.8746 187.111 29.8746 187.719C29.8746 188.125 29.8 188.482 29.6506 188.791C29.512 189.09 29.336 189.335 29.1226 189.527C28.92 189.719 28.7173 189.869 28.5146 189.975C28.9306 190.167 29.2986 190.487 29.6186 190.935C29.9386 191.383 30.0986 191.917 30.0986 192.535C30.0986 193.175 29.9546 193.746 29.6666 194.247C29.3786 194.749 28.952 195.143 28.3866 195.431C27.8213 195.709 27.1226 195.847 26.2906 195.847H21.5226ZM23.3626 194.151H26.0346C26.6106 194.151 27.048 193.997 27.3466 193.687C27.6453 193.367 27.7946 192.983 27.7946 192.535C27.7946 192.066 27.64 191.677 27.3306 191.367C27.032 191.058 26.6 190.903 26.0346 190.903H23.3626V194.151ZM23.3626 189.239H25.8746C26.44 189.239 26.8613 189.106 27.1386 188.839C27.4266 188.562 27.5706 188.205 27.5706 187.767C27.5706 187.319 27.4266 186.973 27.1386 186.727C26.8613 186.471 26.44 186.343 25.8746 186.343H23.3626V189.239ZM35.0034 196.007C34.3527 196.007 33.7874 195.863 33.3074 195.575C32.838 195.277 32.4754 194.861 32.2194 194.327C31.9634 193.783 31.8354 193.143 31.8354 192.407V187.911C31.8354 187.805 31.8727 187.714 31.9474 187.639C32.022 187.565 32.1127 187.527 32.2194 187.527H33.6274C33.7447 187.527 33.8354 187.565 33.8994 187.639C33.974 187.714 34.0114 187.805 34.0114 187.911V192.311C34.0114 193.634 34.5927 194.295 35.7554 194.295C36.31 194.295 36.7474 194.119 37.0674 193.767C37.398 193.415 37.5634 192.93 37.5634 192.311V187.911C37.5634 187.805 37.6007 187.714 37.6754 187.639C37.75 187.565 37.8407 187.527 37.9474 187.527H39.3554C39.462 187.527 39.5527 187.565 39.6274 187.639C39.702 187.714 39.7394 187.805 39.7394 187.911V195.463C39.7394 195.57 39.702 195.661 39.6274 195.735C39.5527 195.81 39.462 195.847 39.3554 195.847H38.0594C37.942 195.847 37.846 195.81 37.7714 195.735C37.7074 195.661 37.6754 195.57 37.6754 195.463V194.807C37.3874 195.181 37.03 195.474 36.6034 195.687C36.1767 195.901 35.6434 196.007 35.0034 196.007ZM45.0049 196.007C44.3649 196.007 43.8155 195.933 43.3569 195.783C42.9089 195.634 42.5409 195.447 42.2529 195.223C41.9649 194.999 41.7515 194.775 41.6129 194.551C41.4742 194.327 41.3995 194.141 41.3889 193.991C41.3782 193.874 41.4102 193.783 41.4849 193.719C41.5702 193.645 41.6609 193.607 41.7569 193.607H43.0209C43.0635 193.607 43.1009 193.613 43.1329 193.623C43.1649 193.634 43.2075 193.666 43.2609 193.719C43.3995 193.837 43.5435 193.959 43.6929 194.087C43.8529 194.215 44.0395 194.327 44.2529 194.423C44.4662 194.509 44.7329 194.551 45.0529 194.551C45.4689 194.551 45.8155 194.471 46.0929 194.311C46.3809 194.141 46.5249 193.901 46.5249 193.591C46.5249 193.367 46.4609 193.186 46.3329 193.047C46.2155 192.909 45.9915 192.786 45.6609 192.679C45.3302 192.562 44.8609 192.439 44.2529 192.311C43.6555 192.173 43.1595 191.997 42.7649 191.783C42.3702 191.57 42.0769 191.303 41.8849 190.983C41.6929 190.663 41.5969 190.29 41.5969 189.863C41.5969 189.447 41.7195 189.053 41.9649 188.679C42.2209 188.295 42.5942 187.981 43.0849 187.735C43.5862 187.49 44.2049 187.367 44.9409 187.367C45.5169 187.367 46.0182 187.442 46.4449 187.591C46.8715 187.73 47.2235 187.906 47.5009 188.119C47.7889 188.333 48.0075 188.551 48.1569 188.775C48.3062 188.989 48.3862 189.175 48.3969 189.335C48.4075 189.453 48.3755 189.549 48.3009 189.623C48.2262 189.687 48.1409 189.719 48.0449 189.719H46.8609C46.8075 189.719 46.7595 189.709 46.7169 189.687C46.6742 189.666 46.6315 189.639 46.5889 189.607C46.4715 189.501 46.3435 189.389 46.2049 189.271C46.0662 189.154 45.8955 189.053 45.6929 188.967C45.5009 188.871 45.2449 188.823 44.9249 188.823C44.5195 188.823 44.2102 188.914 43.9969 189.095C43.7835 189.266 43.6769 189.485 43.6769 189.751C43.6769 189.933 43.7249 190.093 43.8209 190.231C43.9275 190.359 44.1355 190.482 44.4449 190.599C44.7542 190.717 45.2235 190.839 45.8529 190.967C46.5675 191.095 47.1329 191.287 47.5489 191.543C47.9755 191.789 48.2742 192.077 48.4449 192.407C48.6262 192.727 48.7169 193.085 48.7169 193.479C48.7169 193.959 48.5729 194.391 48.2849 194.775C48.0075 195.159 47.5915 195.463 47.0369 195.687C46.4929 195.901 45.8155 196.007 45.0049 196.007ZM53.9685 196.007C53.2005 196.007 52.5232 195.863 51.9365 195.575C51.3605 195.287 50.9072 194.871 50.5765 194.327C50.2565 193.773 50.0805 193.106 50.0485 192.327C50.0378 192.167 50.0325 191.959 50.0325 191.703C50.0325 191.437 50.0378 191.218 50.0485 191.047C50.0805 190.269 50.2565 189.607 50.5765 189.063C50.9072 188.509 51.3605 188.087 51.9365 187.799C52.5232 187.511 53.2005 187.367 53.9685 187.367C54.6512 187.367 55.2325 187.463 55.7125 187.655C56.1925 187.847 56.5872 188.087 56.8965 188.375C57.2058 188.663 57.4352 188.967 57.5845 189.287C57.7445 189.597 57.8298 189.879 57.8405 190.135C57.8512 190.253 57.8138 190.349 57.7285 190.423C57.6538 190.487 57.5632 190.519 57.4565 190.519H56.0485C55.9418 190.519 55.8565 190.493 55.7925 190.439C55.7392 190.386 55.6858 190.306 55.6325 190.199C55.4725 189.773 55.2592 189.474 54.9925 189.303C54.7365 189.122 54.4058 189.031 54.0005 189.031C53.4672 189.031 53.0405 189.202 52.7205 189.543C52.4112 189.874 52.2458 190.402 52.2245 191.127C52.2032 191.533 52.2032 191.906 52.2245 192.247C52.2458 192.983 52.4112 193.517 52.7205 193.847C53.0405 194.178 53.4672 194.343 54.0005 194.343C54.4165 194.343 54.7525 194.258 55.0085 194.087C55.2645 193.906 55.4725 193.602 55.6325 193.175C55.6858 193.069 55.7392 192.989 55.7925 192.935C55.8565 192.882 55.9418 192.855 56.0485 192.855H57.4565C57.5632 192.855 57.6538 192.893 57.7285 192.967C57.8138 193.031 57.8512 193.122 57.8405 193.239C57.8298 193.431 57.7765 193.65 57.6805 193.895C57.5952 194.13 57.4512 194.375 57.2485 194.631C57.0565 194.877 56.8112 195.106 56.5125 195.319C56.2138 195.522 55.8512 195.687 55.4245 195.815C55.0085 195.943 54.5232 196.007 53.9685 196.007ZM61.9251 196.007C61.3705 196.007 60.8691 195.901 60.4211 195.687C59.9731 195.463 59.6158 195.17 59.3491 194.807C59.0931 194.434 58.9651 194.018 58.9651 193.559C58.9651 192.813 59.2638 192.221 59.8611 191.783C60.4691 191.335 61.2691 191.037 62.2611 190.887L64.4531 190.567V190.231C64.4531 189.783 64.3411 189.437 64.1171 189.191C63.8931 188.946 63.5091 188.823 62.9651 188.823C62.5811 188.823 62.2665 188.903 62.0211 189.063C61.7865 189.213 61.6105 189.415 61.4931 189.671C61.4078 189.81 61.2851 189.879 61.1251 189.879H59.8611C59.7438 189.879 59.6531 189.847 59.5891 189.783C59.5358 189.719 59.5091 189.634 59.5091 189.527C59.5198 189.357 59.5891 189.149 59.7171 188.903C59.8451 188.658 60.0478 188.423 60.3251 188.199C60.6025 187.965 60.9598 187.767 61.3971 187.607C61.8345 187.447 62.3625 187.367 62.9811 187.367C63.6531 187.367 64.2185 187.453 64.6771 187.623C65.1465 187.783 65.5198 188.002 65.7971 188.279C66.0745 188.557 66.2771 188.882 66.4051 189.255C66.5331 189.629 66.5971 190.023 66.5971 190.439V195.463C66.5971 195.57 66.5598 195.661 66.4851 195.735C66.4105 195.81 66.3198 195.847 66.2131 195.847H64.9171C64.7998 195.847 64.7038 195.81 64.6291 195.735C64.5651 195.661 64.5331 195.57 64.5331 195.463V194.839C64.3945 195.042 64.2078 195.234 63.9731 195.415C63.7385 195.586 63.4505 195.73 63.1091 195.847C62.7785 195.954 62.3838 196.007 61.9251 196.007ZM62.4691 194.487C62.8425 194.487 63.1785 194.407 63.4771 194.247C63.7865 194.087 64.0265 193.842 64.1971 193.511C64.3785 193.17 64.4691 192.743 64.4691 192.231V191.895L62.8691 192.151C62.2398 192.247 61.7705 192.402 61.4611 192.615C61.1518 192.829 60.9971 193.09 60.9971 193.399C60.9971 193.634 61.0665 193.837 61.2051 194.007C61.3545 194.167 61.5411 194.29 61.7651 194.375C61.9891 194.45 62.2238 194.487 62.4691 194.487ZM75.458 196.007C74.818 196.007 74.2687 195.933 73.81 195.783C73.362 195.634 72.994 195.447 72.706 195.223C72.418 194.999 72.2047 194.775 72.066 194.551C71.9273 194.327 71.8527 194.141 71.842 193.991C71.8313 193.874 71.8633 193.783 71.938 193.719C72.0233 193.645 72.114 193.607 72.21 193.607H73.474C73.5167 193.607 73.554 193.613 73.586 193.623C73.618 193.634 73.6607 193.666 73.714 193.719C73.8527 193.837 73.9967 193.959 74.146 194.087C74.306 194.215 74.4927 194.327 74.706 194.423C74.9193 194.509 75.186 194.551 75.506 194.551C75.922 194.551 76.2687 194.471 76.546 194.311C76.834 194.141 76.978 193.901 76.978 193.591C76.978 193.367 76.914 193.186 76.786 193.047C76.6687 192.909 76.4447 192.786 76.114 192.679C75.7833 192.562 75.314 192.439 74.706 192.311C74.1087 192.173 73.6127 191.997 73.218 191.783C72.8233 191.57 72.53 191.303 72.338 190.983C72.146 190.663 72.05 190.29 72.05 189.863C72.05 189.447 72.1727 189.053 72.418 188.679C72.674 188.295 73.0473 187.981 73.538 187.735C74.0393 187.49 74.658 187.367 75.394 187.367C75.97 187.367 76.4713 187.442 76.898 187.591C77.3247 187.73 77.6767 187.906 77.954 188.119C78.242 188.333 78.4607 188.551 78.61 188.775C78.7593 188.989 78.8393 189.175 78.85 189.335C78.8607 189.453 78.8287 189.549 78.754 189.623C78.6793 189.687 78.594 189.719 78.498 189.719H77.314C77.2607 189.719 77.2127 189.709 77.17 189.687C77.1273 189.666 77.0847 189.639 77.042 189.607C76.9247 189.501 76.7967 189.389 76.658 189.271C76.5193 189.154 76.3487 189.053 76.146 188.967C75.954 188.871 75.698 188.823 75.378 188.823C74.9727 188.823 74.6633 188.914 74.45 189.095C74.2367 189.266 74.13 189.485 74.13 189.751C74.13 189.933 74.178 190.093 74.274 190.231C74.3807 190.359 74.5887 190.482 74.898 190.599C75.2073 190.717 75.6767 190.839 76.306 190.967C77.0207 191.095 77.586 191.287 78.002 191.543C78.4287 191.789 78.7273 192.077 78.898 192.407C79.0793 192.727 79.17 193.085 79.17 193.479C79.17 193.959 79.026 194.391 78.738 194.775C78.4607 195.159 78.0447 195.463 77.49 195.687C76.946 195.901 76.2687 196.007 75.458 196.007ZM84.4056 196.007C83.2216 196.007 82.283 195.666 81.5896 194.983C80.8963 194.301 80.523 193.33 80.4696 192.071C80.459 191.965 80.4536 191.831 80.4536 191.671C80.4536 191.501 80.459 191.367 80.4696 191.271C80.5123 190.471 80.6936 189.778 81.0136 189.191C81.3443 188.605 81.7976 188.157 82.3736 187.847C82.9496 187.527 83.627 187.367 84.4056 187.367C85.2696 187.367 85.995 187.549 86.5816 187.911C87.1683 188.263 87.611 188.759 87.9096 189.399C88.2083 190.029 88.3576 190.759 88.3576 191.591V191.927C88.3576 192.034 88.3203 192.125 88.2456 192.199C88.171 192.274 88.075 192.311 87.9576 192.311H82.6456C82.6456 192.311 82.6456 192.327 82.6456 192.359C82.6456 192.391 82.6456 192.418 82.6456 192.439C82.6563 192.813 82.7256 193.159 82.8536 193.479C82.9923 193.789 83.1896 194.039 83.4456 194.231C83.7123 194.423 84.027 194.519 84.3896 194.519C84.6883 194.519 84.939 194.477 85.1416 194.391C85.3443 194.295 85.5096 194.189 85.6376 194.071C85.7656 193.954 85.8563 193.858 85.9096 193.783C86.0056 193.655 86.0803 193.581 86.1336 193.559C86.1976 193.527 86.2883 193.511 86.4056 193.511H87.7816C87.8883 193.511 87.9736 193.543 88.0376 193.607C88.1123 193.671 88.1443 193.751 88.1336 193.847C88.123 194.018 88.0323 194.226 87.8616 194.471C87.7016 194.717 87.467 194.957 87.1576 195.191C86.8483 195.426 86.459 195.623 85.9896 195.783C85.531 195.933 85.003 196.007 84.4056 196.007ZM82.6456 190.967H86.1816V190.919C86.1816 190.503 86.1123 190.141 85.9736 189.831C85.835 189.522 85.6323 189.277 85.3656 189.095C85.099 188.914 84.779 188.823 84.4056 188.823C84.0323 188.823 83.7123 188.914 83.4456 189.095C83.179 189.277 82.9763 189.522 82.8376 189.831C82.7096 190.141 82.6456 190.503 82.6456 190.919V190.967ZM93.816 199.367C93.0373 199.367 92.3973 199.266 91.896 199.063C91.3947 198.861 91 198.615 90.712 198.327C90.424 198.039 90.216 197.751 90.088 197.463C89.9707 197.186 89.9067 196.967 89.896 196.807C89.8853 196.701 89.9173 196.605 89.992 196.519C90.0773 196.445 90.1733 196.407 90.28 196.407H91.672C91.7787 196.407 91.864 196.429 91.928 196.471C91.992 196.525 92.0453 196.615 92.088 196.743C92.152 196.882 92.2373 197.031 92.344 197.191C92.4507 197.351 92.6107 197.485 92.824 197.591C93.048 197.709 93.352 197.767 93.736 197.767C94.1413 197.767 94.4827 197.709 94.76 197.591C95.0373 197.474 95.2453 197.277 95.384 196.999C95.5333 196.722 95.608 196.338 95.608 195.847V194.759C95.352 195.069 95.0213 195.319 94.616 195.511C94.2213 195.703 93.7307 195.799 93.144 195.799C92.568 195.799 92.072 195.709 91.656 195.527C91.24 195.335 90.8933 195.074 90.616 194.743C90.3387 194.402 90.1253 194.002 89.976 193.543C89.8373 193.085 89.7573 192.578 89.736 192.023C89.7253 191.735 89.7253 191.447 89.736 191.159C89.7573 190.626 89.8373 190.13 89.976 189.671C90.1147 189.213 90.3227 188.813 90.6 188.471C90.888 188.119 91.24 187.847 91.656 187.655C92.072 187.463 92.568 187.367 93.144 187.367C93.752 187.367 94.264 187.485 94.68 187.719C95.096 187.943 95.4373 188.226 95.704 188.567V187.927C95.704 187.81 95.7413 187.714 95.816 187.639C95.8907 187.565 95.9813 187.527 96.088 187.527H97.384C97.4907 187.527 97.5813 187.565 97.656 187.639C97.7307 187.714 97.768 187.81 97.768 187.927L97.784 195.639C97.784 196.407 97.64 197.069 97.352 197.623C97.064 198.178 96.6267 198.605 96.04 198.903C95.464 199.213 94.7227 199.367 93.816 199.367ZM93.736 194.103C94.1733 194.103 94.5253 194.007 94.792 193.815C95.0587 193.623 95.256 193.373 95.384 193.063C95.512 192.754 95.5867 192.439 95.608 192.119C95.6187 191.981 95.624 191.805 95.624 191.591C95.624 191.378 95.6187 191.207 95.608 191.079C95.5867 190.749 95.512 190.434 95.384 190.135C95.256 189.826 95.0587 189.575 94.792 189.383C94.5253 189.181 94.1733 189.079 93.736 189.079C93.2987 189.079 92.9467 189.181 92.68 189.383C92.4133 189.575 92.2213 189.831 92.104 190.151C91.9973 190.471 91.9333 190.823 91.912 191.207C91.8907 191.463 91.8907 191.725 91.912 191.991C91.9333 192.365 91.9973 192.717 92.104 193.047C92.2213 193.367 92.4133 193.623 92.68 193.815C92.9467 194.007 93.2987 194.103 93.736 194.103ZM103.003 196.007C102.353 196.007 101.787 195.863 101.307 195.575C100.838 195.277 100.475 194.861 100.219 194.327C99.9634 193.783 99.8354 193.143 99.8354 192.407V187.911C99.8354 187.805 99.8727 187.714 99.9474 187.639C100.022 187.565 100.113 187.527 100.219 187.527H101.627C101.745 187.527 101.835 187.565 101.899 187.639C101.974 187.714 102.011 187.805 102.011 187.911V192.311C102.011 193.634 102.593 194.295 103.755 194.295C104.31 194.295 104.747 194.119 105.067 193.767C105.398 193.415 105.563 192.93 105.563 192.311V187.911C105.563 187.805 105.601 187.714 105.675 187.639C105.75 187.565 105.841 187.527 105.947 187.527H107.355C107.462 187.527 107.553 187.565 107.627 187.639C107.702 187.714 107.739 187.805 107.739 187.911V195.463C107.739 195.57 107.702 195.661 107.627 195.735C107.553 195.81 107.462 195.847 107.355 195.847H106.059C105.942 195.847 105.846 195.81 105.771 195.735C105.707 195.661 105.675 195.57 105.675 195.463V194.807C105.387 195.181 105.03 195.474 104.603 195.687C104.177 195.901 103.643 196.007 103.003 196.007ZM110.237 195.847C110.13 195.847 110.04 195.81 109.965 195.735C109.89 195.661 109.853 195.57 109.853 195.463V187.927C109.853 187.81 109.89 187.714 109.965 187.639C110.04 187.565 110.13 187.527 110.237 187.527H111.533C111.64 187.527 111.73 187.565 111.805 187.639C111.89 187.714 111.933 187.81 111.933 187.927V188.583C112.178 188.242 112.493 187.981 112.877 187.799C113.272 187.618 113.725 187.527 114.237 187.527H114.893C115.01 187.527 115.101 187.565 115.165 187.639C115.24 187.714 115.277 187.805 115.277 187.911V189.063C115.277 189.17 115.24 189.261 115.165 189.335C115.101 189.41 115.01 189.447 114.893 189.447H113.645C113.133 189.447 112.733 189.591 112.445 189.879C112.168 190.167 112.029 190.562 112.029 191.063V195.463C112.029 195.57 111.992 195.661 111.917 195.735C111.842 195.81 111.746 195.847 111.629 195.847H110.237ZM118.816 196.007C118.261 196.007 117.76 195.901 117.312 195.687C116.864 195.463 116.506 195.17 116.24 194.807C115.984 194.434 115.856 194.018 115.856 193.559C115.856 192.813 116.154 192.221 116.752 191.783C117.36 191.335 118.16 191.037 119.152 190.887L121.344 190.567V190.231C121.344 189.783 121.232 189.437 121.008 189.191C120.784 188.946 120.4 188.823 119.856 188.823C119.472 188.823 119.157 188.903 118.912 189.063C118.677 189.213 118.501 189.415 118.384 189.671C118.298 189.81 118.176 189.879 118.016 189.879H116.752C116.634 189.879 116.544 189.847 116.48 189.783C116.426 189.719 116.4 189.634 116.4 189.527C116.41 189.357 116.48 189.149 116.608 188.903C116.736 188.658 116.938 188.423 117.216 188.199C117.493 187.965 117.85 187.767 118.288 187.607C118.725 187.447 119.253 187.367 119.872 187.367C120.544 187.367 121.109 187.453 121.568 187.623C122.037 187.783 122.41 188.002 122.688 188.279C122.965 188.557 123.168 188.882 123.296 189.255C123.424 189.629 123.488 190.023 123.488 190.439V195.463C123.488 195.57 123.45 195.661 123.376 195.735C123.301 195.81 123.21 195.847 123.104 195.847H121.808C121.69 195.847 121.594 195.81 121.52 195.735C121.456 195.661 121.424 195.57 121.424 195.463V194.839C121.285 195.042 121.098 195.234 120.864 195.415C120.629 195.586 120.341 195.73 120 195.847C119.669 195.954 119.274 196.007 118.816 196.007ZM119.36 194.487C119.733 194.487 120.069 194.407 120.368 194.247C120.677 194.087 120.917 193.842 121.088 193.511C121.269 193.17 121.36 192.743 121.36 192.231V191.895L119.76 192.151C119.13 192.247 118.661 192.402 118.352 192.615C118.042 192.829 117.888 193.09 117.888 193.399C117.888 193.634 117.957 193.837 118.096 194.007C118.245 194.167 118.432 194.29 118.656 194.375C118.88 194.45 119.114 194.487 119.36 194.487ZM125.924 195.847C125.818 195.847 125.727 195.81 125.652 195.735C125.578 195.661 125.54 195.57 125.54 195.463V187.911C125.54 187.805 125.578 187.714 125.652 187.639C125.727 187.565 125.818 187.527 125.924 187.527H127.236C127.343 187.527 127.434 187.565 127.508 187.639C127.583 187.714 127.62 187.805 127.62 187.911V188.567C127.898 188.226 128.25 187.943 128.676 187.719C129.114 187.485 129.652 187.367 130.292 187.367C130.943 187.367 131.508 187.517 131.988 187.815C132.468 188.103 132.836 188.514 133.092 189.047C133.359 189.581 133.492 190.221 133.492 190.967V195.463C133.492 195.57 133.455 195.661 133.38 195.735C133.306 195.81 133.215 195.847 133.108 195.847H131.7C131.594 195.847 131.503 195.81 131.428 195.735C131.354 195.661 131.316 195.57 131.316 195.463V191.063C131.316 190.445 131.162 189.959 130.852 189.607C130.554 189.255 130.116 189.079 129.54 189.079C128.986 189.079 128.543 189.255 128.212 189.607C127.882 189.959 127.716 190.445 127.716 191.063V195.463C127.716 195.57 127.679 195.661 127.604 195.735C127.53 195.81 127.439 195.847 127.332 195.847H125.924ZM139.109 199.367C138.81 199.357 138.543 199.303 138.309 199.207C138.085 199.111 137.919 198.999 137.813 198.871C137.717 198.743 137.722 198.637 137.829 198.551L138.101 198.311C138.197 198.226 138.277 198.199 138.341 198.231C138.415 198.274 138.506 198.327 138.613 198.391C138.73 198.466 138.895 198.503 139.109 198.503C139.269 198.503 139.407 198.45 139.525 198.343C139.642 198.247 139.701 198.119 139.701 197.959C139.701 197.81 139.642 197.687 139.525 197.591C139.418 197.495 139.279 197.447 139.109 197.447C138.959 197.447 138.831 197.463 138.725 197.495C138.618 197.538 138.522 197.565 138.437 197.575C138.351 197.597 138.266 197.565 138.181 197.479L137.893 197.191C137.829 197.117 137.807 197.037 137.829 196.951C137.85 196.877 137.882 196.791 137.925 196.695L138.261 195.927C137.343 195.789 136.613 195.41 136.069 194.791C135.525 194.162 135.237 193.341 135.205 192.327C135.194 192.167 135.189 191.959 135.189 191.703C135.189 191.437 135.194 191.218 135.205 191.047C135.237 190.269 135.413 189.607 135.733 189.063C136.063 188.509 136.517 188.087 137.093 187.799C137.679 187.511 138.357 187.367 139.125 187.367C139.807 187.367 140.389 187.463 140.869 187.655C141.349 187.847 141.743 188.087 142.053 188.375C142.362 188.663 142.591 188.967 142.741 189.287C142.901 189.597 142.986 189.879 142.997 190.135C143.007 190.253 142.97 190.349 142.885 190.423C142.81 190.487 142.719 190.519 142.613 190.519H141.205C141.098 190.519 141.013 190.493 140.949 190.439C140.895 190.386 140.842 190.306 140.789 190.199C140.629 189.773 140.415 189.474 140.149 189.303C139.893 189.122 139.562 189.031 139.157 189.031C138.623 189.031 138.197 189.202 137.877 189.543C137.567 189.874 137.402 190.402 137.381 191.127C137.359 191.533 137.359 191.906 137.381 192.247C137.402 192.983 137.567 193.517 137.877 193.847C138.197 194.178 138.623 194.343 139.157 194.343C139.573 194.343 139.909 194.258 140.165 194.087C140.421 193.906 140.629 193.602 140.789 193.175C140.842 193.069 140.895 192.989 140.949 192.935C141.013 192.882 141.098 192.855 141.205 192.855H142.613C142.719 192.855 142.81 192.893 142.885 192.967C142.97 193.031 143.007 193.122 142.997 193.239C142.986 193.474 142.906 193.751 142.757 194.071C142.607 194.381 142.383 194.685 142.085 194.983C141.786 195.271 141.397 195.517 140.917 195.719C140.437 195.911 139.855 196.007 139.173 196.007L138.837 196.695C138.901 196.663 138.986 196.637 139.093 196.615C139.21 196.594 139.311 196.583 139.397 196.583C139.77 196.583 140.069 196.711 140.293 196.967C140.527 197.223 140.645 197.549 140.645 197.943C140.645 198.349 140.511 198.69 140.245 198.967C139.978 199.245 139.599 199.378 139.109 199.367ZM147.081 196.007C146.527 196.007 146.025 195.901 145.577 195.687C145.129 195.463 144.772 195.17 144.505 194.807C144.249 194.434 144.121 194.018 144.121 193.559C144.121 192.813 144.42 192.221 145.017 191.783C145.625 191.335 146.425 191.037 147.417 190.887L149.609 190.567V190.231C149.609 189.783 149.497 189.437 149.273 189.191C149.049 188.946 148.665 188.823 148.121 188.823C147.737 188.823 147.423 188.903 147.177 189.063C146.943 189.213 146.767 189.415 146.649 189.671C146.564 189.81 146.441 189.879 146.281 189.879H145.017C144.9 189.879 144.809 189.847 144.745 189.783C144.692 189.719 144.665 189.634 144.665 189.527C144.676 189.357 144.745 189.149 144.873 188.903C145.001 188.658 145.204 188.423 145.481 188.199C145.759 187.965 146.116 187.767 146.553 187.607C146.991 187.447 147.519 187.367 148.137 187.367C148.809 187.367 149.375 187.453 149.833 187.623C150.303 187.783 150.676 188.002 150.953 188.279C151.231 188.557 151.433 188.882 151.561 189.255C151.689 189.629 151.753 190.023 151.753 190.439V195.463C151.753 195.57 151.716 195.661 151.641 195.735C151.567 195.81 151.476 195.847 151.369 195.847H150.073C149.956 195.847 149.86 195.81 149.785 195.735C149.721 195.661 149.689 195.57 149.689 195.463V194.839C149.551 195.042 149.364 195.234 149.129 195.415C148.895 195.586 148.607 195.73 148.265 195.847C147.935 195.954 147.54 196.007 147.081 196.007ZM147.625 194.487C147.999 194.487 148.335 194.407 148.633 194.247C148.943 194.087 149.183 193.842 149.353 193.511C149.535 193.17 149.625 192.743 149.625 192.231V191.895L148.025 192.151C147.396 192.247 146.927 192.402 146.617 192.615C146.308 192.829 146.153 193.09 146.153 193.399C146.153 193.634 146.223 193.837 146.361 194.007C146.511 194.167 146.697 194.29 146.921 194.375C147.145 194.45 147.38 194.487 147.625 194.487ZM157.846 195.847C157.74 195.847 157.649 195.81 157.574 195.735C157.5 195.661 157.462 195.57 157.462 195.463V187.911C157.462 187.805 157.5 187.714 157.574 187.639C157.649 187.565 157.74 187.527 157.846 187.527H159.158C159.265 187.527 159.356 187.565 159.43 187.639C159.505 187.714 159.542 187.805 159.542 187.911V188.567C159.82 188.226 160.172 187.943 160.598 187.719C161.036 187.485 161.574 187.367 162.214 187.367C162.865 187.367 163.43 187.517 163.91 187.815C164.39 188.103 164.758 188.514 165.014 189.047C165.281 189.581 165.414 190.221 165.414 190.967V195.463C165.414 195.57 165.377 195.661 165.302 195.735C165.228 195.81 165.137 195.847 165.03 195.847H163.622C163.516 195.847 163.425 195.81 163.35 195.735C163.276 195.661 163.238 195.57 163.238 195.463V191.063C163.238 190.445 163.084 189.959 162.774 189.607C162.476 189.255 162.038 189.079 161.462 189.079C160.908 189.079 160.465 189.255 160.134 189.607C159.804 189.959 159.638 190.445 159.638 191.063V195.463C159.638 195.57 159.601 195.661 159.526 195.735C159.452 195.81 159.361 195.847 159.254 195.847H157.846ZM169.863 196.007C169.308 196.007 168.807 195.901 168.359 195.687C167.911 195.463 167.553 195.17 167.287 194.807C167.031 194.434 166.903 194.018 166.903 193.559C166.903 192.813 167.201 192.221 167.799 191.783C168.407 191.335 169.207 191.037 170.199 190.887L172.391 190.567V190.231C172.391 189.783 172.279 189.437 172.055 189.191C171.831 188.946 171.447 188.823 170.903 188.823C170.519 188.823 170.204 188.903 169.959 189.063C169.724 189.213 169.548 189.415 169.431 189.671C169.345 189.81 169.223 189.879 169.063 189.879H167.799C167.681 189.879 167.591 189.847 167.527 189.783C167.473 189.719 167.447 189.634 167.447 189.527C167.457 189.357 167.527 189.149 167.655 188.903C167.783 188.658 167.985 188.423 168.263 188.199C168.54 187.965 168.897 187.767 169.335 187.607C169.772 187.447 170.3 187.367 170.919 187.367C171.591 187.367 172.156 187.453 172.615 187.623C173.084 187.783 173.457 188.002 173.735 188.279C174.012 188.557 174.215 188.882 174.343 189.255C174.471 189.629 174.535 190.023 174.535 190.439V195.463C174.535 195.57 174.497 195.661 174.423 195.735C174.348 195.81 174.257 195.847 174.151 195.847H172.855C172.737 195.847 172.641 195.81 172.567 195.735C172.503 195.661 172.471 195.57 172.471 195.463V194.839C172.332 195.042 172.145 195.234 171.911 195.415C171.676 195.586 171.388 195.73 171.047 195.847C170.716 195.954 170.321 196.007 169.863 196.007ZM170.407 194.487C170.78 194.487 171.116 194.407 171.415 194.247C171.724 194.087 171.964 193.842 172.135 193.511C172.316 193.17 172.407 192.743 172.407 192.231V191.895L170.807 192.151C170.177 192.247 169.708 192.402 169.399 192.615C169.089 192.829 168.935 193.09 168.935 193.399C168.935 193.634 169.004 193.837 169.143 194.007C169.292 194.167 169.479 194.29 169.703 194.375C169.927 194.45 170.161 194.487 170.407 194.487ZM180.644 195.847C180.537 195.847 180.446 195.81 180.372 195.735C180.297 195.661 180.26 195.57 180.26 195.463V184.871C180.26 184.765 180.297 184.674 180.372 184.599C180.446 184.525 180.537 184.487 180.644 184.487H182.068C182.185 184.487 182.276 184.525 182.34 184.599C182.414 184.674 182.452 184.765 182.452 184.871V188.519C182.74 188.178 183.092 187.901 183.508 187.687C183.924 187.474 184.436 187.367 185.044 187.367C185.694 187.367 186.26 187.517 186.74 187.815C187.23 188.103 187.609 188.514 187.876 189.047C188.142 189.581 188.276 190.221 188.276 190.967V195.463C188.276 195.57 188.238 195.661 188.164 195.735C188.089 195.81 187.998 195.847 187.892 195.847H186.452C186.345 195.847 186.254 195.81 186.18 195.735C186.105 195.661 186.068 195.57 186.068 195.463V191.063C186.068 190.445 185.913 189.959 185.604 189.607C185.305 189.255 184.868 189.079 184.292 189.079C183.737 189.079 183.289 189.255 182.948 189.607C182.617 189.959 182.452 190.445 182.452 191.063V195.463C182.452 195.57 182.414 195.661 182.34 195.735C182.276 195.81 182.185 195.847 182.068 195.847H180.644ZM193.986 196.007C193.133 196.007 192.413 195.858 191.826 195.559C191.25 195.261 190.807 194.839 190.498 194.295C190.199 193.751 190.029 193.117 189.986 192.391C189.975 192.199 189.97 191.965 189.97 191.687C189.97 191.41 189.975 191.175 189.986 190.983C190.029 190.247 190.205 189.613 190.514 189.079C190.834 188.535 191.282 188.114 191.858 187.815C192.445 187.517 193.154 187.367 193.986 187.367C194.818 187.367 195.522 187.517 196.098 187.815C196.685 188.114 197.133 188.535 197.442 189.079C197.762 189.613 197.943 190.247 197.986 190.983C197.997 191.175 198.002 191.41 198.002 191.687C198.002 191.965 197.997 192.199 197.986 192.391C197.943 193.117 197.767 193.751 197.458 194.295C197.159 194.839 196.717 195.261 196.13 195.559C195.554 195.858 194.839 196.007 193.986 196.007ZM193.986 194.423C194.551 194.423 194.989 194.247 195.298 193.895C195.607 193.533 195.778 193.005 195.81 192.311C195.821 192.151 195.826 191.943 195.826 191.687C195.826 191.431 195.821 191.223 195.81 191.063C195.778 190.381 195.607 189.858 195.298 189.495C194.989 189.133 194.551 188.951 193.986 188.951C193.421 188.951 192.983 189.133 192.674 189.495C192.365 189.858 192.194 190.381 192.162 191.063C192.151 191.223 192.146 191.431 192.146 191.687C192.146 191.943 192.151 192.151 192.162 192.311C192.194 193.005 192.365 193.533 192.674 193.895C192.983 194.247 193.421 194.423 193.986 194.423ZM200.159 195.847C200.052 195.847 199.961 195.81 199.887 195.735C199.812 195.661 199.775 195.57 199.775 195.463V187.927C199.775 187.81 199.812 187.714 199.887 187.639C199.961 187.565 200.052 187.527 200.159 187.527H201.455C201.561 187.527 201.652 187.565 201.727 187.639C201.812 187.714 201.855 187.81 201.855 187.927V188.583C202.1 188.242 202.415 187.981 202.799 187.799C203.193 187.618 203.647 187.527 204.159 187.527H204.815C204.932 187.527 205.023 187.565 205.087 187.639C205.161 187.714 205.199 187.805 205.199 187.911V189.063C205.199 189.17 205.161 189.261 205.087 189.335C205.023 189.41 204.932 189.447 204.815 189.447H203.567C203.055 189.447 202.655 189.591 202.367 189.879C202.089 190.167 201.951 190.562 201.951 191.063V195.463C201.951 195.57 201.913 195.661 201.839 195.735C201.764 195.81 201.668 195.847 201.551 195.847H200.159ZM208.738 196.007C208.183 196.007 207.682 195.901 207.234 195.687C206.786 195.463 206.428 195.17 206.162 194.807C205.906 194.434 205.778 194.018 205.778 193.559C205.778 192.813 206.076 192.221 206.674 191.783C207.282 191.335 208.082 191.037 209.074 190.887L211.266 190.567V190.231C211.266 189.783 211.154 189.437 210.93 189.191C210.706 188.946 210.322 188.823 209.778 188.823C209.394 188.823 209.079 188.903 208.834 189.063C208.599 189.213 208.423 189.415 208.306 189.671C208.22 189.81 208.098 189.879 207.938 189.879H206.674C206.556 189.879 206.466 189.847 206.402 189.783C206.348 189.719 206.322 189.634 206.322 189.527C206.332 189.357 206.402 189.149 206.53 188.903C206.658 188.658 206.86 188.423 207.138 188.199C207.415 187.965 207.772 187.767 208.21 187.607C208.647 187.447 209.175 187.367 209.794 187.367C210.466 187.367 211.031 187.453 211.49 187.623C211.959 187.783 212.332 188.002 212.61 188.279C212.887 188.557 213.09 188.882 213.218 189.255C213.346 189.629 213.41 190.023 213.41 190.439V195.463C213.41 195.57 213.372 195.661 213.298 195.735C213.223 195.81 213.132 195.847 213.026 195.847H211.73C211.612 195.847 211.516 195.81 211.442 195.735C211.378 195.661 211.346 195.57 211.346 195.463V194.839C211.207 195.042 211.02 195.234 210.786 195.415C210.551 195.586 210.263 195.73 209.922 195.847C209.591 195.954 209.196 196.007 208.738 196.007ZM209.282 194.487C209.655 194.487 209.991 194.407 210.29 194.247C210.599 194.087 210.839 193.842 211.01 193.511C211.191 193.17 211.282 192.743 211.282 192.231V191.895L209.682 192.151C209.052 192.247 208.583 192.402 208.274 192.615C207.964 192.829 207.81 193.09 207.81 193.399C207.81 193.634 207.879 193.837 208.018 194.007C208.167 194.167 208.354 194.29 208.578 194.375C208.802 194.45 209.036 194.487 209.282 194.487ZM222.207 196.007C221.652 196.007 221.161 195.917 220.735 195.735C220.319 195.543 219.972 195.277 219.695 194.935C219.417 194.594 219.204 194.194 219.055 193.735C218.905 193.266 218.82 192.754 218.799 192.199C218.788 192.007 218.783 191.837 218.783 191.687C218.783 191.527 218.788 191.351 218.799 191.159C218.82 190.626 218.9 190.13 219.039 189.671C219.188 189.213 219.401 188.813 219.679 188.471C219.967 188.119 220.319 187.847 220.735 187.655C221.161 187.463 221.652 187.367 222.207 187.367C222.783 187.367 223.268 187.469 223.663 187.671C224.068 187.863 224.404 188.114 224.671 188.423V184.871C224.671 184.765 224.703 184.674 224.767 184.599C224.841 184.525 224.937 184.487 225.055 184.487H226.415C226.521 184.487 226.612 184.525 226.687 184.599C226.761 184.674 226.799 184.765 226.799 184.871V195.463C226.799 195.57 226.761 195.661 226.687 195.735C226.612 195.81 226.521 195.847 226.415 195.847H225.151C225.033 195.847 224.937 195.81 224.863 195.735C224.799 195.661 224.767 195.57 224.767 195.463V194.871C224.5 195.202 224.159 195.474 223.743 195.687C223.337 195.901 222.825 196.007 222.207 196.007ZM222.799 194.295C223.247 194.295 223.604 194.194 223.871 193.991C224.137 193.789 224.335 193.533 224.463 193.223C224.591 192.903 224.66 192.578 224.671 192.247C224.681 192.055 224.687 191.853 224.687 191.639C224.687 191.415 224.681 191.207 224.671 191.015C224.66 190.695 224.585 190.391 224.447 190.103C224.308 189.805 224.105 189.559 223.839 189.367C223.572 189.175 223.225 189.079 222.799 189.079C222.351 189.079 221.993 189.181 221.727 189.383C221.471 189.575 221.284 189.831 221.167 190.151C221.049 190.471 220.98 190.823 220.959 191.207C220.948 191.527 220.948 191.847 220.959 192.167C220.98 192.551 221.049 192.903 221.167 193.223C221.284 193.543 221.471 193.805 221.727 194.007C221.993 194.199 222.351 194.295 222.799 194.295ZM232.515 196.007C231.331 196.007 230.392 195.666 229.699 194.983C229.006 194.301 228.632 193.33 228.579 192.071C228.568 191.965 228.563 191.831 228.563 191.671C228.563 191.501 228.568 191.367 228.579 191.271C228.622 190.471 228.803 189.778 229.123 189.191C229.454 188.605 229.907 188.157 230.483 187.847C231.059 187.527 231.736 187.367 232.515 187.367C233.379 187.367 234.104 187.549 234.691 187.911C235.278 188.263 235.72 188.759 236.019 189.399C236.318 190.029 236.467 190.759 236.467 191.591V191.927C236.467 192.034 236.43 192.125 236.355 192.199C236.28 192.274 236.184 192.311 236.067 192.311H230.755C230.755 192.311 230.755 192.327 230.755 192.359C230.755 192.391 230.755 192.418 230.755 192.439C230.766 192.813 230.835 193.159 230.963 193.479C231.102 193.789 231.299 194.039 231.555 194.231C231.822 194.423 232.136 194.519 232.499 194.519C232.798 194.519 233.048 194.477 233.251 194.391C233.454 194.295 233.619 194.189 233.747 194.071C233.875 193.954 233.966 193.858 234.019 193.783C234.115 193.655 234.19 193.581 234.243 193.559C234.307 193.527 234.398 193.511 234.515 193.511H235.891C235.998 193.511 236.083 193.543 236.147 193.607C236.222 193.671 236.254 193.751 236.243 193.847C236.232 194.018 236.142 194.226 235.971 194.471C235.811 194.717 235.576 194.957 235.267 195.191C234.958 195.426 234.568 195.623 234.099 195.783C233.64 195.933 233.112 196.007 232.515 196.007ZM230.755 190.967H234.291V190.919C234.291 190.503 234.222 190.141 234.083 189.831C233.944 189.522 233.742 189.277 233.475 189.095C233.208 188.914 232.888 188.823 232.515 188.823C232.142 188.823 231.822 188.914 231.555 189.095C231.288 189.277 231.086 189.522 230.947 189.831C230.819 190.141 230.755 190.503 230.755 190.919V190.967ZM100.456 219.847C100.349 219.847 100.258 219.81 100.184 219.735C100.109 219.661 100.072 219.57 100.072 219.463V211.911C100.072 211.805 100.109 211.714 100.184 211.639C100.258 211.565 100.349 211.527 100.456 211.527H101.784C101.901 211.527 101.992 211.565 102.056 211.639C102.13 211.714 102.168 211.805 102.168 211.911V219.463C102.168 219.57 102.13 219.661 102.056 219.735C101.992 219.81 101.901 219.847 101.784 219.847H100.456ZM100.392 210.151C100.274 210.151 100.178 210.119 100.104 210.055C100.04 209.981 100.008 209.885 100.008 209.767V208.615C100.008 208.509 100.04 208.418 100.104 208.343C100.178 208.269 100.274 208.231 100.392 208.231H101.848C101.965 208.231 102.061 208.269 102.136 208.343C102.21 208.418 102.248 208.509 102.248 208.615V209.767C102.248 209.885 102.21 209.981 102.136 210.055C102.061 210.119 101.965 210.151 101.848 210.151H100.392ZM105.003 219.847C104.896 219.847 104.805 219.81 104.731 219.735C104.656 219.661 104.618 219.57 104.618 219.463V211.911C104.618 211.805 104.656 211.714 104.731 211.639C104.805 211.565 104.896 211.527 105.003 211.527H106.315C106.421 211.527 106.512 211.565 106.587 211.639C106.661 211.714 106.699 211.805 106.699 211.911V212.567C106.976 212.226 107.328 211.943 107.755 211.719C108.192 211.485 108.731 211.367 109.371 211.367C110.021 211.367 110.587 211.517 111.067 211.815C111.547 212.103 111.915 212.514 112.171 213.047C112.437 213.581 112.571 214.221 112.571 214.967V219.463C112.571 219.57 112.533 219.661 112.459 219.735C112.384 219.81 112.293 219.847 112.187 219.847H110.779C110.672 219.847 110.581 219.81 110.507 219.735C110.432 219.661 110.395 219.57 110.395 219.463V215.063C110.395 214.445 110.24 213.959 109.931 213.607C109.632 213.255 109.195 213.079 108.619 213.079C108.064 213.079 107.621 213.255 107.291 213.607C106.96 213.959 106.795 214.445 106.795 215.063V219.463C106.795 219.57 106.757 219.661 106.683 219.735C106.608 219.81 106.517 219.847 106.411 219.847H105.003ZM117.297 219.847C117.126 219.847 116.998 219.81 116.913 219.735C116.838 219.65 116.774 219.554 116.721 219.447L113.729 212.023C113.708 211.97 113.697 211.922 113.697 211.879C113.697 211.783 113.729 211.703 113.793 211.639C113.868 211.565 113.953 211.527 114.049 211.527H115.345C115.473 211.527 115.569 211.565 115.633 211.639C115.697 211.703 115.74 211.767 115.761 211.831L117.889 217.447L120.017 211.831C120.038 211.767 120.081 211.703 120.145 211.639C120.209 211.565 120.305 211.527 120.433 211.527H121.745C121.83 211.527 121.905 211.565 121.969 211.639C122.044 211.703 122.081 211.783 122.081 211.879C122.081 211.922 122.076 211.97 122.065 212.023L119.057 219.447C119.014 219.554 118.95 219.65 118.865 219.735C118.78 219.81 118.652 219.847 118.481 219.847H117.297ZM126.828 220.007C125.644 220.007 124.705 219.666 124.012 218.983C123.318 218.301 122.945 217.33 122.892 216.071C122.881 215.965 122.876 215.831 122.876 215.671C122.876 215.501 122.881 215.367 122.892 215.271C122.934 214.471 123.116 213.778 123.436 213.191C123.766 212.605 124.22 212.157 124.796 211.847C125.372 211.527 126.049 211.367 126.828 211.367C127.692 211.367 128.417 211.549 129.004 211.911C129.59 212.263 130.033 212.759 130.332 213.399C130.63 214.029 130.78 214.759 130.78 215.591V215.927C130.78 216.034 130.742 216.125 130.668 216.199C130.593 216.274 130.497 216.311 130.38 216.311H125.068C125.068 216.311 125.068 216.327 125.068 216.359C125.068 216.391 125.068 216.418 125.068 216.439C125.078 216.813 125.148 217.159 125.276 217.479C125.414 217.789 125.612 218.039 125.868 218.231C126.134 218.423 126.449 218.519 126.812 218.519C127.11 218.519 127.361 218.477 127.564 218.391C127.766 218.295 127.932 218.189 128.06 218.071C128.188 217.954 128.278 217.858 128.332 217.783C128.428 217.655 128.502 217.581 128.556 217.559C128.62 217.527 128.71 217.511 128.828 217.511H130.204C130.31 217.511 130.396 217.543 130.46 217.607C130.534 217.671 130.566 217.751 130.556 217.847C130.545 218.018 130.454 218.226 130.284 218.471C130.124 218.717 129.889 218.957 129.58 219.191C129.27 219.426 128.881 219.623 128.412 219.783C127.953 219.933 127.425 220.007 126.828 220.007ZM125.068 214.967H128.604V214.919C128.604 214.503 128.534 214.141 128.396 213.831C128.257 213.522 128.054 213.277 127.788 213.095C127.521 212.914 127.201 212.823 126.828 212.823C126.454 212.823 126.134 212.914 125.868 213.095C125.601 213.277 125.398 213.522 125.26 213.831C125.132 214.141 125.068 214.503 125.068 214.919V214.967ZM135.63 220.007C134.99 220.007 134.441 219.933 133.982 219.783C133.534 219.634 133.166 219.447 132.878 219.223C132.59 218.999 132.377 218.775 132.238 218.551C132.099 218.327 132.025 218.141 132.014 217.991C132.003 217.874 132.035 217.783 132.11 217.719C132.195 217.645 132.286 217.607 132.382 217.607H133.646C133.689 217.607 133.726 217.613 133.758 217.623C133.79 217.634 133.833 217.666 133.886 217.719C134.025 217.837 134.169 217.959 134.318 218.087C134.478 218.215 134.665 218.327 134.878 218.423C135.091 218.509 135.358 218.551 135.678 218.551C136.094 218.551 136.441 218.471 136.718 218.311C137.006 218.141 137.15 217.901 137.15 217.591C137.15 217.367 137.086 217.186 136.958 217.047C136.841 216.909 136.617 216.786 136.286 216.679C135.955 216.562 135.486 216.439 134.878 216.311C134.281 216.173 133.785 215.997 133.39 215.783C132.995 215.57 132.702 215.303 132.51 214.983C132.318 214.663 132.222 214.29 132.222 213.863C132.222 213.447 132.345 213.053 132.59 212.679C132.846 212.295 133.219 211.981 133.71 211.735C134.211 211.49 134.83 211.367 135.566 211.367C136.142 211.367 136.643 211.442 137.07 211.591C137.497 211.73 137.849 211.906 138.126 212.119C138.414 212.333 138.633 212.551 138.782 212.775C138.931 212.989 139.011 213.175 139.022 213.335C139.033 213.453 139.001 213.549 138.926 213.623C138.851 213.687 138.766 213.719 138.67 213.719H137.486C137.433 213.719 137.385 213.709 137.342 213.687C137.299 213.666 137.257 213.639 137.214 213.607C137.097 213.501 136.969 213.389 136.83 213.271C136.691 213.154 136.521 213.053 136.318 212.967C136.126 212.871 135.87 212.823 135.55 212.823C135.145 212.823 134.835 212.914 134.622 213.095C134.409 213.266 134.302 213.485 134.302 213.751C134.302 213.933 134.35 214.093 134.446 214.231C134.553 214.359 134.761 214.482 135.07 214.599C135.379 214.717 135.849 214.839 136.478 214.967C137.193 215.095 137.758 215.287 138.174 215.543C138.601 215.789 138.899 216.077 139.07 216.407C139.251 216.727 139.342 217.085 139.342 217.479C139.342 217.959 139.198 218.391 138.91 218.775C138.633 219.159 138.217 219.463 137.662 219.687C137.118 219.901 136.441 220.007 135.63 220.007ZM144.722 219.847C144.082 219.847 143.544 219.735 143.106 219.511C142.669 219.287 142.344 218.957 142.13 218.519C141.917 218.071 141.81 217.517 141.81 216.855V213.223H140.546C140.44 213.223 140.349 213.186 140.274 213.111C140.2 213.037 140.162 212.946 140.162 212.839V211.911C140.162 211.805 140.2 211.714 140.274 211.639C140.349 211.565 140.44 211.527 140.546 211.527H141.81V208.871C141.81 208.765 141.842 208.674 141.906 208.599C141.981 208.525 142.077 208.487 142.194 208.487H143.49C143.597 208.487 143.688 208.525 143.762 208.599C143.837 208.674 143.874 208.765 143.874 208.871V211.527H145.874C145.981 211.527 146.072 211.565 146.146 211.639C146.221 211.714 146.258 211.805 146.258 211.911V212.839C146.258 212.946 146.221 213.037 146.146 213.111C146.072 213.186 145.981 213.223 145.874 213.223H143.874V216.695C143.874 217.133 143.949 217.474 144.098 217.719C144.258 217.965 144.53 218.087 144.914 218.087H146.018C146.125 218.087 146.216 218.125 146.29 218.199C146.365 218.274 146.402 218.365 146.402 218.471V219.463C146.402 219.57 146.365 219.661 146.29 219.735C146.216 219.81 146.125 219.847 146.018 219.847H144.722ZM148.206 219.847C148.099 219.847 148.008 219.81 147.934 219.735C147.859 219.661 147.822 219.57 147.822 219.463V211.911C147.822 211.805 147.859 211.714 147.934 211.639C148.008 211.565 148.099 211.527 148.206 211.527H149.534C149.651 211.527 149.742 211.565 149.806 211.639C149.88 211.714 149.918 211.805 149.918 211.911V219.463C149.918 219.57 149.88 219.661 149.806 219.735C149.742 219.81 149.651 219.847 149.534 219.847H148.206ZM148.142 210.151C148.024 210.151 147.928 210.119 147.854 210.055C147.79 209.981 147.758 209.885 147.758 209.767V208.615C147.758 208.509 147.79 208.418 147.854 208.343C147.928 208.269 148.024 208.231 148.142 208.231H149.598C149.715 208.231 149.811 208.269 149.886 208.343C149.96 208.418 149.998 208.509 149.998 208.615V209.767C149.998 209.885 149.96 209.981 149.886 210.055C149.811 210.119 149.715 210.151 149.598 210.151H148.142ZM152.753 219.847C152.646 219.847 152.555 219.81 152.481 219.735C152.406 219.661 152.368 219.57 152.368 219.463V211.927C152.368 211.81 152.406 211.714 152.481 211.639C152.555 211.565 152.646 211.527 152.753 211.527H154.049C154.155 211.527 154.246 211.565 154.321 211.639C154.406 211.714 154.449 211.81 154.449 211.927V212.583C154.694 212.242 155.009 211.981 155.393 211.799C155.787 211.618 156.241 211.527 156.753 211.527H157.409C157.526 211.527 157.617 211.565 157.681 211.639C157.755 211.714 157.793 211.805 157.793 211.911V213.063C157.793 213.17 157.755 213.261 157.681 213.335C157.617 213.41 157.526 213.447 157.409 213.447H156.161C155.649 213.447 155.249 213.591 154.961 213.879C154.683 214.167 154.545 214.562 154.545 215.063V219.463C154.545 219.57 154.507 219.661 154.433 219.735C154.358 219.81 154.262 219.847 154.145 219.847H152.753Z" fill="white"/>
<rect x="4" y="4" width="249" height="250" rx="16" stroke="url(#paint0_linear_2247_755)" stroke-width="8"/>
<defs>
<linearGradient id="paint0_linear_2247_755" x1="9.57399e-07" y1="129" x2="257" y2="129" gradientUnits="userSpaceOnUse">
<stop stop-color="#C512B9"/>
<stop offset="0.153829" stop-color="#FF0CF6"/>
<stop offset="0.391805" stop-color="#FF8AFA"/>
<stop offset="0.572773" stop-color="#7CEDFF"/>
<stop offset="0.840816" stop-color="#00DEFF"/>
<stop offset="1" stop-color="#00A6C3"/>
</linearGradient>
<clipPath id="clip0_2247_755">
<rect width="149" height="135" fill="white" transform="translate(54 34)"/>
</clipPath>
</defs>
</svg>
