<svg width="257" height="258" viewBox="0 0 257 258" fill="none" xmlns="http://www.w3.org/2000/svg">
<g clip-path="url(#clip0_2243_566)">
<path d="M67.6812 72.1547L56.4768 69.1071C59.4687 66.2913 60.7702 63.6388 60.3814 61.1494H67.6812V72.1547Z" fill="#9F616A"/>
<path d="M68.8697 157.827L65.2505 158.335L60.8907 118.377L53.9304 158.166L50.1956 158.335V107.88H73.2836L68.8697 157.827Z" fill="#00A6C3"/>
<path d="M52.0752 165.882C52.6432 165.898 53.2004 165.724 53.6579 165.388C54.1154 165.052 54.447 164.572 54.5997 164.026L54.8641 160.092L54.3312 157.302C52.9251 156.149 51.5037 156.173 50.0679 157.302L49.61 163.146C49.5832 163.489 49.6265 163.834 49.7373 164.16C49.8481 164.485 50.0241 164.785 50.2546 165.041C50.4851 165.297 50.7654 165.503 51.0783 165.648C51.3913 165.792 51.7304 165.872 52.0752 165.882V165.882Z" fill="#4E5366"/>
<path d="M67.0144 165.882C67.5824 165.898 68.1396 165.724 68.5971 165.388C69.0546 165.052 69.3862 164.572 69.5389 164.026L69.8033 160.092L69.2704 157.302C67.8643 156.149 66.4429 156.173 65.0071 157.302L64.5492 163.146C64.5224 163.489 64.5657 163.834 64.6765 164.16C64.7873 164.485 64.9633 164.785 65.1938 165.041C65.4243 165.297 65.7046 165.503 66.0175 165.648C66.3305 165.792 66.6696 165.872 67.0144 165.882V165.882Z" fill="#4E5366"/>
<path d="M66.1534 66.3985C69.7163 66.3985 72.6045 63.5179 72.6045 59.9646C72.6045 56.4113 69.7163 53.5308 66.1534 53.5308C62.5906 53.5308 59.7024 56.4113 59.7024 59.9646C59.7024 63.5179 62.5906 66.3985 66.1534 66.3985Z" fill="#9F616A"/>
<path d="M74.3021 108.726H49.6863C52.8768 93.9796 52.8678 82.1028 50.3265 72.4976C50.1646 71.8861 50.2348 71.2365 50.5236 70.6734C50.8124 70.1104 51.2996 69.6735 51.8915 69.4466L58.514 66.9062C60.5023 69.467 63.3079 70.5856 67.6813 68.938L71.1517 69.648C71.9967 69.8198 72.7506 70.2912 73.2739 70.9749C73.7971 71.6586 74.0542 72.5083 73.9975 73.3665C73.7421 77.1231 73.8428 80.9085 73.6231 84.1761C72.9426 94.2949 72.6487 102.183 74.3021 108.726Z" fill="#E6E6E6"/>
<path d="M62.7581 51.4988C62.7581 51.4988 66.4929 47.266 70.9068 51.3295L72.0952 51.6682L71.2463 52.3454C71.2463 52.3454 75.6602 54.3771 75.3207 58.6099C75.3207 58.6099 74.6416 58.4406 74.3021 58.6099C73.9626 58.7793 73.7928 60.6417 73.7928 60.6417C73.7928 60.6417 73.2835 59.2872 73.1137 59.1179C72.944 58.9486 70.5673 60.9803 66.6627 57.9327C66.6627 57.9327 65.4744 60.9803 64.1162 60.6417C62.7581 60.3031 60.8907 60.4724 60.0419 62.6734C60.0419 62.6734 55.4582 52.8533 62.7581 51.4988Z" fill="#2F2E41"/>
<path d="M75.4904 105.001L73.3111 107.914C73.0842 108.218 72.92 108.563 72.8281 108.93C72.7362 109.298 72.7185 109.68 72.7759 110.054C72.8334 110.428 72.9649 110.787 73.1628 111.11C73.3606 111.433 73.621 111.714 73.9286 111.935V111.935C74.3247 112.221 74.7876 112.401 75.2731 112.457C75.7586 112.514 76.2505 112.445 76.702 112.259C77.1535 112.072 77.5496 111.773 77.8524 111.39C78.1552 111.008 78.3548 110.554 78.432 110.073L79.0554 106.187L80.2438 89.4246L79.395 80.959L73.9625 82.9907L75.4904 90.2711V105.001Z" fill="#9F616A"/>
<path d="M73.2835 85.0226L79.9043 81.975L79.5648 79.5762C79.5648 77.5901 78.9627 75.6505 77.8376 74.0118C76.7124 72.3731 75.1168 71.112 73.2602 70.394L71.2463 69.6152L73.2835 85.0226Z" fill="#E6E6E6"/>
<path d="M49.177 104.324L51.3562 107.237C51.5832 107.541 51.7474 107.886 51.8393 108.253C51.9312 108.62 51.9489 109.002 51.8915 109.377C51.834 109.751 51.7025 110.11 51.5046 110.433C51.3067 110.756 51.0464 111.036 50.7388 111.258V111.258C50.3426 111.544 49.8798 111.723 49.3943 111.78C48.9088 111.837 48.4168 111.768 47.9653 111.581C47.5138 111.395 47.1178 111.096 46.815 110.713C46.5121 110.33 46.3126 109.877 46.2354 109.395L45.6119 105.509L44.4236 88.7473L45.2724 80.2817L50.7049 82.3135L49.177 89.5939V104.324Z" fill="#9F616A"/>
<path d="M51.3837 84.3454L44.7629 81.2978L45.1025 78.8989C45.1025 76.9129 45.7046 74.9732 46.8297 73.3346C47.9548 71.6959 49.5504 70.4348 51.4071 69.7168L53.4209 68.938L51.3837 84.3454Z" fill="#E6E6E6"/>
<path d="M224.715 149.129H111.423C110.95 149.128 110.496 148.941 110.161 148.607C109.827 148.273 109.638 147.82 109.638 147.348V98.2119C109.638 97.7399 109.827 97.2874 110.161 96.9536C110.496 96.6199 110.95 96.4322 111.423 96.4316H224.715C225.188 96.4322 225.642 96.6199 225.977 96.9536C226.311 97.2874 226.5 97.7399 226.5 98.2119V147.348C226.5 147.82 226.311 148.273 225.977 148.607C225.642 148.941 225.188 149.128 224.715 149.129V149.129ZM111.423 97.1438C111.139 97.1441 110.867 97.2567 110.666 97.457C110.465 97.6572 110.352 97.9287 110.352 98.2119V147.348C110.352 147.632 110.465 147.903 110.666 148.103C110.867 148.304 111.139 148.416 111.423 148.417H224.715C224.999 148.416 225.271 148.304 225.472 148.103C225.673 147.903 225.786 147.632 225.786 147.348V98.2119C225.786 97.9287 225.673 97.6572 225.472 97.457C225.271 97.2567 224.999 97.1441 224.715 97.1438H111.423Z" fill="#E6E6E6"/>
<path d="M116.064 102.485C115.78 102.485 115.507 102.597 115.307 102.798C115.106 102.998 114.993 103.27 114.993 103.553C114.993 103.836 115.106 104.108 115.307 104.308C115.507 104.509 115.78 104.621 116.064 104.621H131.058C131.343 104.621 131.615 104.509 131.816 104.308C132.017 104.108 132.13 103.836 132.13 103.553C132.13 103.27 132.017 102.998 131.816 102.798C131.615 102.597 131.343 102.485 131.058 102.485H116.064Z" fill="#E6E6E6"/>
<path d="M218.715 109.913V129.722H117.602V119.292C118.302 118.844 119.006 118.397 119.717 117.966C122.752 116.113 126.002 114.381 129.543 113.738C131.217 113.427 132.933 113.406 134.615 113.675C136.392 113.968 138.093 114.578 139.777 115.191C141.437 115.797 143.102 116.423 144.839 116.774C146.531 117.106 148.268 117.14 149.973 116.875C153.224 116.389 156.278 115.086 159.32 113.907C162.381 112.722 165.535 111.602 168.848 111.454C172.118 111.307 175.348 112.077 178.451 113.033C184.778 114.981 191.239 117.869 197.938 115.888C204.741 113.88 210.998 108.082 218.537 109.802C218.609 109.815 218.672 109.855 218.715 109.913V109.913Z" fill="#E6E6E6"/>
<path d="M218.715 110.258C218.683 110.319 218.631 110.367 218.568 110.394C218.505 110.422 218.435 110.427 218.369 110.41C217.47 110.205 216.55 110.11 215.629 110.128C208.213 110.258 202.511 116.212 195.26 117.103C188.723 117.905 182.57 114.734 176.423 113.077C173.229 112.216 169.936 111.759 166.649 112.345C163.388 112.924 160.327 114.254 157.253 115.435C154.294 116.572 151.218 117.629 148.014 117.682C144.491 117.741 141.318 116.292 138.05 115.189C136.351 114.614 134.607 114.16 132.807 114.115C131.052 114.094 129.305 114.364 127.639 114.913C124.167 116.014 121.038 117.976 117.992 119.926C117.94 119.963 117.876 119.98 117.813 119.974C117.747 119.966 117.685 119.937 117.636 119.893C117.587 119.848 117.553 119.79 117.538 119.725C117.523 119.661 117.527 119.594 117.552 119.532C117.576 119.47 117.618 119.418 117.673 119.381L117.813 119.292C118.511 118.844 119.214 118.397 119.924 117.966C122.953 116.113 126.195 114.381 129.729 113.738C131.4 113.427 133.112 113.406 134.791 113.675C136.564 113.968 138.261 114.578 139.942 115.191C141.599 115.797 143.26 116.423 144.993 116.774C146.682 117.106 148.416 117.14 150.116 116.875C153.361 116.389 156.409 115.086 159.444 113.907C162.499 112.722 165.646 111.602 168.952 111.454C172.215 111.307 175.439 112.077 178.536 113.033C184.849 114.981 191.296 117.869 197.981 115.888C204.77 113.88 211.014 108.082 218.538 109.802C218.609 109.815 218.672 109.855 218.715 109.913C218.748 109.965 218.765 110.025 218.765 110.086C218.765 110.147 218.748 110.207 218.715 110.258V110.258Z" fill="#00A6C3"/>
<path d="M131.534 115.406C132.35 115.406 133.011 114.746 133.011 113.932C133.011 113.118 132.35 112.458 131.534 112.458C130.717 112.458 130.056 113.118 130.056 113.932C130.056 114.746 130.717 115.406 131.534 115.406Z" fill="#00A6C3"/>
<path d="M168.897 113.511C169.713 113.511 170.375 112.852 170.375 112.038C170.375 111.224 169.713 110.564 168.897 110.564C168.081 110.564 167.419 111.224 167.419 112.038C167.419 112.852 168.081 113.511 168.897 113.511Z" fill="#00A6C3"/>
<path d="M214.493 111.616C215.309 111.616 215.971 110.957 215.971 110.143C215.971 109.329 215.309 108.669 214.493 108.669C213.677 108.669 213.015 109.329 213.015 110.143C213.015 110.957 213.677 111.616 214.493 111.616Z" fill="#00A6C3"/>
<path d="M130.702 138.091C130.418 138.091 130.145 138.203 129.944 138.404C129.743 138.604 129.631 138.876 129.631 139.159C129.631 139.442 129.743 139.714 129.944 139.914C130.145 140.115 130.418 140.227 130.702 140.227H145.696C145.98 140.227 146.253 140.115 146.454 139.914C146.654 139.714 146.767 139.442 146.767 139.159C146.767 138.876 146.654 138.604 146.454 138.404C146.253 138.203 145.98 138.091 145.696 138.091H130.702Z" fill="#E6E6E6"/>
<path d="M121.062 143.076C123.297 143.076 125.108 141.269 125.108 139.04C125.108 136.812 123.297 135.005 121.062 135.005C118.828 135.005 117.016 136.812 117.016 139.04C117.016 141.269 118.828 143.076 121.062 143.076Z" fill="#00A6C3"/>
<path d="M166.879 138.091C166.595 138.091 166.322 138.203 166.122 138.404C165.921 138.604 165.808 138.876 165.808 139.159C165.808 139.442 165.921 139.714 166.122 139.914C166.322 140.115 166.595 140.227 166.879 140.227H181.873C182.157 140.227 182.43 140.115 182.631 139.914C182.832 139.714 182.944 139.442 182.944 139.159C182.944 138.876 182.832 138.604 182.631 138.404C182.43 138.203 182.157 138.091 181.873 138.091H166.879Z" fill="#E6E6E6"/>
<path d="M157.24 143.071C159.474 143.071 161.286 141.264 161.286 139.035C161.286 136.807 159.474 135 157.24 135C155.005 135 153.193 136.807 153.193 139.035C153.193 141.264 155.005 143.071 157.24 143.071Z" fill="#00A6C3"/>
<path d="M203.056 138.091C202.772 138.091 202.5 138.203 202.299 138.404C202.098 138.604 201.985 138.876 201.985 139.159C201.985 139.442 202.098 139.714 202.299 139.914C202.5 140.115 202.772 140.227 203.056 140.227H218.051C218.335 140.227 218.607 140.115 218.808 139.914C219.009 139.714 219.122 139.442 219.122 139.159C219.122 138.876 219.009 138.604 218.808 138.404C218.607 138.203 218.335 138.091 218.051 138.091H203.056Z" fill="#E6E6E6"/>
<path d="M193.417 143.076C195.651 143.076 197.463 141.269 197.463 139.04C197.463 136.812 195.651 135.005 193.417 135.005C191.182 135.005 189.371 136.812 189.371 139.04C189.371 141.269 191.182 143.076 193.417 143.076Z" fill="#00A6C3"/>
<path d="M216.96 83.1646H161.067C159.977 83.1646 159.094 82.5373 159.093 81.7641V69.6481C159.094 68.8749 159.977 68.2476 161.067 68.2476H216.96C218.05 68.2476 218.933 68.8749 218.934 69.6481V81.7639C218.933 82.537 218.05 83.1637 216.96 83.1646ZM161.067 68.8073C160.413 68.8073 159.883 69.1838 159.883 69.6476V81.7634C159.883 82.2272 160.413 82.6033 161.067 82.6037H216.96C217.614 82.6037 218.144 82.2272 218.145 81.7634V69.6481C218.145 69.1842 217.614 68.8082 216.96 68.8078L161.067 68.8073Z" fill="#E6E6E6"/>
<path d="M173.705 75.1333C173.389 75.1337 173.087 75.2588 172.864 75.4813C172.641 75.7038 172.515 76.0055 172.515 76.3202V84.6283C172.515 84.9429 172.641 85.2446 172.864 85.4671C173.087 85.6896 173.389 85.8148 173.705 85.8151H216.308C216.624 85.8148 216.926 85.6896 217.149 85.4671C217.372 85.2446 217.498 84.9429 217.498 84.6283V76.3202C217.498 76.0055 217.372 75.7038 217.149 75.4813C216.926 75.2588 216.624 75.1337 216.308 75.1333H173.705Z" fill="#FF0CF6"/>
<path d="M179.655 83.2037C181.101 83.2037 182.273 82.0346 182.273 80.5926C182.273 79.1505 181.101 77.9814 179.655 77.9814C178.209 77.9814 177.037 79.1505 177.037 80.5926C177.037 82.0346 178.209 83.2037 179.655 83.2037Z" fill="white"/>
<path d="M191.587 79.4595C191.303 79.4595 191.03 79.572 190.829 79.7723C190.628 79.9727 190.516 80.2444 190.516 80.5277C190.516 80.811 190.628 81.0827 190.829 81.283C191.03 81.4833 191.303 81.5958 191.587 81.5958H206.581C206.865 81.5958 207.138 81.4833 207.339 81.283C207.539 81.0827 207.652 80.811 207.652 80.5277C207.652 80.2444 207.539 79.9727 207.339 79.7723C207.138 79.572 206.865 79.4595 206.581 79.4595H191.587Z" fill="white"/>
<path d="M175.071 54.9171H119.177C118.088 54.9171 117.205 54.2897 117.204 53.5166V41.4005C117.205 40.6274 118.088 40 119.177 40H175.071C176.16 40 177.043 40.6274 177.045 41.4005V53.5163C177.044 54.2895 176.16 54.9161 175.071 54.9171ZM119.177 40.5597C118.524 40.5597 117.994 40.9362 117.993 41.4V53.5159C117.993 53.9797 118.524 54.3557 119.177 54.3562H175.071C175.725 54.3562 176.254 53.9797 176.255 53.5159V41.4005C176.255 40.9367 175.725 40.5607 175.071 40.5602L119.177 40.5597Z" fill="#E6E6E6"/>
<path d="M131.815 46.8857C131.5 46.8861 131.197 47.0113 130.974 47.2338C130.751 47.4563 130.626 47.7579 130.625 48.0726V56.3807C130.626 56.6954 130.751 56.9971 130.974 57.2196C131.197 57.4421 131.5 57.5672 131.815 57.5676H174.419C174.734 57.5672 175.037 57.4421 175.26 57.2196C175.483 56.9971 175.608 56.6954 175.609 56.3807V48.0726C175.608 47.7579 175.483 47.4563 175.26 47.2338C175.037 47.0113 174.734 46.8861 174.419 46.8857H131.815Z" fill="#FF0CF6"/>
<path d="M137.766 54.9561C139.211 54.9561 140.384 53.7871 140.384 52.345C140.384 50.9029 139.211 49.7339 137.766 49.7339C136.32 49.7339 135.147 50.9029 135.147 52.345C135.147 53.7871 136.32 54.9561 137.766 54.9561Z" fill="white"/>
<path d="M149.697 51.2119C149.413 51.2119 149.141 51.3245 148.94 51.5248C148.739 51.7251 148.626 51.9968 148.626 52.2801C148.626 52.5634 148.739 52.8351 148.94 53.0354C149.141 53.2357 149.413 53.3483 149.697 53.3483H164.692C164.976 53.3483 165.248 53.2357 165.449 53.0354C165.65 52.8351 165.763 52.5634 165.763 52.2801C165.763 51.9968 165.65 51.7251 165.449 51.5248C165.248 51.3245 164.976 51.2119 164.692 51.2119H149.697Z" fill="white"/>
<path d="M87.488 63.216C87.3173 63.216 87.168 63.1627 87.04 63.056C86.912 62.928 86.848 62.7787 86.848 62.608C86.848 62.48 86.848 62.3627 86.848 62.256C86.848 62.128 86.848 62 86.848 61.872C86.976 61.1253 87.2213 60.4533 87.584 59.856C87.968 59.2373 88.4053 58.672 88.896 58.16C89.408 57.648 89.8987 57.168 90.368 56.72C90.8373 56.272 91.232 55.8347 91.552 55.408C91.8933 54.96 92.0747 54.512 92.096 54.064C92.1387 53.5947 92.0427 53.2 91.808 52.88C91.5947 52.56 91.2853 52.3147 90.88 52.144C90.496 51.9733 90.08 51.888 89.632 51.888C88.7787 51.888 88.1067 52.0907 87.616 52.496C87.1253 52.9013 86.7733 53.4987 86.56 54.288C86.4747 54.5227 86.3573 54.7147 86.208 54.864C86.0587 54.992 85.8453 55.056 85.568 55.056H81.664C81.4507 55.056 81.2693 54.9813 81.12 54.832C80.9707 54.6613 80.896 54.448 80.896 54.192C80.9173 53.3387 81.12 52.5067 81.504 51.696C81.9093 50.8853 82.4853 50.1493 83.232 49.488C84 48.8053 84.9493 48.272 86.08 47.888C87.2107 47.4827 88.512 47.28 89.984 47.28C91.584 47.28 92.9173 47.472 93.984 47.856C95.0507 48.24 95.8827 48.7413 96.48 49.36C97.0987 49.9787 97.536 50.64 97.792 51.344C98.048 52.0267 98.1547 52.6667 98.112 53.264C98.0907 54.032 97.9413 54.7253 97.664 55.344C97.3867 55.9627 97.0347 56.5387 96.608 57.072C96.2027 57.584 95.7653 58.0853 95.296 58.576C94.848 59.0453 94.432 59.5253 94.048 60.016C93.664 60.4853 93.376 60.9867 93.184 61.52C93.1413 61.6693 93.0987 61.8187 93.056 61.968C93.0133 62.096 92.9813 62.2347 92.96 62.384C92.8107 62.6613 92.672 62.8747 92.544 63.024C92.416 63.152 92.224 63.216 91.968 63.216H87.488ZM87.552 70C87.3173 70 87.1253 69.9253 86.976 69.776C86.8267 69.6267 86.752 69.4347 86.752 69.2V65.552C86.752 65.3387 86.8267 65.1573 86.976 65.008C87.1253 64.8373 87.3173 64.752 87.552 64.752H91.648C91.8827 64.752 92.0747 64.8373 92.224 65.008C92.3947 65.1573 92.48 65.3387 92.48 65.552V69.2C92.48 69.4347 92.3947 69.6267 92.224 69.776C92.0747 69.9253 91.8827 70 91.648 70H87.552Z" fill="white"/>
</g>
<rect x="22.2053" y="166" width="212.589" height="5.84703" rx="2.92351" fill="white"/>
<path d="M55.4741 194.847C55.3887 194.847 55.3087 194.815 55.2341 194.751C55.1701 194.687 55.1381 194.607 55.1381 194.511C55.1381 194.469 55.1487 194.421 55.1701 194.367L59.0261 184.047C59.0581 183.941 59.1167 183.85 59.2021 183.775C59.2981 183.69 59.4261 183.647 59.5861 183.647H61.3301C61.4901 183.647 61.6127 183.69 61.6981 183.775C61.7834 183.85 61.8474 183.941 61.8901 184.047L65.7461 194.367C65.7567 194.421 65.7621 194.469 65.7621 194.511C65.7621 194.607 65.7301 194.687 65.6661 194.751C65.6021 194.815 65.5274 194.847 65.4421 194.847H64.0501C63.9007 194.847 63.7887 194.815 63.7141 194.751C63.6501 194.677 63.6074 194.607 63.5861 194.543L62.8341 192.591H58.0821L57.3301 194.543C57.3087 194.607 57.2607 194.677 57.1861 194.751C57.1221 194.815 57.0154 194.847 56.8661 194.847H55.4741ZM58.6421 190.751H62.2741L60.4501 185.807L58.6421 190.751ZM70.5701 195.007C69.8021 195.007 69.1247 194.863 68.5381 194.575C67.9621 194.287 67.5087 193.871 67.1781 193.327C66.8581 192.773 66.6821 192.106 66.6501 191.327C66.6394 191.167 66.6341 190.959 66.6341 190.703C66.6341 190.437 66.6394 190.218 66.6501 190.047C66.6821 189.269 66.8581 188.607 67.1781 188.063C67.5087 187.509 67.9621 187.087 68.5381 186.799C69.1247 186.511 69.8021 186.367 70.5701 186.367C71.2527 186.367 71.8341 186.463 72.3141 186.655C72.7941 186.847 73.1887 187.087 73.4981 187.375C73.8074 187.663 74.0367 187.967 74.1861 188.287C74.3461 188.597 74.4314 188.879 74.4421 189.135C74.4527 189.253 74.4154 189.349 74.3301 189.423C74.2554 189.487 74.1647 189.519 74.0581 189.519H72.6501C72.5434 189.519 72.4581 189.493 72.3941 189.439C72.3407 189.386 72.2874 189.306 72.2341 189.199C72.0741 188.773 71.8607 188.474 71.5941 188.303C71.3381 188.122 71.0074 188.031 70.6021 188.031C70.0687 188.031 69.6421 188.202 69.3221 188.543C69.0127 188.874 68.8474 189.402 68.8261 190.127C68.8047 190.533 68.8047 190.906 68.8261 191.247C68.8474 191.983 69.0127 192.517 69.3221 192.847C69.6421 193.178 70.0687 193.343 70.6021 193.343C71.0181 193.343 71.3541 193.258 71.6101 193.087C71.8661 192.906 72.0741 192.602 72.2341 192.175C72.2874 192.069 72.3407 191.989 72.3941 191.935C72.4581 191.882 72.5434 191.855 72.6501 191.855H74.0581C74.1647 191.855 74.2554 191.893 74.3301 191.967C74.4154 192.031 74.4527 192.122 74.4421 192.239C74.4314 192.431 74.3781 192.65 74.2821 192.895C74.1967 193.13 74.0527 193.375 73.8501 193.631C73.6581 193.877 73.4127 194.106 73.1141 194.319C72.8154 194.522 72.4527 194.687 72.0261 194.815C71.6101 194.943 71.1247 195.007 70.5701 195.007ZM76.5107 194.847C76.404 194.847 76.3134 194.81 76.2387 194.735C76.164 194.661 76.1267 194.57 76.1267 194.463V183.871C76.1267 183.765 76.164 183.674 76.2387 183.599C76.3134 183.525 76.404 183.487 76.5107 183.487H77.9347C78.052 183.487 78.1427 183.525 78.2067 183.599C78.2814 183.674 78.3187 183.765 78.3187 183.871V187.519C78.6067 187.178 78.9587 186.901 79.3747 186.687C79.7907 186.474 80.3027 186.367 80.9107 186.367C81.5614 186.367 82.1267 186.517 82.6067 186.815C83.0974 187.103 83.476 187.514 83.7427 188.047C84.0094 188.581 84.1427 189.221 84.1427 189.967V194.463C84.1427 194.57 84.1054 194.661 84.0307 194.735C83.956 194.81 83.8654 194.847 83.7587 194.847H82.3187C82.212 194.847 82.1214 194.81 82.0467 194.735C81.972 194.661 81.9347 194.57 81.9347 194.463V190.063C81.9347 189.445 81.78 188.959 81.4707 188.607C81.172 188.255 80.7347 188.079 80.1587 188.079C79.604 188.079 79.156 188.255 78.8147 188.607C78.484 188.959 78.3187 189.445 78.3187 190.063V194.463C78.3187 194.57 78.2814 194.661 78.2067 194.735C78.1427 194.81 78.052 194.847 77.9347 194.847H76.5107ZM88.5892 195.007C88.0345 195.007 87.5332 194.901 87.0852 194.687C86.6372 194.463 86.2799 194.17 86.0132 193.807C85.7572 193.434 85.6292 193.018 85.6292 192.559C85.6292 191.813 85.9279 191.221 86.5252 190.783C87.1332 190.335 87.9332 190.037 88.9252 189.887L91.1172 189.567V189.231C91.1172 188.783 91.0052 188.437 90.7812 188.191C90.5572 187.946 90.1732 187.823 89.6292 187.823C89.2452 187.823 88.9305 187.903 88.6852 188.063C88.4505 188.213 88.2745 188.415 88.1572 188.671C88.0719 188.81 87.9492 188.879 87.7892 188.879H86.5252C86.4079 188.879 86.3172 188.847 86.2532 188.783C86.1999 188.719 86.1732 188.634 86.1732 188.527C86.1839 188.357 86.2532 188.149 86.3812 187.903C86.5092 187.658 86.7119 187.423 86.9892 187.199C87.2665 186.965 87.6239 186.767 88.0612 186.607C88.4985 186.447 89.0265 186.367 89.6452 186.367C90.3172 186.367 90.8825 186.453 91.3412 186.623C91.8105 186.783 92.1839 187.002 92.4612 187.279C92.7385 187.557 92.9412 187.882 93.0692 188.255C93.1972 188.629 93.2612 189.023 93.2612 189.439V194.463C93.2612 194.57 93.2239 194.661 93.1492 194.735C93.0745 194.81 92.9839 194.847 92.8772 194.847H91.5812C91.4639 194.847 91.3679 194.81 91.2932 194.735C91.2292 194.661 91.1972 194.57 91.1972 194.463V193.839C91.0585 194.042 90.8719 194.234 90.6372 194.415C90.4025 194.586 90.1145 194.73 89.7732 194.847C89.4425 194.954 89.0479 195.007 88.5892 195.007ZM89.1332 193.487C89.5065 193.487 89.8425 193.407 90.1412 193.247C90.4505 193.087 90.6905 192.842 90.8612 192.511C91.0425 192.17 91.1332 191.743 91.1332 191.231V190.895L89.5332 191.151C88.9039 191.247 88.4345 191.402 88.1252 191.615C87.8159 191.829 87.6612 192.09 87.6612 192.399C87.6612 192.634 87.7305 192.837 87.8692 193.007C88.0185 193.167 88.2052 193.29 88.4292 193.375C88.6532 193.45 88.8879 193.487 89.1332 193.487ZM104.906 197.887C104.799 197.887 104.709 197.85 104.634 197.775C104.559 197.701 104.522 197.61 104.522 197.503V193.871C104.266 194.213 103.935 194.49 103.53 194.703C103.125 194.906 102.634 195.007 102.058 195.007C101.514 195.007 101.029 194.911 100.602 194.719C100.186 194.527 99.8341 194.266 99.5461 193.935C99.2687 193.594 99.0554 193.199 98.9061 192.751C98.7567 192.293 98.6714 191.797 98.6501 191.263C98.6394 191.071 98.6341 190.879 98.6341 190.687C98.6341 190.495 98.6394 190.309 98.6501 190.127C98.6821 189.573 98.7674 189.066 98.9061 188.607C99.0554 188.149 99.2687 187.754 99.5461 187.423C99.8341 187.082 100.186 186.821 100.602 186.639C101.029 186.458 101.514 186.367 102.058 186.367C102.677 186.367 103.194 186.479 103.61 186.703C104.037 186.927 104.373 187.21 104.618 187.551V186.911C104.618 186.805 104.655 186.714 104.73 186.639C104.805 186.565 104.895 186.527 105.002 186.527H106.282C106.389 186.527 106.479 186.565 106.554 186.639C106.629 186.714 106.666 186.805 106.666 186.911V197.503C106.666 197.61 106.629 197.701 106.554 197.775C106.479 197.85 106.389 197.887 106.282 197.887H104.906ZM102.666 193.295C103.093 193.295 103.439 193.199 103.706 193.007C103.973 192.815 104.17 192.575 104.298 192.287C104.437 191.989 104.511 191.679 104.522 191.359C104.543 191.157 104.554 190.949 104.554 190.735C104.554 190.522 104.543 190.319 104.522 190.127C104.511 189.797 104.442 189.477 104.314 189.167C104.186 188.847 103.989 188.586 103.722 188.383C103.455 188.181 103.103 188.079 102.666 188.079C102.218 188.079 101.861 188.181 101.594 188.383C101.327 188.575 101.135 188.831 101.018 189.151C100.911 189.471 100.847 189.823 100.826 190.207C100.805 190.527 100.805 190.847 100.826 191.167C100.847 191.551 100.911 191.903 101.018 192.223C101.135 192.543 101.327 192.805 101.594 193.007C101.861 193.199 102.218 193.295 102.666 193.295ZM111.886 195.007C111.236 195.007 110.67 194.863 110.19 194.575C109.721 194.277 109.358 193.861 109.102 193.327C108.846 192.783 108.718 192.143 108.718 191.407V186.911C108.718 186.805 108.756 186.714 108.83 186.639C108.905 186.565 108.996 186.527 109.102 186.527H110.51C110.628 186.527 110.718 186.565 110.782 186.639C110.857 186.714 110.894 186.805 110.894 186.911V191.311C110.894 192.634 111.476 193.295 112.638 193.295C113.193 193.295 113.63 193.119 113.95 192.767C114.281 192.415 114.446 191.93 114.446 191.311V186.911C114.446 186.805 114.484 186.714 114.558 186.639C114.633 186.565 114.724 186.527 114.83 186.527H116.238C116.345 186.527 116.436 186.565 116.51 186.639C116.585 186.714 116.622 186.805 116.622 186.911V194.463C116.622 194.57 116.585 194.661 116.51 194.735C116.436 194.81 116.345 194.847 116.238 194.847H114.942C114.825 194.847 114.729 194.81 114.654 194.735C114.59 194.661 114.558 194.57 114.558 194.463V193.807C114.27 194.181 113.913 194.474 113.486 194.687C113.06 194.901 112.526 195.007 111.886 195.007ZM122.32 195.007C121.136 195.007 120.197 194.666 119.504 193.983C118.81 193.301 118.437 192.33 118.384 191.071C118.373 190.965 118.368 190.831 118.368 190.671C118.368 190.501 118.373 190.367 118.384 190.271C118.426 189.471 118.608 188.778 118.928 188.191C119.258 187.605 119.712 187.157 120.288 186.847C120.864 186.527 121.541 186.367 122.32 186.367C123.184 186.367 123.909 186.549 124.496 186.911C125.082 187.263 125.525 187.759 125.824 188.399C126.122 189.029 126.272 189.759 126.272 190.591V190.927C126.272 191.034 126.234 191.125 126.16 191.199C126.085 191.274 125.989 191.311 125.872 191.311H120.56C120.56 191.311 120.56 191.327 120.56 191.359C120.56 191.391 120.56 191.418 120.56 191.439C120.57 191.813 120.64 192.159 120.768 192.479C120.906 192.789 121.104 193.039 121.36 193.231C121.626 193.423 121.941 193.519 122.304 193.519C122.602 193.519 122.853 193.477 123.056 193.391C123.258 193.295 123.424 193.189 123.552 193.071C123.68 192.954 123.77 192.858 123.824 192.783C123.92 192.655 123.994 192.581 124.048 192.559C124.112 192.527 124.202 192.511 124.32 192.511H125.696C125.802 192.511 125.888 192.543 125.952 192.607C126.026 192.671 126.058 192.751 126.048 192.847C126.037 193.018 125.946 193.226 125.776 193.471C125.616 193.717 125.381 193.957 125.072 194.191C124.762 194.426 124.373 194.623 123.904 194.783C123.445 194.933 122.917 195.007 122.32 195.007ZM120.56 189.967H124.096V189.919C124.096 189.503 124.026 189.141 123.888 188.831C123.749 188.522 123.546 188.277 123.28 188.095C123.013 187.914 122.693 187.823 122.32 187.823C121.946 187.823 121.626 187.914 121.36 188.095C121.093 188.277 120.89 188.522 120.752 188.831C120.624 189.141 120.56 189.503 120.56 189.919V189.967ZM132.01 194.847C131.904 194.847 131.813 194.81 131.738 194.735C131.664 194.661 131.626 194.57 131.626 194.463V186.911C131.626 186.805 131.664 186.714 131.738 186.639C131.813 186.565 131.904 186.527 132.01 186.527H133.338C133.456 186.527 133.546 186.565 133.61 186.639C133.685 186.714 133.722 186.805 133.722 186.911V194.463C133.722 194.57 133.685 194.661 133.61 194.735C133.546 194.81 133.456 194.847 133.338 194.847H132.01ZM131.946 185.151C131.829 185.151 131.733 185.119 131.658 185.055C131.594 184.981 131.562 184.885 131.562 184.767V183.615C131.562 183.509 131.594 183.418 131.658 183.343C131.733 183.269 131.829 183.231 131.946 183.231H133.402C133.52 183.231 133.616 183.269 133.69 183.343C133.765 183.418 133.802 183.509 133.802 183.615V184.767C133.802 184.885 133.765 184.981 133.69 185.055C133.616 185.119 133.52 185.151 133.402 185.151H131.946ZM136.557 194.847C136.451 194.847 136.36 194.81 136.285 194.735C136.211 194.661 136.173 194.57 136.173 194.463V186.911C136.173 186.805 136.211 186.714 136.285 186.639C136.36 186.565 136.451 186.527 136.557 186.527H137.869C137.976 186.527 138.067 186.565 138.141 186.639C138.216 186.714 138.253 186.805 138.253 186.911V187.567C138.531 187.226 138.883 186.943 139.309 186.719C139.747 186.485 140.285 186.367 140.925 186.367C141.576 186.367 142.141 186.517 142.621 186.815C143.101 187.103 143.469 187.514 143.725 188.047C143.992 188.581 144.125 189.221 144.125 189.967V194.463C144.125 194.57 144.088 194.661 144.013 194.735C143.939 194.81 143.848 194.847 143.741 194.847H142.333C142.227 194.847 142.136 194.81 142.061 194.735C141.987 194.661 141.949 194.57 141.949 194.463V190.063C141.949 189.445 141.795 188.959 141.485 188.607C141.187 188.255 140.749 188.079 140.173 188.079C139.619 188.079 139.176 188.255 138.845 188.607C138.515 188.959 138.349 189.445 138.349 190.063V194.463C138.349 194.57 138.312 194.661 138.237 194.735C138.163 194.81 138.072 194.847 137.965 194.847H136.557ZM148.852 194.847C148.681 194.847 148.553 194.81 148.468 194.735C148.393 194.65 148.329 194.554 148.276 194.447L145.284 187.023C145.262 186.97 145.252 186.922 145.252 186.879C145.252 186.783 145.284 186.703 145.348 186.639C145.422 186.565 145.508 186.527 145.604 186.527H146.9C147.028 186.527 147.124 186.565 147.188 186.639C147.252 186.703 147.294 186.767 147.316 186.831L149.444 192.447L151.572 186.831C151.593 186.767 151.636 186.703 151.7 186.639C151.764 186.565 151.86 186.527 151.988 186.527H153.3C153.385 186.527 153.46 186.565 153.524 186.639C153.598 186.703 153.636 186.783 153.636 186.879C153.636 186.922 153.63 186.97 153.62 187.023L150.612 194.447C150.569 194.554 150.505 194.65 150.42 194.735C150.334 194.81 150.206 194.847 150.036 194.847H148.852ZM158.382 195.007C157.198 195.007 156.26 194.666 155.566 193.983C154.873 193.301 154.5 192.33 154.446 191.071C154.436 190.965 154.43 190.831 154.43 190.671C154.43 190.501 154.436 190.367 154.446 190.271C154.489 189.471 154.67 188.778 154.99 188.191C155.321 187.605 155.774 187.157 156.35 186.847C156.926 186.527 157.604 186.367 158.382 186.367C159.246 186.367 159.972 186.549 160.558 186.911C161.145 187.263 161.588 187.759 161.886 188.399C162.185 189.029 162.334 189.759 162.334 190.591V190.927C162.334 191.034 162.297 191.125 162.222 191.199C162.148 191.274 162.052 191.311 161.934 191.311H156.622C156.622 191.311 156.622 191.327 156.622 191.359C156.622 191.391 156.622 191.418 156.622 191.439C156.633 191.813 156.702 192.159 156.83 192.479C156.969 192.789 157.166 193.039 157.422 193.231C157.689 193.423 158.004 193.519 158.366 193.519C158.665 193.519 158.916 193.477 159.118 193.391C159.321 193.295 159.486 193.189 159.614 193.071C159.742 192.954 159.833 192.858 159.886 192.783C159.982 192.655 160.057 192.581 160.11 192.559C160.174 192.527 160.265 192.511 160.382 192.511H161.758C161.865 192.511 161.95 192.543 162.014 192.607C162.089 192.671 162.121 192.751 162.11 192.847C162.1 193.018 162.009 193.226 161.838 193.471C161.678 193.717 161.444 193.957 161.134 194.191C160.825 194.426 160.436 194.623 159.966 194.783C159.508 194.933 158.98 195.007 158.382 195.007ZM156.622 189.967H160.158V189.919C160.158 189.503 160.089 189.141 159.95 188.831C159.812 188.522 159.609 188.277 159.342 188.095C159.076 187.914 158.756 187.823 158.382 187.823C158.009 187.823 157.689 187.914 157.422 188.095C157.156 188.277 156.953 188.522 156.814 188.831C156.686 189.141 156.622 189.503 156.622 189.919V189.967ZM167.185 195.007C166.545 195.007 165.995 194.933 165.537 194.783C165.089 194.634 164.721 194.447 164.433 194.223C164.145 193.999 163.931 193.775 163.793 193.551C163.654 193.327 163.579 193.141 163.569 192.991C163.558 192.874 163.59 192.783 163.665 192.719C163.75 192.645 163.841 192.607 163.937 192.607H165.201C165.243 192.607 165.281 192.613 165.313 192.623C165.345 192.634 165.387 192.666 165.441 192.719C165.579 192.837 165.723 192.959 165.873 193.087C166.033 193.215 166.219 193.327 166.433 193.423C166.646 193.509 166.913 193.551 167.233 193.551C167.649 193.551 167.995 193.471 168.273 193.311C168.561 193.141 168.705 192.901 168.705 192.591C168.705 192.367 168.641 192.186 168.513 192.047C168.395 191.909 168.171 191.786 167.841 191.679C167.51 191.562 167.041 191.439 166.433 191.311C165.835 191.173 165.339 190.997 164.945 190.783C164.55 190.57 164.257 190.303 164.065 189.983C163.873 189.663 163.777 189.29 163.777 188.863C163.777 188.447 163.899 188.053 164.145 187.679C164.401 187.295 164.774 186.981 165.265 186.735C165.766 186.49 166.385 186.367 167.121 186.367C167.697 186.367 168.198 186.442 168.625 186.591C169.051 186.73 169.403 186.906 169.681 187.119C169.969 187.333 170.187 187.551 170.337 187.775C170.486 187.989 170.566 188.175 170.577 188.335C170.587 188.453 170.555 188.549 170.481 188.623C170.406 188.687 170.321 188.719 170.225 188.719H169.041C168.987 188.719 168.939 188.709 168.897 188.687C168.854 188.666 168.811 188.639 168.769 188.607C168.651 188.501 168.523 188.389 168.385 188.271C168.246 188.154 168.075 188.053 167.873 187.967C167.681 187.871 167.425 187.823 167.105 187.823C166.699 187.823 166.39 187.914 166.177 188.095C165.963 188.266 165.857 188.485 165.857 188.751C165.857 188.933 165.905 189.093 166.001 189.231C166.107 189.359 166.315 189.482 166.625 189.599C166.934 189.717 167.403 189.839 168.033 189.967C168.747 190.095 169.313 190.287 169.729 190.543C170.155 190.789 170.454 191.077 170.625 191.407C170.806 191.727 170.897 192.085 170.897 192.479C170.897 192.959 170.753 193.391 170.465 193.775C170.187 194.159 169.771 194.463 169.217 194.687C168.673 194.901 167.995 195.007 167.185 195.007ZM176.277 194.847C175.637 194.847 175.098 194.735 174.661 194.511C174.224 194.287 173.898 193.957 173.685 193.519C173.472 193.071 173.365 192.517 173.365 191.855V188.223H172.101C171.994 188.223 171.904 188.186 171.829 188.111C171.754 188.037 171.717 187.946 171.717 187.839V186.911C171.717 186.805 171.754 186.714 171.829 186.639C171.904 186.565 171.994 186.527 172.101 186.527H173.365V183.871C173.365 183.765 173.397 183.674 173.461 183.599C173.536 183.525 173.632 183.487 173.749 183.487H175.045C175.152 183.487 175.242 183.525 175.317 183.599C175.392 183.674 175.429 183.765 175.429 183.871V186.527H177.429C177.536 186.527 177.626 186.565 177.701 186.639C177.776 186.714 177.813 186.805 177.813 186.911V187.839C177.813 187.946 177.776 188.037 177.701 188.111C177.626 188.186 177.536 188.223 177.429 188.223H175.429V191.695C175.429 192.133 175.504 192.474 175.653 192.719C175.813 192.965 176.085 193.087 176.469 193.087H177.573C177.68 193.087 177.77 193.125 177.845 193.199C177.92 193.274 177.957 193.365 177.957 193.471V194.463C177.957 194.57 177.92 194.661 177.845 194.735C177.77 194.81 177.68 194.847 177.573 194.847H176.277ZM179.76 194.847C179.654 194.847 179.563 194.81 179.488 194.735C179.414 194.661 179.376 194.57 179.376 194.463V186.911C179.376 186.805 179.414 186.714 179.488 186.639C179.563 186.565 179.654 186.527 179.76 186.527H181.088C181.206 186.527 181.296 186.565 181.36 186.639C181.435 186.714 181.472 186.805 181.472 186.911V194.463C181.472 194.57 181.435 194.661 181.36 194.735C181.296 194.81 181.206 194.847 181.088 194.847H179.76ZM179.696 185.151C179.579 185.151 179.483 185.119 179.408 185.055C179.344 184.981 179.312 184.885 179.312 184.767V183.615C179.312 183.509 179.344 183.418 179.408 183.343C179.483 183.269 179.579 183.231 179.696 183.231H181.152C181.27 183.231 181.366 183.269 181.44 183.343C181.515 183.418 181.552 183.509 181.552 183.615V184.767C181.552 184.885 181.515 184.981 181.44 185.055C181.366 185.119 181.27 185.151 181.152 185.151H179.696ZM184.307 194.847C184.201 194.847 184.11 194.81 184.035 194.735C183.961 194.661 183.923 194.57 183.923 194.463V186.927C183.923 186.81 183.961 186.714 184.035 186.639C184.11 186.565 184.201 186.527 184.307 186.527H185.603C185.71 186.527 185.801 186.565 185.875 186.639C185.961 186.714 186.003 186.81 186.003 186.927V187.583C186.249 187.242 186.563 186.981 186.947 186.799C187.342 186.618 187.795 186.527 188.307 186.527H188.963C189.081 186.527 189.171 186.565 189.235 186.639C189.31 186.714 189.347 186.805 189.347 186.911V188.063C189.347 188.17 189.31 188.261 189.235 188.335C189.171 188.41 189.081 188.447 188.963 188.447H187.715C187.203 188.447 186.803 188.591 186.515 188.879C186.238 189.167 186.099 189.562 186.099 190.063V194.463C186.099 194.57 186.062 194.661 185.987 194.735C185.913 194.81 185.817 194.847 185.699 194.847H184.307ZM197.492 195.007C196.308 195.007 195.369 194.666 194.676 193.983C193.982 193.301 193.609 192.33 193.556 191.071C193.545 190.965 193.54 190.831 193.54 190.671C193.54 190.501 193.545 190.367 193.556 190.271C193.598 189.471 193.78 188.778 194.1 188.191C194.43 187.605 194.884 187.157 195.46 186.847C196.036 186.527 196.713 186.367 197.492 186.367C198.356 186.367 199.081 186.549 199.668 186.911C200.254 187.263 200.697 187.759 200.996 188.399C201.294 189.029 201.444 189.759 201.444 190.591V190.927C201.444 191.034 201.406 191.125 201.332 191.199C201.257 191.274 201.161 191.311 201.044 191.311H195.732C195.732 191.311 195.732 191.327 195.732 191.359C195.732 191.391 195.732 191.418 195.732 191.439C195.742 191.813 195.812 192.159 195.94 192.479C196.078 192.789 196.276 193.039 196.532 193.231C196.798 193.423 197.113 193.519 197.476 193.519C197.774 193.519 198.025 193.477 198.228 193.391C198.43 193.295 198.596 193.189 198.724 193.071C198.852 192.954 198.942 192.858 198.996 192.783C199.092 192.655 199.166 192.581 199.22 192.559C199.284 192.527 199.374 192.511 199.492 192.511H200.868C200.974 192.511 201.06 192.543 201.124 192.607C201.198 192.671 201.23 192.751 201.22 192.847C201.209 193.018 201.118 193.226 200.948 193.471C200.788 193.717 200.553 193.957 200.244 194.191C199.934 194.426 199.545 194.623 199.076 194.783C198.617 194.933 198.089 195.007 197.492 195.007ZM195.732 189.967H199.268V189.919C199.268 189.503 199.198 189.141 199.06 188.831C198.921 188.522 198.718 188.277 198.452 188.095C198.185 187.914 197.865 187.823 197.492 187.823C197.118 187.823 196.798 187.914 196.532 188.095C196.265 188.277 196.062 188.522 195.924 188.831C195.796 189.141 195.732 189.503 195.732 189.919V189.967ZM196.804 185.327C196.633 185.327 196.548 185.242 196.548 185.071C196.548 184.986 196.574 184.917 196.628 184.863L197.924 183.279C198.03 183.162 198.121 183.087 198.196 183.055C198.27 183.013 198.377 182.991 198.516 182.991H200.116C200.318 182.991 200.42 183.093 200.42 183.295C200.42 183.37 200.393 183.434 200.34 183.487L198.356 185.119C198.27 185.194 198.185 185.247 198.1 185.279C198.025 185.311 197.918 185.327 197.78 185.327H196.804ZM88.5154 219.007C87.7474 219.007 87.07 218.863 86.4834 218.575C85.9074 218.287 85.454 217.871 85.1234 217.327C84.8034 216.773 84.6274 216.106 84.5954 215.327C84.5847 215.167 84.5794 214.959 84.5794 214.703C84.5794 214.437 84.5847 214.218 84.5954 214.047C84.6274 213.269 84.8034 212.607 85.1234 212.063C85.454 211.509 85.9074 211.087 86.4834 210.799C87.07 210.511 87.7474 210.367 88.5154 210.367C89.198 210.367 89.7794 210.463 90.2594 210.655C90.7394 210.847 91.134 211.087 91.4434 211.375C91.7527 211.663 91.982 211.967 92.1314 212.287C92.2914 212.597 92.3767 212.879 92.3874 213.135C92.398 213.253 92.3607 213.349 92.2754 213.423C92.2007 213.487 92.11 213.519 92.0034 213.519H90.5954C90.4887 213.519 90.4034 213.493 90.3394 213.439C90.286 213.386 90.2327 213.306 90.1794 213.199C90.0194 212.773 89.806 212.474 89.5394 212.303C89.2834 212.122 88.9527 212.031 88.5474 212.031C88.014 212.031 87.5874 212.202 87.2674 212.543C86.958 212.874 86.7927 213.402 86.7714 214.127C86.75 214.533 86.75 214.906 86.7714 215.247C86.7927 215.983 86.958 216.517 87.2674 216.847C87.5874 217.178 88.014 217.343 88.5474 217.343C88.9634 217.343 89.2994 217.258 89.5554 217.087C89.8114 216.906 90.0194 216.602 90.1794 216.175C90.2327 216.069 90.286 215.989 90.3394 215.935C90.4034 215.882 90.4887 215.855 90.5954 215.855H92.0034C92.11 215.855 92.2007 215.893 92.2754 215.967C92.3607 216.031 92.398 216.122 92.3874 216.239C92.3767 216.431 92.3234 216.65 92.2274 216.895C92.142 217.13 91.998 217.375 91.7954 217.631C91.6034 217.877 91.358 218.106 91.0594 218.319C90.7607 218.522 90.398 218.687 89.9714 218.815C89.5554 218.943 89.07 219.007 88.5154 219.007ZM97.736 219.007C96.8827 219.007 96.1627 218.858 95.576 218.559C95 218.261 94.5573 217.839 94.248 217.295C93.9493 216.751 93.7787 216.117 93.736 215.391C93.7253 215.199 93.72 214.965 93.72 214.687C93.72 214.41 93.7253 214.175 93.736 213.983C93.7787 213.247 93.9547 212.613 94.264 212.079C94.584 211.535 95.032 211.114 95.608 210.815C96.1947 210.517 96.904 210.367 97.736 210.367C98.568 210.367 99.272 210.517 99.848 210.815C100.435 211.114 100.883 211.535 101.192 212.079C101.512 212.613 101.693 213.247 101.736 213.983C101.747 214.175 101.752 214.41 101.752 214.687C101.752 214.965 101.747 215.199 101.736 215.391C101.693 216.117 101.517 216.751 101.208 217.295C100.909 217.839 100.467 218.261 99.88 218.559C99.304 218.858 98.5893 219.007 97.736 219.007ZM97.736 217.423C98.3013 217.423 98.7387 217.247 99.048 216.895C99.3573 216.533 99.528 216.005 99.56 215.311C99.5707 215.151 99.576 214.943 99.576 214.687C99.576 214.431 99.5707 214.223 99.56 214.063C99.528 213.381 99.3573 212.858 99.048 212.495C98.7387 212.133 98.3013 211.951 97.736 211.951C97.1707 211.951 96.7333 212.133 96.424 212.495C96.1147 212.858 95.944 213.381 95.912 214.063C95.9013 214.223 95.896 214.431 95.896 214.687C95.896 214.943 95.9013 215.151 95.912 215.311C95.944 216.005 96.1147 216.533 96.424 216.895C96.7333 217.247 97.1707 217.423 97.736 217.423ZM103.909 218.847C103.802 218.847 103.711 218.81 103.637 218.735C103.562 218.661 103.525 218.57 103.525 218.463V210.911C103.525 210.805 103.562 210.714 103.637 210.639C103.711 210.565 103.802 210.527 103.909 210.527H105.157C105.263 210.527 105.354 210.565 105.429 210.639C105.503 210.714 105.541 210.805 105.541 210.911V211.455C105.765 211.157 106.063 210.906 106.437 210.703C106.821 210.49 107.274 210.378 107.797 210.367C109.013 210.346 109.861 210.821 110.341 211.791C110.586 211.365 110.938 211.023 111.397 210.767C111.866 210.501 112.383 210.367 112.949 210.367C113.503 210.367 114.005 210.495 114.453 210.751C114.911 211.007 115.269 211.397 115.525 211.919C115.791 212.431 115.925 213.082 115.925 213.871V218.463C115.925 218.57 115.887 218.661 115.813 218.735C115.738 218.81 115.647 218.847 115.541 218.847H114.229C114.122 218.847 114.031 218.81 113.957 218.735C113.882 218.661 113.845 218.57 113.845 218.463V213.999C113.845 213.519 113.775 213.141 113.637 212.863C113.498 212.575 113.311 212.373 113.077 212.255C112.842 212.138 112.581 212.079 112.293 212.079C112.058 212.079 111.823 212.138 111.589 212.255C111.354 212.373 111.162 212.575 111.013 212.863C110.863 213.141 110.789 213.519 110.789 213.999V218.463C110.789 218.57 110.751 218.661 110.677 218.735C110.602 218.81 110.511 218.847 110.405 218.847H109.093C108.975 218.847 108.879 218.81 108.805 218.735C108.741 218.661 108.709 218.57 108.709 218.463V213.999C108.709 213.519 108.634 213.141 108.485 212.863C108.335 212.575 108.143 212.373 107.909 212.255C107.674 212.138 107.423 212.079 107.157 212.079C106.911 212.079 106.671 212.143 106.437 212.271C106.202 212.389 106.01 212.586 105.861 212.863C105.711 213.141 105.637 213.519 105.637 213.999V218.463C105.637 218.57 105.599 218.661 105.525 218.735C105.45 218.81 105.359 218.847 105.253 218.847H103.909ZM118.362 221.887C118.256 221.887 118.165 221.85 118.09 221.775C118.016 221.701 117.978 221.61 117.978 221.503V210.911C117.978 210.805 118.016 210.714 118.09 210.639C118.165 210.565 118.256 210.527 118.362 210.527H119.626C119.744 210.527 119.834 210.565 119.898 210.639C119.973 210.714 120.01 210.805 120.01 210.911V211.551C120.266 211.21 120.602 210.927 121.018 210.703C121.434 210.479 121.952 210.367 122.57 210.367C123.136 210.367 123.626 210.458 124.042 210.639C124.458 210.821 124.805 211.082 125.082 211.423C125.36 211.754 125.573 212.149 125.722 212.607C125.872 213.066 125.957 213.573 125.978 214.127C125.989 214.309 125.994 214.495 125.994 214.687C125.994 214.879 125.989 215.071 125.978 215.263C125.968 215.797 125.888 216.293 125.738 216.751C125.589 217.199 125.37 217.594 125.082 217.935C124.805 218.266 124.458 218.527 124.042 218.719C123.626 218.911 123.136 219.007 122.57 219.007C121.994 219.007 121.504 218.906 121.098 218.703C120.693 218.49 120.362 218.213 120.106 217.871V221.503C120.106 221.61 120.069 221.701 119.994 221.775C119.93 221.85 119.84 221.887 119.722 221.887H118.362ZM121.978 217.295C122.437 217.295 122.794 217.199 123.05 217.007C123.306 216.805 123.488 216.543 123.594 216.223C123.712 215.903 123.781 215.551 123.802 215.167C123.824 214.847 123.824 214.527 123.802 214.207C123.781 213.823 123.712 213.471 123.594 213.151C123.488 212.831 123.306 212.575 123.05 212.383C122.794 212.181 122.437 212.079 121.978 212.079C121.541 212.079 121.184 212.181 120.906 212.383C120.64 212.586 120.442 212.847 120.314 213.167C120.197 213.477 120.128 213.797 120.106 214.127C120.096 214.319 120.09 214.522 120.09 214.735C120.09 214.949 120.096 215.157 120.106 215.359C120.117 215.679 120.192 215.989 120.33 216.287C120.469 216.575 120.672 216.815 120.938 217.007C121.205 217.199 121.552 217.295 121.978 217.295ZM128.19 218.847C128.084 218.847 127.993 218.81 127.918 218.735C127.844 218.661 127.806 218.57 127.806 218.463V207.871C127.806 207.765 127.844 207.674 127.918 207.599C127.993 207.525 128.084 207.487 128.19 207.487H129.518C129.625 207.487 129.716 207.525 129.79 207.599C129.865 207.674 129.902 207.765 129.902 207.871V218.463C129.902 218.57 129.865 218.661 129.79 218.735C129.716 218.81 129.625 218.847 129.518 218.847H128.19ZM132.753 218.847C132.646 218.847 132.555 218.81 132.481 218.735C132.406 218.661 132.368 218.57 132.368 218.463V210.911C132.368 210.805 132.406 210.714 132.481 210.639C132.555 210.565 132.646 210.527 132.753 210.527H134.081C134.198 210.527 134.289 210.565 134.353 210.639C134.427 210.714 134.465 210.805 134.465 210.911V218.463C134.465 218.57 134.427 218.661 134.353 218.735C134.289 218.81 134.198 218.847 134.081 218.847H132.753ZM132.689 209.151C132.571 209.151 132.475 209.119 132.401 209.055C132.337 208.981 132.305 208.885 132.305 208.767V207.615C132.305 207.509 132.337 207.418 132.401 207.343C132.475 207.269 132.571 207.231 132.689 207.231H134.145C134.262 207.231 134.358 207.269 134.433 207.343C134.507 207.418 134.545 207.509 134.545 207.615V208.767C134.545 208.885 134.507 208.981 134.433 209.055C134.358 209.119 134.262 209.151 134.145 209.151H132.689ZM140.234 219.007C139.466 219.007 138.789 218.863 138.202 218.575C137.626 218.287 137.173 217.871 136.842 217.327C136.522 216.773 136.346 216.106 136.314 215.327C136.303 215.167 136.298 214.959 136.298 214.703C136.298 214.437 136.303 214.218 136.314 214.047C136.346 213.269 136.522 212.607 136.842 212.063C137.173 211.509 137.626 211.087 138.202 210.799C138.789 210.511 139.466 210.367 140.234 210.367C140.917 210.367 141.498 210.463 141.978 210.655C142.458 210.847 142.853 211.087 143.162 211.375C143.471 211.663 143.701 211.967 143.85 212.287C144.01 212.597 144.095 212.879 144.106 213.135C144.117 213.253 144.079 213.349 143.994 213.423C143.919 213.487 143.829 213.519 143.722 213.519H142.314C142.207 213.519 142.122 213.493 142.058 213.439C142.005 213.386 141.951 213.306 141.898 213.199C141.738 212.773 141.525 212.474 141.258 212.303C141.002 212.122 140.671 212.031 140.266 212.031C139.733 212.031 139.306 212.202 138.986 212.543C138.677 212.874 138.511 213.402 138.49 214.127C138.469 214.533 138.469 214.906 138.49 215.247C138.511 215.983 138.677 216.517 138.986 216.847C139.306 217.178 139.733 217.343 140.266 217.343C140.682 217.343 141.018 217.258 141.274 217.087C141.53 216.906 141.738 216.602 141.898 216.175C141.951 216.069 142.005 215.989 142.058 215.935C142.122 215.882 142.207 215.855 142.314 215.855H143.722C143.829 215.855 143.919 215.893 143.994 215.967C144.079 216.031 144.117 216.122 144.106 216.239C144.095 216.431 144.042 216.65 143.946 216.895C143.861 217.13 143.717 217.375 143.514 217.631C143.322 217.877 143.077 218.106 142.778 218.319C142.479 218.522 142.117 218.687 141.69 218.815C141.274 218.943 140.789 219.007 140.234 219.007ZM148.191 219.007C147.636 219.007 147.135 218.901 146.687 218.687C146.239 218.463 145.881 218.17 145.615 217.807C145.359 217.434 145.231 217.018 145.231 216.559C145.231 215.813 145.529 215.221 146.127 214.783C146.735 214.335 147.535 214.037 148.527 213.887L150.719 213.567V213.231C150.719 212.783 150.607 212.437 150.383 212.191C150.159 211.946 149.775 211.823 149.231 211.823C148.847 211.823 148.532 211.903 148.287 212.063C148.052 212.213 147.876 212.415 147.759 212.671C147.673 212.81 147.551 212.879 147.391 212.879H146.127C146.009 212.879 145.919 212.847 145.855 212.783C145.801 212.719 145.775 212.634 145.775 212.527C145.785 212.357 145.855 212.149 145.983 211.903C146.111 211.658 146.313 211.423 146.591 211.199C146.868 210.965 147.225 210.767 147.663 210.607C148.1 210.447 148.628 210.367 149.247 210.367C149.919 210.367 150.484 210.453 150.943 210.623C151.412 210.783 151.785 211.002 152.063 211.279C152.34 211.557 152.543 211.882 152.671 212.255C152.799 212.629 152.863 213.023 152.863 213.439V218.463C152.863 218.57 152.825 218.661 152.751 218.735C152.676 218.81 152.585 218.847 152.479 218.847H151.183C151.065 218.847 150.969 218.81 150.895 218.735C150.831 218.661 150.799 218.57 150.799 218.463V217.839C150.66 218.042 150.473 218.234 150.239 218.415C150.004 218.586 149.716 218.73 149.375 218.847C149.044 218.954 148.649 219.007 148.191 219.007ZM148.735 217.487C149.108 217.487 149.444 217.407 149.743 217.247C150.052 217.087 150.292 216.842 150.463 216.511C150.644 216.17 150.735 215.743 150.735 215.231V214.895L149.135 215.151C148.505 215.247 148.036 215.402 147.727 215.615C147.417 215.829 147.263 216.09 147.263 216.399C147.263 216.634 147.332 216.837 147.471 217.007C147.62 217.167 147.807 217.29 148.031 217.375C148.255 217.45 148.489 217.487 148.735 217.487ZM158.003 219.007C157.449 219.007 156.958 218.917 156.531 218.735C156.115 218.543 155.769 218.277 155.491 217.935C155.214 217.594 155.001 217.194 154.851 216.735C154.702 216.266 154.617 215.754 154.595 215.199C154.585 215.007 154.579 214.837 154.579 214.687C154.579 214.527 154.585 214.351 154.595 214.159C154.617 213.626 154.697 213.13 154.835 212.671C154.985 212.213 155.198 211.813 155.475 211.471C155.763 211.119 156.115 210.847 156.531 210.655C156.958 210.463 157.449 210.367 158.003 210.367C158.579 210.367 159.065 210.469 159.459 210.671C159.865 210.863 160.201 211.114 160.467 211.423V207.871C160.467 207.765 160.499 207.674 160.563 207.599C160.638 207.525 160.734 207.487 160.851 207.487H162.211C162.318 207.487 162.409 207.525 162.483 207.599C162.558 207.674 162.595 207.765 162.595 207.871V218.463C162.595 218.57 162.558 218.661 162.483 218.735C162.409 218.81 162.318 218.847 162.211 218.847H160.947C160.83 218.847 160.734 218.81 160.659 218.735C160.595 218.661 160.563 218.57 160.563 218.463V217.871C160.297 218.202 159.955 218.474 159.539 218.687C159.134 218.901 158.622 219.007 158.003 219.007ZM158.595 217.295C159.043 217.295 159.401 217.194 159.667 216.991C159.934 216.789 160.131 216.533 160.259 216.223C160.387 215.903 160.457 215.578 160.467 215.247C160.478 215.055 160.483 214.853 160.483 214.639C160.483 214.415 160.478 214.207 160.467 214.015C160.457 213.695 160.382 213.391 160.243 213.103C160.105 212.805 159.902 212.559 159.635 212.367C159.369 212.175 159.022 212.079 158.595 212.079C158.147 212.079 157.79 212.181 157.523 212.383C157.267 212.575 157.081 212.831 156.963 213.151C156.846 213.471 156.777 213.823 156.755 214.207C156.745 214.527 156.745 214.847 156.755 215.167C156.777 215.551 156.846 215.903 156.963 216.223C157.081 216.543 157.267 216.805 157.523 217.007C157.79 217.199 158.147 217.295 158.595 217.295ZM168.408 219.007C167.555 219.007 166.835 218.858 166.248 218.559C165.672 218.261 165.229 217.839 164.92 217.295C164.621 216.751 164.451 216.117 164.408 215.391C164.397 215.199 164.392 214.965 164.392 214.687C164.392 214.41 164.397 214.175 164.408 213.983C164.451 213.247 164.627 212.613 164.936 212.079C165.256 211.535 165.704 211.114 166.28 210.815C166.867 210.517 167.576 210.367 168.408 210.367C169.24 210.367 169.944 210.517 170.52 210.815C171.107 211.114 171.555 211.535 171.864 212.079C172.184 212.613 172.365 213.247 172.408 213.983C172.419 214.175 172.424 214.41 172.424 214.687C172.424 214.965 172.419 215.199 172.408 215.391C172.365 216.117 172.189 216.751 171.88 217.295C171.581 217.839 171.139 218.261 170.552 218.559C169.976 218.858 169.261 219.007 168.408 219.007ZM168.408 217.423C168.973 217.423 169.411 217.247 169.72 216.895C170.029 216.533 170.2 216.005 170.232 215.311C170.243 215.151 170.248 214.943 170.248 214.687C170.248 214.431 170.243 214.223 170.232 214.063C170.2 213.381 170.029 212.858 169.72 212.495C169.411 212.133 168.973 211.951 168.408 211.951C167.843 211.951 167.405 212.133 167.096 212.495C166.787 212.858 166.616 213.381 166.584 214.063C166.573 214.223 166.568 214.431 166.568 214.687C166.568 214.943 166.573 215.151 166.584 215.311C166.616 216.005 166.787 216.533 167.096 216.895C167.405 217.247 167.843 217.423 168.408 217.423Z" fill="white"/>
<rect x="4" y="4" width="249" height="250" rx="16" stroke="url(#paint0_linear_2243_566)" stroke-width="8"/>
<defs>
<linearGradient id="paint0_linear_2243_566" x1="9.57399e-07" y1="129" x2="257" y2="129" gradientUnits="userSpaceOnUse">
<stop stop-color="#C512B9"/>
<stop offset="0.153829" stop-color="#FF0CF6"/>
<stop offset="0.391805" stop-color="#FF8AFA"/>
<stop offset="0.572773" stop-color="#7CEDFF"/>
<stop offset="0.840816" stop-color="#00DEFF"/>
<stop offset="1" stop-color="#00A6C3"/>
</linearGradient>
<clipPath id="clip0_2243_566">
<rect width="196" height="128" fill="white" transform="translate(30.5 40)"/>
</clipPath>
</defs>
</svg>
