<svg width="258" height="258" viewBox="0 0 258 258" fill="none" xmlns="http://www.w3.org/2000/svg">
<g clip-path="url(#clip0_2247_718)">
<path d="M157.722 124.463H98.5316C93.5564 124.463 89.5088 120.438 89.5088 115.491V56.6282C89.5088 51.6805 93.5564 47.6553 98.5316 47.6553H157.722C162.697 47.6553 166.744 51.6805 166.744 56.6282V115.491C166.744 120.438 162.697 124.463 157.722 124.463V124.463ZM98.5316 49.0909C94.3458 49.0909 90.9524 52.4655 90.9524 56.6282V115.491C90.9524 119.653 94.3458 123.028 98.5316 123.028H139.993C153.97 123.028 165.301 111.76 165.301 97.8598V56.6282C165.301 52.4655 161.907 49.0909 157.722 49.0909H98.5316V49.0909Z" fill="#F2F2F2"/>
<path d="M104.913 55.2119C102.111 55.2119 99.8325 57.4783 99.8325 60.2642V68.1721C99.8325 70.958 102.111 73.2243 104.913 73.2243H112.865C115.666 73.2243 117.945 70.958 117.945 68.1721V60.2642C117.945 57.4783 115.666 55.2119 112.865 55.2119H104.913Z" fill="#F2F2F2"/>
<path d="M104.913 77.4736C102.111 77.4736 99.8325 79.74 99.8325 82.5259V90.4338C99.8325 93.2197 102.111 95.486 104.913 95.486H112.865C115.666 95.486 117.945 93.2197 117.945 90.4338V82.5259C117.945 79.74 115.666 77.4736 112.865 77.4736H104.913V77.4736Z" fill="#F2F2F2"/>
<path d="M104.913 99.7354C102.111 99.7354 99.8325 102.002 99.8325 104.788V112.695C99.8325 115.481 102.111 117.748 104.913 117.748H112.865C115.666 117.748 117.945 115.481 117.945 112.695V104.788C117.945 102.002 115.666 99.7354 112.865 99.7354H104.913Z" fill="#F2F2F2"/>
<path d="M110.186 35.9185C106.656 35.9185 103.784 38.7741 103.784 42.2844V52.2486C103.784 55.7589 106.656 58.6146 110.186 58.6146H120.205C123.735 58.6146 126.607 55.7589 126.607 52.2486V42.2844C126.607 38.7741 123.735 35.9185 120.205 35.9185H110.186V35.9185Z" fill="#FF0CF6"/>
<path d="M143.173 63.7642C139.643 63.7642 136.772 66.6198 136.772 70.1302V80.0943C136.772 83.6046 139.643 86.4603 143.173 86.4603H153.193C156.723 86.4603 159.594 83.6046 159.594 80.0943V70.1302C159.594 66.6198 156.723 63.7642 153.193 63.7642H143.173Z" fill="#FF0CF6"/>
<path d="M128.832 164.058L126.797 164.041L125.896 156.051L128.9 156.076L128.832 164.058Z" fill="#A0616A"/>
<path d="M122.312 167.276C122.308 167.775 122.711 168.185 123.214 168.189L127.261 168.223L127.97 166.795L128.23 168.23L129.757 168.244L129.372 163.124L128.84 163.089L126.673 162.941L125.974 162.894L125.962 164.343L122.711 166.535C122.463 166.703 122.315 166.979 122.312 167.276H122.312Z" fill="#2F2E41"/>
<path d="M139.188 164.058L137.153 164.041L136.252 156.051L139.256 156.076L139.188 164.058Z" fill="#A0616A"/>
<path d="M132.668 167.276C132.664 167.775 133.068 168.185 133.571 168.189L137.618 168.223L138.326 166.795L138.587 168.23L140.114 168.244L139.728 163.124L139.197 163.089L137.03 162.941L136.331 162.894L136.318 164.343L133.067 166.535C132.82 166.703 132.671 166.979 132.668 167.276V167.276Z" fill="#2F2E41"/>
<path d="M120.844 99.46L129.095 99.7191L136.912 101.446C136.912 101.446 136.13 102.397 138.736 104.988C138.736 104.988 142.21 111.034 139.778 116.907L138.736 140.4C138.736 140.4 141.775 156.961 139.453 162.231L136.384 162.422L131.192 140.591L128.661 117.08L127.445 140.227C127.445 140.227 132.097 156.115 129.159 162.422L125.836 162.231L120.15 140.227C120.15 140.227 117.718 114.834 118.065 109.997C118.413 105.16 120.844 99.46 120.844 99.46H120.844Z" fill="#00A6C3"/>
<path d="M148.553 62.3375C147.425 62.6279 146.747 63.7727 147.039 64.8944C147.173 65.4083 147.488 65.8265 147.898 66.1027L147.898 66.1056L147.738 69.9598L150.704 71.3247L150.94 65.3937L150.92 65.3944C151.177 64.9387 151.266 64.3883 151.124 63.8426C150.832 62.7209 149.68 62.0471 148.553 62.3375V62.3375Z" fill="#A0616A"/>
<path d="M131.976 76.0931C131.353 75.4789 130.992 74.6462 130.978 73.7408C130.96 72.5261 131.572 71.4236 132.616 70.7917C133.817 70.064 135.32 70.1376 136.444 70.9791L145.757 77.9525L147.416 67.9067L150.979 69.0473L150.129 82.1283C150.07 83.0433 149.55 83.8494 148.738 84.2845C147.926 84.7196 146.964 84.7087 146.162 84.2553L132.703 76.6403C132.433 76.4873 132.189 76.3029 131.976 76.093V76.0931Z" fill="#7B7E8C"/>
<path d="M117.776 56.7186C118.371 57.7146 118.042 59.002 117.04 59.5941C116.581 59.8654 116.061 59.9415 115.575 59.8508L115.573 59.8529L112.958 62.702L109.885 61.5947L113.916 57.2171L113.93 57.232C114.07 56.7284 114.397 56.2753 114.884 55.9873C115.886 55.3952 117.18 55.7227 117.776 56.7186V56.7186Z" fill="#A0616A"/>
<path d="M118.905 77.973L103.956 73.9573C103.066 73.7181 102.374 73.0517 102.106 72.1745C101.838 71.2972 102.039 70.3607 102.645 69.6693L111.302 59.7847L114.64 61.4692L108.706 69.7651L120.257 71.3337C121.651 71.523 122.77 72.5228 123.108 73.8808C123.401 75.0601 123.055 76.2716 122.183 77.1215C121.532 77.755 120.686 78.0932 119.809 78.0931C119.509 78.0931 119.205 78.0537 118.905 77.973H118.905Z" fill="#7B7E8C"/>
<path d="M140.218 102.916L119.313 103.87C118.739 103.003 118.894 101.699 119.698 100.066C122.734 93.902 120.429 82.2406 118.878 76.1685C118.442 74.4648 119.611 72.7711 121.369 72.5961L123.341 72.4001L125.162 66.8691H131.544L134.191 69.8767L138.683 72.5909C137.866 80.9674 134.381 92.7958 139.345 98.7276C140.431 100.025 140.739 101.428 140.218 102.916V102.916Z" fill="#7B7E8C"/>
<path d="M127.541 66.9971C130.974 66.9971 133.757 64.2298 133.757 60.8162C133.757 57.4025 130.974 54.6353 127.541 54.6353C124.109 54.6353 121.326 57.4025 121.326 60.8162C121.326 64.2298 124.109 66.9971 127.541 66.9971Z" fill="#A0616A"/>
<path d="M134.575 56.86C135.439 53.7246 126.015 51.0361 124.183 53.5609C123.928 53.202 122.987 52.9839 122.555 53.094C122.124 53.2042 121.76 53.4794 121.406 53.7459C120.919 54.1181 120.414 54.5035 120.115 55.0387C119.814 55.5716 119.767 56.2984 120.173 56.7608C120.494 57.1286 121.058 59.083 121.541 59.1799C121.877 59.2482 122.161 59.3032 122.404 59.3429C122.621 59.0279 123.175 58.6323 123.135 58.2513C123.463 58.4672 123.343 58.8469 123.277 59.2349C123.057 60.5272 118.1 70.5306 120.939 67.5828C121.22 67.748 121.568 67.9022 121.969 68.0431C122.648 67.0234 123.207 65.821 123.574 64.5635L123.577 64.5867C123.703 65.6795 124.506 66.5762 125.569 66.8823C129.831 68.1102 133.278 66.3085 134.464 63.0593C134.03 62.1827 133.841 62.278 133.88 62.2519C134.422 61.8886 135.167 62.1262 135.4 62.7335C135.468 62.9125 135.531 63.0654 135.585 63.1804C136.203 60.9825 136.938 61.2997 134.575 56.86H134.575Z" fill="#2F2E41"/>
<path d="M131.634 54.585L131.199 52.3716C131.163 52.1855 131.128 51.9837 131.212 51.8136C131.321 51.5952 131.599 51.5047 131.842 51.5395C132.084 51.5743 132.265 51.7945 132.507 51.8369C133.345 51.9844 134.454 51.1606 134.754 53.2446C134.88 54.1135 136.274 54.2052 136.739 54.951C137.205 55.6967 137.262 56.773 136.627 57.3823C136.119 57.8688 135.304 57.925 134.645 57.6764C133.986 57.4279 133.457 56.9258 132.995 56.3964C132.533 55.867 132.114 55.2941 131.581 54.8353" fill="#2F2E41"/>
<path d="M134.907 57.9517C133.206 57.7154 132.047 57.1003 131.461 56.1236C130.695 54.8451 131.208 53.4373 131.23 53.3779L131.59 53.5108C131.585 53.5238 131.119 54.8125 131.793 55.9316C132.316 56.8021 133.382 57.3547 134.96 57.574L134.907 57.9517V57.9517Z" fill="#00A6C3"/>
<path d="M195.305 163.855C195.922 163.894 196.262 163.132 195.796 162.688L195.75 162.504C195.756 162.49 195.762 162.475 195.768 162.46C196.392 160.982 198.505 160.992 199.123 162.473C199.672 163.787 200.371 165.104 200.543 166.494C200.62 167.107 200.585 167.732 200.448 168.334C201.734 165.541 202.411 162.491 202.411 159.423C202.411 158.652 202.368 157.882 202.282 157.113C202.21 156.484 202.112 155.859 201.985 155.24C201.297 151.893 199.806 148.704 197.657 146.041C196.624 145.48 195.762 144.602 195.241 143.549C195.054 143.17 194.908 142.761 194.838 142.345C194.956 142.361 195.282 140.58 195.193 140.47C195.357 140.223 195.65 140.1 195.829 139.859C196.719 138.659 197.946 138.868 198.586 140.499C199.954 141.185 199.967 142.324 199.128 143.419C198.594 144.115 198.52 145.058 198.052 145.804C198.1 145.865 198.15 145.925 198.199 145.986C199.082 147.113 199.847 148.325 200.491 149.598C200.309 148.183 200.578 146.479 201.036 145.38C201.558 144.128 202.536 143.074 203.397 141.992C204.432 140.692 206.553 141.259 206.736 142.907C206.737 142.923 206.739 142.939 206.741 142.955C206.613 143.027 206.487 143.103 206.365 143.183C205.667 143.643 205.908 144.719 206.735 144.846L206.754 144.849C206.708 145.307 206.629 145.762 206.513 146.208C207.618 150.458 205.233 152.005 201.827 152.075C201.752 152.113 201.678 152.151 201.603 152.188C201.948 153.154 202.224 154.145 202.428 155.15C202.611 156.037 202.739 156.935 202.81 157.836C202.899 158.973 202.891 160.115 202.794 161.25L202.8 161.21C203.045 159.96 203.727 158.792 204.718 157.983C206.195 156.777 208.28 156.333 209.873 155.364C210.639 154.897 211.621 155.5 211.488 156.384L211.481 156.427C211.244 156.522 211.013 156.634 210.789 156.758C210.661 156.83 210.536 156.906 210.413 156.987C209.715 157.446 209.956 158.523 210.784 158.65L210.803 158.652C210.816 158.654 210.828 158.656 210.841 158.658C210.434 159.619 209.868 160.51 209.158 161.279C208.467 164.988 205.5 165.34 202.326 164.26H202.324C201.977 165.763 201.47 167.232 200.818 168.631H195.44C195.421 168.572 195.403 168.51 195.386 168.451C195.883 168.482 196.384 168.453 196.874 168.363C196.475 167.876 196.076 167.385 195.677 166.898C195.667 166.888 195.66 166.879 195.652 166.869C195.449 166.62 195.245 166.373 195.043 166.124L195.043 166.123C195.03 165.358 195.122 164.596 195.305 163.856L195.305 163.855V163.855Z" fill="#F2F2F2"/>
<path d="M46.5 168.647C46.5 168.843 46.6582 169 46.8552 169H211.103C211.3 169 211.458 168.843 211.458 168.647C211.458 168.451 211.3 168.294 211.103 168.294H46.8552C46.6582 168.294 46.5 168.451 46.5 168.647Z" fill="#CCCCCC"/>
<path d="M147.243 38.7211C143.958 37.7567 142.901 36.7595 142.901 35.2067C142.901 33.4249 144.363 32.1826 146.809 32.1826C149.385 32.1826 150.34 33.572 150.427 35.6153H153.625C153.524 32.8038 152.004 30.2211 148.98 29.3874V25.8076H144.638V29.3384C141.831 30.0249 139.573 32.0845 139.573 35.2393C139.573 39.0153 142.337 40.8951 146.375 41.9903C149.993 42.9711 150.716 44.4095 150.716 45.9297C150.716 47.0576 150.007 48.8557 146.809 48.8557C143.828 48.8557 142.655 47.3518 142.496 45.423H139.312C139.486 49.0028 141.86 51.0134 144.638 51.6836V55.2307H148.98V51.7163C151.802 51.1115 154.045 49.2643 154.045 45.9134C154.045 41.2711 150.528 39.6855 147.243 38.7211Z" fill="#00DEFF"/>
</g>
<rect x="22.7053" y="167" width="212.589" height="5.84703" rx="2.92351" fill="white"/>
<path d="M56.4164 196.887C56.267 196.887 56.1444 196.839 56.0484 196.743C55.963 196.658 55.8937 196.583 55.8404 196.519L55.2484 195.719C54.747 195.911 54.1764 196.007 53.5364 196.007C52.587 196.007 51.7657 195.853 51.0724 195.543C50.3897 195.223 49.8564 194.738 49.4724 194.087C49.099 193.426 48.891 192.605 48.8484 191.623C48.8377 191.165 48.8324 190.711 48.8324 190.263C48.8324 189.815 48.8377 189.357 48.8484 188.887C48.891 187.917 49.1044 187.106 49.4884 186.455C49.883 185.805 50.427 185.314 51.1204 184.983C51.8137 184.653 52.619 184.487 53.5364 184.487C54.4537 184.487 55.259 184.653 55.9524 184.983C56.6457 185.314 57.1897 185.805 57.5844 186.455C57.979 187.106 58.187 187.917 58.2084 188.887C58.2297 189.357 58.2404 189.815 58.2404 190.263C58.2404 190.711 58.2297 191.165 58.2084 191.623C58.155 193.021 57.771 194.082 57.0564 194.807L58.1764 196.391C58.187 196.402 58.1977 196.418 58.2084 196.439C58.219 196.471 58.2244 196.509 58.2244 196.551C58.235 196.647 58.203 196.727 58.1284 196.791C58.0644 196.855 57.9897 196.887 57.9044 196.887H56.4164ZM53.5364 194.167C54.219 194.167 54.779 193.965 55.2164 193.559C55.6537 193.143 55.8884 192.471 55.9204 191.543C55.9417 191.074 55.9524 190.642 55.9524 190.247C55.9524 189.842 55.9417 189.41 55.9204 188.951C55.9097 188.333 55.7977 187.831 55.5844 187.447C55.371 187.053 55.0884 186.77 54.7364 186.599C54.395 186.418 53.995 186.327 53.5364 186.327C53.0884 186.327 52.6884 186.418 52.3364 186.599C51.9844 186.77 51.7017 187.053 51.4884 187.447C51.2857 187.831 51.1684 188.333 51.1364 188.951C51.1257 189.41 51.1204 189.842 51.1204 190.247C51.1204 190.642 51.1257 191.074 51.1364 191.543C51.179 192.471 51.419 193.143 51.8564 193.559C52.2937 193.965 52.8537 194.167 53.5364 194.167ZM63.2534 196.007C62.6027 196.007 62.0374 195.863 61.5574 195.575C61.088 195.277 60.7254 194.861 60.4694 194.327C60.2134 193.783 60.0854 193.143 60.0854 192.407V187.911C60.0854 187.805 60.1227 187.714 60.1974 187.639C60.272 187.565 60.3627 187.527 60.4694 187.527H61.8774C61.9947 187.527 62.0854 187.565 62.1494 187.639C62.224 187.714 62.2614 187.805 62.2614 187.911V192.311C62.2614 193.634 62.8427 194.295 64.0054 194.295C64.56 194.295 64.9974 194.119 65.3174 193.767C65.648 193.415 65.8134 192.93 65.8134 192.311V187.911C65.8134 187.805 65.8507 187.714 65.9254 187.639C66 187.565 66.0907 187.527 66.1974 187.527H67.6054C67.712 187.527 67.8027 187.565 67.8774 187.639C67.952 187.714 67.9894 187.805 67.9894 187.911V195.463C67.9894 195.57 67.952 195.661 67.8774 195.735C67.8027 195.81 67.712 195.847 67.6054 195.847H66.3094C66.192 195.847 66.096 195.81 66.0214 195.735C65.9574 195.661 65.9254 195.57 65.9254 195.463V194.807C65.6374 195.181 65.28 195.474 64.8534 195.687C64.4267 195.901 63.8934 196.007 63.2534 196.007ZM73.6869 196.007C72.5029 196.007 71.5642 195.666 70.8709 194.983C70.1775 194.301 69.8042 193.33 69.7509 192.071C69.7402 191.965 69.7349 191.831 69.7349 191.671C69.7349 191.501 69.7402 191.367 69.7509 191.271C69.7935 190.471 69.9749 189.778 70.2949 189.191C70.6255 188.605 71.0789 188.157 71.6549 187.847C72.2309 187.527 72.9082 187.367 73.6869 187.367C74.5509 187.367 75.2762 187.549 75.8629 187.911C76.4495 188.263 76.8922 188.759 77.1909 189.399C77.4895 190.029 77.6389 190.759 77.6389 191.591V191.927C77.6389 192.034 77.6015 192.125 77.5269 192.199C77.4522 192.274 77.3562 192.311 77.2389 192.311H71.9269C71.9269 192.311 71.9269 192.327 71.9269 192.359C71.9269 192.391 71.9269 192.418 71.9269 192.439C71.9375 192.813 72.0069 193.159 72.1349 193.479C72.2735 193.789 72.4709 194.039 72.7269 194.231C72.9935 194.423 73.3082 194.519 73.6709 194.519C73.9695 194.519 74.2202 194.477 74.4229 194.391C74.6255 194.295 74.7909 194.189 74.9189 194.071C75.0469 193.954 75.1375 193.858 75.1909 193.783C75.2869 193.655 75.3615 193.581 75.4149 193.559C75.4789 193.527 75.5695 193.511 75.6869 193.511H77.0629C77.1695 193.511 77.2549 193.543 77.3189 193.607C77.3935 193.671 77.4255 193.751 77.4149 193.847C77.4042 194.018 77.3135 194.226 77.1429 194.471C76.9829 194.717 76.7482 194.957 76.4389 195.191C76.1295 195.426 75.7402 195.623 75.2709 195.783C74.8122 195.933 74.2842 196.007 73.6869 196.007ZM71.9269 190.967H75.4629V190.919C75.4629 190.503 75.3935 190.141 75.2549 189.831C75.1162 189.522 74.9135 189.277 74.6469 189.095C74.3802 188.914 74.0602 188.823 73.6869 188.823C73.3135 188.823 72.9935 188.914 72.7269 189.095C72.4602 189.277 72.2575 189.522 72.1189 189.831C71.9909 190.141 71.9269 190.503 71.9269 190.919V190.967ZM79.7213 195.847C79.6146 195.847 79.5239 195.81 79.4493 195.735C79.3746 195.661 79.3372 195.57 79.3372 195.463V187.927C79.3372 187.81 79.3746 187.714 79.4493 187.639C79.5239 187.565 79.6146 187.527 79.7213 187.527H81.0173C81.1239 187.527 81.2146 187.565 81.2893 187.639C81.3746 187.714 81.4173 187.81 81.4173 187.927V188.583C81.6626 188.242 81.9773 187.981 82.3613 187.799C82.7559 187.618 83.2093 187.527 83.7213 187.527H84.3773C84.4946 187.527 84.5853 187.565 84.6493 187.639C84.7239 187.714 84.7613 187.805 84.7613 187.911V189.063C84.7613 189.17 84.7239 189.261 84.6493 189.335C84.5853 189.41 84.4946 189.447 84.3773 189.447H83.1293C82.6173 189.447 82.2173 189.591 81.9293 189.879C81.6519 190.167 81.5133 190.562 81.5133 191.063V195.463C81.5133 195.57 81.4759 195.661 81.4013 195.735C81.3266 195.81 81.2306 195.847 81.1133 195.847H79.7213ZM93.0016 196.007C92.1483 196.007 91.4283 195.858 90.8416 195.559C90.2656 195.261 89.823 194.839 89.5136 194.295C89.215 193.751 89.0443 193.117 89.0016 192.391C88.991 192.199 88.9856 191.965 88.9856 191.687C88.9856 191.41 88.991 191.175 89.0016 190.983C89.0443 190.247 89.2203 189.613 89.5296 189.079C89.8496 188.535 90.2976 188.114 90.8736 187.815C91.4603 187.517 92.1696 187.367 93.0016 187.367C93.8336 187.367 94.5376 187.517 95.1136 187.815C95.7003 188.114 96.1483 188.535 96.4576 189.079C96.7776 189.613 96.959 190.247 97.0016 190.983C97.0123 191.175 97.0176 191.41 97.0176 191.687C97.0176 191.965 97.0123 192.199 97.0016 192.391C96.959 193.117 96.783 193.751 96.4736 194.295C96.175 194.839 95.7323 195.261 95.1456 195.559C94.5696 195.858 93.855 196.007 93.0016 196.007ZM93.0016 194.423C93.567 194.423 94.0043 194.247 94.3136 193.895C94.623 193.533 94.7936 193.005 94.8256 192.311C94.8363 192.151 94.8416 191.943 94.8416 191.687C94.8416 191.431 94.8363 191.223 94.8256 191.063C94.7936 190.381 94.623 189.858 94.3136 189.495C94.0043 189.133 93.567 188.951 93.0016 188.951C92.4363 188.951 91.999 189.133 91.6896 189.495C91.3803 189.858 91.2096 190.381 91.1776 191.063C91.167 191.223 91.1616 191.431 91.1616 191.687C91.1616 191.943 91.167 192.151 91.1776 192.311C91.2096 193.005 91.3803 193.533 91.6896 193.895C91.999 194.247 92.4363 194.423 93.0016 194.423ZM99.1744 195.847C99.0677 195.847 98.977 195.81 98.9024 195.735C98.8277 195.661 98.7904 195.57 98.7904 195.463V187.927C98.7904 187.81 98.8277 187.714 98.9024 187.639C98.977 187.565 99.0677 187.527 99.1744 187.527H100.47C100.577 187.527 100.668 187.565 100.742 187.639C100.828 187.714 100.87 187.81 100.87 187.927V188.583C101.116 188.242 101.43 187.981 101.814 187.799C102.209 187.618 102.662 187.527 103.174 187.527H103.83C103.948 187.527 104.038 187.565 104.102 187.639C104.177 187.714 104.214 187.805 104.214 187.911V189.063C104.214 189.17 104.177 189.261 104.102 189.335C104.038 189.41 103.948 189.447 103.83 189.447H102.582C102.07 189.447 101.67 189.591 101.382 189.879C101.105 190.167 100.966 190.562 100.966 191.063V195.463C100.966 195.57 100.929 195.661 100.854 195.735C100.78 195.81 100.684 195.847 100.566 195.847H99.1744ZM109.097 199.367C108.319 199.367 107.679 199.266 107.177 199.063C106.676 198.861 106.281 198.615 105.993 198.327C105.705 198.039 105.497 197.751 105.369 197.463C105.252 197.186 105.188 196.967 105.177 196.807C105.167 196.701 105.199 196.605 105.273 196.519C105.359 196.445 105.455 196.407 105.561 196.407H106.953C107.06 196.407 107.145 196.429 107.209 196.471C107.273 196.525 107.327 196.615 107.369 196.743C107.433 196.882 107.519 197.031 107.625 197.191C107.732 197.351 107.892 197.485 108.105 197.591C108.329 197.709 108.633 197.767 109.017 197.767C109.423 197.767 109.764 197.709 110.041 197.591C110.319 197.474 110.527 197.277 110.665 196.999C110.815 196.722 110.889 196.338 110.889 195.847V194.759C110.633 195.069 110.303 195.319 109.897 195.511C109.503 195.703 109.012 195.799 108.425 195.799C107.849 195.799 107.353 195.709 106.937 195.527C106.521 195.335 106.175 195.074 105.897 194.743C105.62 194.402 105.407 194.002 105.257 193.543C105.119 193.085 105.039 192.578 105.017 192.023C105.007 191.735 105.007 191.447 105.017 191.159C105.039 190.626 105.119 190.13 105.257 189.671C105.396 189.213 105.604 188.813 105.881 188.471C106.169 188.119 106.521 187.847 106.937 187.655C107.353 187.463 107.849 187.367 108.425 187.367C109.033 187.367 109.545 187.485 109.961 187.719C110.377 187.943 110.719 188.226 110.985 188.567V187.927C110.985 187.81 111.023 187.714 111.097 187.639C111.172 187.565 111.263 187.527 111.369 187.527H112.665C112.772 187.527 112.863 187.565 112.937 187.639C113.012 187.714 113.049 187.81 113.049 187.927L113.065 195.639C113.065 196.407 112.921 197.069 112.633 197.623C112.345 198.178 111.908 198.605 111.321 198.903C110.745 199.213 110.004 199.367 109.097 199.367ZM109.017 194.103C109.455 194.103 109.807 194.007 110.073 193.815C110.34 193.623 110.537 193.373 110.665 193.063C110.793 192.754 110.868 192.439 110.889 192.119C110.9 191.981 110.905 191.805 110.905 191.591C110.905 191.378 110.9 191.207 110.889 191.079C110.868 190.749 110.793 190.434 110.665 190.135C110.537 189.826 110.34 189.575 110.073 189.383C109.807 189.181 109.455 189.079 109.017 189.079C108.58 189.079 108.228 189.181 107.961 189.383C107.695 189.575 107.503 189.831 107.385 190.151C107.279 190.471 107.215 190.823 107.193 191.207C107.172 191.463 107.172 191.725 107.193 191.991C107.215 192.365 107.279 192.717 107.385 193.047C107.503 193.367 107.695 193.623 107.961 193.815C108.228 194.007 108.58 194.103 109.017 194.103ZM117.613 196.007C117.058 196.007 116.557 195.901 116.109 195.687C115.661 195.463 115.303 195.17 115.037 194.807C114.781 194.434 114.653 194.018 114.653 193.559C114.653 192.813 114.951 192.221 115.549 191.783C116.157 191.335 116.957 191.037 117.949 190.887L120.141 190.567V190.231C120.141 189.783 120.029 189.437 119.805 189.191C119.581 188.946 119.197 188.823 118.653 188.823C118.269 188.823 117.954 188.903 117.709 189.063C117.474 189.213 117.298 189.415 117.181 189.671C117.095 189.81 116.973 189.879 116.813 189.879H115.549C115.431 189.879 115.341 189.847 115.277 189.783C115.223 189.719 115.197 189.634 115.197 189.527C115.207 189.357 115.277 189.149 115.405 188.903C115.533 188.658 115.735 188.423 116.013 188.199C116.29 187.965 116.647 187.767 117.085 187.607C117.522 187.447 118.05 187.367 118.669 187.367C119.341 187.367 119.906 187.453 120.365 187.623C120.834 187.783 121.207 188.002 121.485 188.279C121.762 188.557 121.965 188.882 122.093 189.255C122.221 189.629 122.285 190.023 122.285 190.439V195.463C122.285 195.57 122.247 195.661 122.173 195.735C122.098 195.81 122.007 195.847 121.901 195.847H120.605C120.487 195.847 120.391 195.81 120.317 195.735C120.253 195.661 120.221 195.57 120.221 195.463V194.839C120.082 195.042 119.895 195.234 119.661 195.415C119.426 195.586 119.138 195.73 118.797 195.847C118.466 195.954 118.071 196.007 117.613 196.007ZM118.157 194.487C118.53 194.487 118.866 194.407 119.165 194.247C119.474 194.087 119.714 193.842 119.885 193.511C120.066 193.17 120.157 192.743 120.157 192.231V191.895L118.557 192.151C117.927 192.247 117.458 192.402 117.149 192.615C116.839 192.829 116.685 193.09 116.685 193.399C116.685 193.634 116.754 193.837 116.893 194.007C117.042 194.167 117.229 194.29 117.453 194.375C117.677 194.45 117.911 194.487 118.157 194.487ZM124.721 195.847C124.615 195.847 124.524 195.81 124.449 195.735C124.375 195.661 124.337 195.57 124.337 195.463V187.911C124.337 187.805 124.375 187.714 124.449 187.639C124.524 187.565 124.615 187.527 124.721 187.527H126.033C126.14 187.527 126.231 187.565 126.305 187.639C126.38 187.714 126.417 187.805 126.417 187.911V188.567C126.695 188.226 127.047 187.943 127.473 187.719C127.911 187.485 128.449 187.367 129.089 187.367C129.74 187.367 130.305 187.517 130.785 187.815C131.265 188.103 131.633 188.514 131.889 189.047C132.156 189.581 132.289 190.221 132.289 190.967V195.463C132.289 195.57 132.252 195.661 132.177 195.735C132.103 195.81 132.012 195.847 131.905 195.847H130.497C130.391 195.847 130.3 195.81 130.225 195.735C130.151 195.661 130.113 195.57 130.113 195.463V191.063C130.113 190.445 129.959 189.959 129.649 189.607C129.351 189.255 128.913 189.079 128.337 189.079C127.783 189.079 127.34 189.255 127.009 189.607C126.679 189.959 126.513 190.445 126.513 191.063V195.463C126.513 195.57 126.476 195.661 126.401 195.735C126.327 195.81 126.236 195.847 126.129 195.847H124.721ZM134.706 195.847C134.599 195.847 134.508 195.81 134.434 195.735C134.359 195.661 134.322 195.57 134.322 195.463V187.911C134.322 187.805 134.359 187.714 134.434 187.639C134.508 187.565 134.599 187.527 134.706 187.527H136.034C136.151 187.527 136.242 187.565 136.306 187.639C136.38 187.714 136.418 187.805 136.418 187.911V195.463C136.418 195.57 136.38 195.661 136.306 195.735C136.242 195.81 136.151 195.847 136.034 195.847H134.706ZM134.642 186.151C134.524 186.151 134.428 186.119 134.354 186.055C134.29 185.981 134.258 185.885 134.258 185.767V184.615C134.258 184.509 134.29 184.418 134.354 184.343C134.428 184.269 134.524 184.231 134.642 184.231H136.098C136.215 184.231 136.311 184.269 136.386 184.343C136.46 184.418 136.498 184.509 136.498 184.615V185.767C136.498 185.885 136.46 185.981 136.386 186.055C136.311 186.119 136.215 186.151 136.098 186.151H134.642ZM138.68 195.847C138.563 195.847 138.467 195.81 138.392 195.735C138.328 195.661 138.296 195.57 138.296 195.463V194.551C138.296 194.455 138.318 194.365 138.36 194.279C138.414 194.183 138.467 194.103 138.52 194.039L142.616 189.191H138.808C138.702 189.191 138.611 189.159 138.536 189.095C138.462 189.021 138.424 188.925 138.424 188.807V187.911C138.424 187.805 138.462 187.714 138.536 187.639C138.611 187.565 138.702 187.527 138.808 187.527H144.872C144.99 187.527 145.08 187.565 145.144 187.639C145.219 187.714 145.256 187.805 145.256 187.911V188.887C145.256 188.983 145.235 189.069 145.192 189.143C145.15 189.218 145.096 189.298 145.032 189.383L141.032 194.183H145.208C145.315 194.183 145.406 194.221 145.48 194.295C145.555 194.359 145.592 194.45 145.592 194.567V195.463C145.592 195.57 145.555 195.661 145.48 195.735C145.406 195.81 145.315 195.847 145.208 195.847H138.68ZM149.628 196.007C149.074 196.007 148.572 195.901 148.124 195.687C147.676 195.463 147.319 195.17 147.052 194.807C146.796 194.434 146.668 194.018 146.668 193.559C146.668 192.813 146.967 192.221 147.564 191.783C148.172 191.335 148.972 191.037 149.964 190.887L152.156 190.567V190.231C152.156 189.783 152.044 189.437 151.82 189.191C151.596 188.946 151.212 188.823 150.668 188.823C150.284 188.823 149.97 188.903 149.724 189.063C149.49 189.213 149.314 189.415 149.196 189.671C149.111 189.81 148.988 189.879 148.828 189.879H147.564C147.447 189.879 147.356 189.847 147.292 189.783C147.239 189.719 147.212 189.634 147.212 189.527C147.223 189.357 147.292 189.149 147.42 188.903C147.548 188.658 147.751 188.423 148.028 188.199C148.306 187.965 148.663 187.767 149.1 187.607C149.538 187.447 150.066 187.367 150.684 187.367C151.356 187.367 151.922 187.453 152.38 187.623C152.85 187.783 153.223 188.002 153.5 188.279C153.778 188.557 153.98 188.882 154.108 189.255C154.236 189.629 154.3 190.023 154.3 190.439V195.463C154.3 195.57 154.263 195.661 154.188 195.735C154.114 195.81 154.023 195.847 153.916 195.847H152.62C152.503 195.847 152.407 195.81 152.332 195.735C152.268 195.661 152.236 195.57 152.236 195.463V194.839C152.098 195.042 151.911 195.234 151.676 195.415C151.442 195.586 151.154 195.73 150.812 195.847C150.482 195.954 150.087 196.007 149.628 196.007ZM150.172 194.487C150.546 194.487 150.882 194.407 151.18 194.247C151.49 194.087 151.73 193.842 151.9 193.511C152.082 193.17 152.172 192.743 152.172 192.231V191.895L150.572 192.151C149.943 192.247 149.474 192.402 149.164 192.615C148.855 192.829 148.7 193.09 148.7 193.399C148.7 193.634 148.77 193.837 148.908 194.007C149.058 194.167 149.244 194.29 149.468 194.375C149.692 194.45 149.927 194.487 150.172 194.487ZM156.737 195.847C156.63 195.847 156.54 195.81 156.465 195.735C156.39 195.661 156.353 195.57 156.353 195.463V187.927C156.353 187.81 156.39 187.714 156.465 187.639C156.54 187.565 156.63 187.527 156.737 187.527H158.033C158.14 187.527 158.23 187.565 158.305 187.639C158.39 187.714 158.433 187.81 158.433 187.927V188.583C158.678 188.242 158.993 187.981 159.377 187.799C159.772 187.618 160.225 187.527 160.737 187.527H161.393C161.51 187.527 161.601 187.565 161.665 187.639C161.74 187.714 161.777 187.805 161.777 187.911V189.063C161.777 189.17 161.74 189.261 161.665 189.335C161.601 189.41 161.51 189.447 161.393 189.447H160.145C159.633 189.447 159.233 189.591 158.945 189.879C158.668 190.167 158.529 190.562 158.529 191.063V195.463C158.529 195.57 158.492 195.661 158.417 195.735C158.342 195.81 158.246 195.847 158.129 195.847H156.737ZM168.753 196.007C168.199 196.007 167.697 195.901 167.249 195.687C166.801 195.463 166.444 195.17 166.177 194.807C165.921 194.434 165.793 194.018 165.793 193.559C165.793 192.813 166.092 192.221 166.689 191.783C167.297 191.335 168.097 191.037 169.089 190.887L171.281 190.567V190.231C171.281 189.783 171.169 189.437 170.945 189.191C170.721 188.946 170.337 188.823 169.793 188.823C169.409 188.823 169.095 188.903 168.849 189.063C168.615 189.213 168.439 189.415 168.321 189.671C168.236 189.81 168.113 189.879 167.953 189.879H166.689C166.572 189.879 166.481 189.847 166.417 189.783C166.364 189.719 166.337 189.634 166.337 189.527C166.348 189.357 166.417 189.149 166.545 188.903C166.673 188.658 166.876 188.423 167.153 188.199C167.431 187.965 167.788 187.767 168.225 187.607C168.663 187.447 169.191 187.367 169.809 187.367C170.481 187.367 171.047 187.453 171.505 187.623C171.975 187.783 172.348 188.002 172.625 188.279C172.903 188.557 173.105 188.882 173.233 189.255C173.361 189.629 173.425 190.023 173.425 190.439V195.463C173.425 195.57 173.388 195.661 173.313 195.735C173.239 195.81 173.148 195.847 173.041 195.847H171.745C171.628 195.847 171.532 195.81 171.457 195.735C171.393 195.661 171.361 195.57 171.361 195.463V194.839C171.223 195.042 171.036 195.234 170.801 195.415C170.567 195.586 170.279 195.73 169.937 195.847C169.607 195.954 169.212 196.007 168.753 196.007ZM169.297 194.487C169.671 194.487 170.007 194.407 170.305 194.247C170.615 194.087 170.855 193.842 171.025 193.511C171.207 193.17 171.297 192.743 171.297 192.231V191.895L169.697 192.151C169.068 192.247 168.599 192.402 168.289 192.615C167.98 192.829 167.825 193.09 167.825 193.399C167.825 193.634 167.895 193.837 168.033 194.007C168.183 194.167 168.369 194.29 168.593 194.375C168.817 194.45 169.052 194.487 169.297 194.487ZM181.656 195.847C181.486 195.847 181.358 195.81 181.272 195.735C181.198 195.65 181.134 195.554 181.08 195.447L178.088 188.023C178.067 187.97 178.056 187.922 178.056 187.879C178.056 187.783 178.088 187.703 178.152 187.639C178.227 187.565 178.312 187.527 178.408 187.527H179.704C179.832 187.527 179.928 187.565 179.992 187.639C180.056 187.703 180.099 187.767 180.12 187.831L182.248 193.447L184.376 187.831C184.398 187.767 184.44 187.703 184.504 187.639C184.568 187.565 184.664 187.527 184.792 187.527H186.104C186.19 187.527 186.264 187.565 186.328 187.639C186.403 187.703 186.44 187.783 186.44 187.879C186.44 187.922 186.435 187.97 186.424 188.023L183.416 195.447C183.374 195.554 183.31 195.65 183.224 195.735C183.139 195.81 183.011 195.847 182.84 195.847H181.656ZM188.284 195.847C188.177 195.847 188.086 195.81 188.012 195.735C187.937 195.661 187.9 195.57 187.9 195.463V187.911C187.9 187.805 187.937 187.714 188.012 187.639C188.086 187.565 188.177 187.527 188.284 187.527H189.612C189.729 187.527 189.82 187.565 189.884 187.639C189.958 187.714 189.996 187.805 189.996 187.911V195.463C189.996 195.57 189.958 195.661 189.884 195.735C189.82 195.81 189.729 195.847 189.612 195.847H188.284ZM188.22 186.151C188.102 186.151 188.006 186.119 187.932 186.055C187.868 185.981 187.836 185.885 187.836 185.767V184.615C187.836 184.509 187.868 184.418 187.932 184.343C188.006 184.269 188.102 184.231 188.22 184.231H189.676C189.793 184.231 189.889 184.269 189.964 184.343C190.038 184.418 190.076 184.509 190.076 184.615V185.767C190.076 185.885 190.038 185.981 189.964 186.055C189.889 186.119 189.793 186.151 189.676 186.151H188.22ZM195.207 196.007C194.652 196.007 194.161 195.917 193.735 195.735C193.319 195.543 192.972 195.277 192.695 194.935C192.417 194.594 192.204 194.194 192.055 193.735C191.905 193.266 191.82 192.754 191.799 192.199C191.788 192.007 191.783 191.837 191.783 191.687C191.783 191.527 191.788 191.351 191.799 191.159C191.82 190.626 191.9 190.13 192.039 189.671C192.188 189.213 192.401 188.813 192.679 188.471C192.967 188.119 193.319 187.847 193.735 187.655C194.161 187.463 194.652 187.367 195.207 187.367C195.783 187.367 196.268 187.469 196.663 187.671C197.068 187.863 197.404 188.114 197.671 188.423V184.871C197.671 184.765 197.703 184.674 197.767 184.599C197.841 184.525 197.937 184.487 198.055 184.487H199.415C199.521 184.487 199.612 184.525 199.687 184.599C199.761 184.674 199.799 184.765 199.799 184.871V195.463C199.799 195.57 199.761 195.661 199.687 195.735C199.612 195.81 199.521 195.847 199.415 195.847H198.151C198.033 195.847 197.937 195.81 197.863 195.735C197.799 195.661 197.767 195.57 197.767 195.463V194.871C197.5 195.202 197.159 195.474 196.743 195.687C196.337 195.901 195.825 196.007 195.207 196.007ZM195.799 194.295C196.247 194.295 196.604 194.194 196.871 193.991C197.137 193.789 197.335 193.533 197.463 193.223C197.591 192.903 197.66 192.578 197.671 192.247C197.681 192.055 197.687 191.853 197.687 191.639C197.687 191.415 197.681 191.207 197.671 191.015C197.66 190.695 197.585 190.391 197.447 190.103C197.308 189.805 197.105 189.559 196.839 189.367C196.572 189.175 196.225 189.079 195.799 189.079C195.351 189.079 194.993 189.181 194.727 189.383C194.471 189.575 194.284 189.831 194.167 190.151C194.049 190.471 193.98 190.823 193.959 191.207C193.948 191.527 193.948 191.847 193.959 192.167C193.98 192.551 194.049 192.903 194.167 193.223C194.284 193.543 194.471 193.805 194.727 194.007C194.993 194.199 195.351 194.295 195.799 194.295ZM204.347 196.007C203.792 196.007 203.291 195.901 202.843 195.687C202.395 195.463 202.038 195.17 201.771 194.807C201.515 194.434 201.387 194.018 201.387 193.559C201.387 192.813 201.686 192.221 202.283 191.783C202.891 191.335 203.691 191.037 204.683 190.887L206.875 190.567V190.231C206.875 189.783 206.763 189.437 206.539 189.191C206.315 188.946 205.931 188.823 205.387 188.823C205.003 188.823 204.688 188.903 204.443 189.063C204.208 189.213 204.032 189.415 203.915 189.671C203.83 189.81 203.707 189.879 203.547 189.879H202.283C202.166 189.879 202.075 189.847 202.011 189.783C201.958 189.719 201.931 189.634 201.931 189.527C201.942 189.357 202.011 189.149 202.139 188.903C202.267 188.658 202.47 188.423 202.747 188.199C203.024 187.965 203.382 187.767 203.819 187.607C204.256 187.447 204.784 187.367 205.403 187.367C206.075 187.367 206.64 187.453 207.099 187.623C207.568 187.783 207.942 188.002 208.219 188.279C208.496 188.557 208.699 188.882 208.827 189.255C208.955 189.629 209.019 190.023 209.019 190.439V195.463C209.019 195.57 208.982 195.661 208.907 195.735C208.832 195.81 208.742 195.847 208.635 195.847H207.339C207.222 195.847 207.126 195.81 207.051 195.735C206.987 195.661 206.955 195.57 206.955 195.463V194.839C206.816 195.042 206.63 195.234 206.395 195.415C206.16 195.586 205.872 195.73 205.531 195.847C205.2 195.954 204.806 196.007 204.347 196.007ZM204.891 194.487C205.264 194.487 205.6 194.407 205.899 194.247C206.208 194.087 206.448 193.842 206.619 193.511C206.8 193.17 206.891 192.743 206.891 192.231V191.895L205.291 192.151C204.662 192.247 204.192 192.402 203.883 192.615C203.574 192.829 203.419 193.09 203.419 193.399C203.419 193.634 203.488 193.837 203.627 194.007C203.776 194.167 203.963 194.29 204.187 194.375C204.411 194.45 204.646 194.487 204.891 194.487ZM92.4063 219.847C92.2996 219.847 92.209 219.81 92.1343 219.735C92.0596 219.661 92.0223 219.57 92.0223 219.463V213.223H90.7263C90.6196 213.223 90.529 213.186 90.4543 213.111C90.3796 213.037 90.3423 212.946 90.3423 212.839V211.911C90.3423 211.805 90.3796 211.714 90.4543 211.639C90.529 211.565 90.6196 211.527 90.7263 211.527H92.0223V210.871C92.0223 210.231 92.1396 209.703 92.3743 209.287C92.609 208.861 92.9556 208.541 93.4143 208.327C93.873 208.114 94.4543 208.007 95.1583 208.007H98.4223C98.5396 208.007 98.6303 208.045 98.6943 208.119C98.769 208.194 98.8063 208.285 98.8063 208.391V209.319C98.8063 209.426 98.769 209.517 98.6943 209.591C98.6303 209.666 98.5396 209.703 98.4223 209.703H95.2223C94.7956 209.703 94.5023 209.81 94.3423 210.023C94.1823 210.237 94.1023 210.546 94.1023 210.951V211.527H98.4223C98.5396 211.527 98.6303 211.565 98.6943 211.639C98.769 211.714 98.8063 211.805 98.8063 211.911V219.463C98.8063 219.57 98.769 219.661 98.6943 219.735C98.6303 219.81 98.5396 219.847 98.4223 219.847H97.1263C97.0196 219.847 96.929 219.81 96.8543 219.735C96.7796 219.661 96.7423 219.57 96.7423 219.463V213.223H94.1023V219.463C94.1023 219.57 94.065 219.661 93.9903 219.735C93.9156 219.81 93.825 219.847 93.7183 219.847H92.4063ZM101.651 219.847C101.544 219.847 101.454 219.81 101.379 219.735C101.304 219.661 101.267 219.57 101.267 219.463V211.911C101.267 211.805 101.304 211.714 101.379 211.639C101.454 211.565 101.544 211.527 101.651 211.527H102.963C103.07 211.527 103.16 211.565 103.235 211.639C103.31 211.714 103.347 211.805 103.347 211.911V212.567C103.624 212.226 103.976 211.943 104.403 211.719C104.84 211.485 105.379 211.367 106.019 211.367C106.67 211.367 107.235 211.517 107.715 211.815C108.195 212.103 108.563 212.514 108.819 213.047C109.086 213.581 109.219 214.221 109.219 214.967V219.463C109.219 219.57 109.182 219.661 109.107 219.735C109.032 219.81 108.942 219.847 108.835 219.847H107.427C107.32 219.847 107.23 219.81 107.155 219.735C107.08 219.661 107.043 219.57 107.043 219.463V215.063C107.043 214.445 106.888 213.959 106.579 213.607C106.28 213.255 105.843 213.079 105.267 213.079C104.712 213.079 104.27 213.255 103.939 213.607C103.608 213.959 103.443 214.445 103.443 215.063V219.463C103.443 219.57 103.406 219.661 103.331 219.735C103.256 219.81 103.166 219.847 103.059 219.847H101.651ZM113.667 220.007C113.113 220.007 112.611 219.901 112.163 219.687C111.715 219.463 111.358 219.17 111.091 218.807C110.835 218.434 110.707 218.018 110.707 217.559C110.707 216.813 111.006 216.221 111.603 215.783C112.211 215.335 113.011 215.037 114.003 214.887L116.195 214.567V214.231C116.195 213.783 116.083 213.437 115.859 213.191C115.635 212.946 115.251 212.823 114.707 212.823C114.323 212.823 114.009 212.903 113.763 213.063C113.529 213.213 113.353 213.415 113.235 213.671C113.15 213.81 113.027 213.879 112.867 213.879H111.603C111.486 213.879 111.395 213.847 111.331 213.783C111.278 213.719 111.251 213.634 111.251 213.527C111.262 213.357 111.331 213.149 111.459 212.903C111.587 212.658 111.79 212.423 112.067 212.199C112.345 211.965 112.702 211.767 113.139 211.607C113.577 211.447 114.105 211.367 114.723 211.367C115.395 211.367 115.961 211.453 116.419 211.623C116.889 211.783 117.262 212.002 117.539 212.279C117.817 212.557 118.019 212.882 118.147 213.255C118.275 213.629 118.339 214.023 118.339 214.439V219.463C118.339 219.57 118.302 219.661 118.227 219.735C118.153 219.81 118.062 219.847 117.955 219.847H116.659C116.542 219.847 116.446 219.81 116.371 219.735C116.307 219.661 116.275 219.57 116.275 219.463V218.839C116.137 219.042 115.95 219.234 115.715 219.415C115.481 219.586 115.193 219.73 114.851 219.847C114.521 219.954 114.126 220.007 113.667 220.007ZM114.211 218.487C114.585 218.487 114.921 218.407 115.219 218.247C115.529 218.087 115.769 217.842 115.939 217.511C116.121 217.17 116.211 216.743 116.211 216.231V215.895L114.611 216.151C113.982 216.247 113.513 216.402 113.203 216.615C112.894 216.829 112.739 217.09 112.739 217.399C112.739 217.634 112.809 217.837 112.947 218.007C113.097 218.167 113.283 218.29 113.507 218.375C113.731 218.45 113.966 218.487 114.211 218.487ZM120.776 219.847C120.669 219.847 120.579 219.81 120.504 219.735C120.429 219.661 120.392 219.57 120.392 219.463V211.911C120.392 211.805 120.429 211.714 120.504 211.639C120.579 211.565 120.669 211.527 120.776 211.527H122.088C122.195 211.527 122.285 211.565 122.36 211.639C122.435 211.714 122.472 211.805 122.472 211.911V212.567C122.749 212.226 123.101 211.943 123.528 211.719C123.965 211.485 124.504 211.367 125.144 211.367C125.795 211.367 126.36 211.517 126.84 211.815C127.32 212.103 127.688 212.514 127.944 213.047C128.211 213.581 128.344 214.221 128.344 214.967V219.463C128.344 219.57 128.307 219.661 128.232 219.735C128.157 219.81 128.067 219.847 127.96 219.847H126.552C126.445 219.847 126.355 219.81 126.28 219.735C126.205 219.661 126.168 219.57 126.168 219.463V215.063C126.168 214.445 126.013 213.959 125.704 213.607C125.405 213.255 124.968 213.079 124.392 213.079C123.837 213.079 123.395 213.255 123.064 213.607C122.733 213.959 122.568 214.445 122.568 215.063V219.463C122.568 219.57 122.531 219.661 122.456 219.735C122.381 219.81 122.291 219.847 122.184 219.847H120.776ZM133.976 220.007C133.208 220.007 132.531 219.863 131.944 219.575C131.368 219.287 130.915 218.871 130.584 218.327C130.264 217.773 130.088 217.106 130.056 216.327C130.046 216.167 130.04 215.959 130.04 215.703C130.04 215.437 130.046 215.218 130.056 215.047C130.088 214.269 130.264 213.607 130.584 213.063C130.915 212.509 131.368 212.087 131.944 211.799C132.531 211.511 133.208 211.367 133.976 211.367C134.659 211.367 135.24 211.463 135.72 211.655C136.2 211.847 136.595 212.087 136.904 212.375C137.214 212.663 137.443 212.967 137.592 213.287C137.752 213.597 137.838 213.879 137.848 214.135C137.859 214.253 137.822 214.349 137.736 214.423C137.662 214.487 137.571 214.519 137.464 214.519H136.056C135.95 214.519 135.864 214.493 135.8 214.439C135.747 214.386 135.694 214.306 135.64 214.199C135.48 213.773 135.267 213.474 135 213.303C134.744 213.122 134.414 213.031 134.008 213.031C133.475 213.031 133.048 213.202 132.728 213.543C132.419 213.874 132.254 214.402 132.232 215.127C132.211 215.533 132.211 215.906 132.232 216.247C132.254 216.983 132.419 217.517 132.728 217.847C133.048 218.178 133.475 218.343 134.008 218.343C134.424 218.343 134.76 218.258 135.016 218.087C135.272 217.906 135.48 217.602 135.64 217.175C135.694 217.069 135.747 216.989 135.8 216.935C135.864 216.882 135.95 216.855 136.056 216.855H137.464C137.571 216.855 137.662 216.893 137.736 216.967C137.822 217.031 137.859 217.122 137.848 217.239C137.838 217.431 137.784 217.65 137.688 217.895C137.603 218.13 137.459 218.375 137.256 218.631C137.064 218.877 136.819 219.106 136.52 219.319C136.222 219.522 135.859 219.687 135.432 219.815C135.016 219.943 134.531 220.007 133.976 220.007ZM143.101 220.007C141.917 220.007 140.978 219.666 140.285 218.983C139.592 218.301 139.218 217.33 139.165 216.071C139.154 215.965 139.149 215.831 139.149 215.671C139.149 215.501 139.154 215.367 139.165 215.271C139.208 214.471 139.389 213.778 139.709 213.191C140.04 212.605 140.493 212.157 141.069 211.847C141.645 211.527 142.322 211.367 143.101 211.367C143.965 211.367 144.69 211.549 145.277 211.911C145.864 212.263 146.306 212.759 146.605 213.399C146.904 214.029 147.053 214.759 147.053 215.591V215.927C147.053 216.034 147.016 216.125 146.941 216.199C146.866 216.274 146.77 216.311 146.653 216.311H141.341C141.341 216.311 141.341 216.327 141.341 216.359C141.341 216.391 141.341 216.418 141.341 216.439C141.352 216.813 141.421 217.159 141.549 217.479C141.688 217.789 141.885 218.039 142.141 218.231C142.408 218.423 142.722 218.519 143.085 218.519C143.384 218.519 143.634 218.477 143.837 218.391C144.04 218.295 144.205 218.189 144.333 218.071C144.461 217.954 144.552 217.858 144.605 217.783C144.701 217.655 144.776 217.581 144.829 217.559C144.893 217.527 144.984 217.511 145.101 217.511H146.477C146.584 217.511 146.669 217.543 146.733 217.607C146.808 217.671 146.84 217.751 146.829 217.847C146.818 218.018 146.728 218.226 146.557 218.471C146.397 218.717 146.162 218.957 145.853 219.191C145.544 219.426 145.154 219.623 144.685 219.783C144.226 219.933 143.698 220.007 143.101 220.007ZM141.341 214.967H144.877V214.919C144.877 214.503 144.808 214.141 144.669 213.831C144.53 213.522 144.328 213.277 144.061 213.095C143.794 212.914 143.474 212.823 143.101 212.823C142.728 212.823 142.408 212.914 142.141 213.095C141.874 213.277 141.672 213.522 141.533 213.831C141.405 214.141 141.341 214.503 141.341 214.919V214.967ZM149.135 219.847C149.029 219.847 148.938 219.81 148.863 219.735C148.789 219.661 148.751 219.57 148.751 219.463V211.911C148.751 211.805 148.789 211.714 148.863 211.639C148.938 211.565 149.029 211.527 149.135 211.527H150.463C150.581 211.527 150.671 211.565 150.735 211.639C150.81 211.714 150.847 211.805 150.847 211.911V219.463C150.847 219.57 150.81 219.661 150.735 219.735C150.671 219.81 150.581 219.847 150.463 219.847H149.135ZM149.071 210.151C148.954 210.151 148.858 210.119 148.783 210.055C148.719 209.981 148.687 209.885 148.687 209.767V208.615C148.687 208.509 148.719 208.418 148.783 208.343C148.858 208.269 148.954 208.231 149.071 208.231H150.527C150.645 208.231 150.741 208.269 150.815 208.343C150.89 208.418 150.927 208.509 150.927 208.615V209.767C150.927 209.885 150.89 209.981 150.815 210.055C150.741 210.119 150.645 210.151 150.527 210.151H149.071ZM153.682 219.847C153.576 219.847 153.485 219.81 153.41 219.735C153.336 219.661 153.298 219.57 153.298 219.463V211.927C153.298 211.81 153.336 211.714 153.41 211.639C153.485 211.565 153.576 211.527 153.682 211.527H154.978C155.085 211.527 155.176 211.565 155.25 211.639C155.336 211.714 155.378 211.81 155.378 211.927V212.583C155.624 212.242 155.938 211.981 156.322 211.799C156.717 211.618 157.17 211.527 157.682 211.527H158.338C158.456 211.527 158.546 211.565 158.61 211.639C158.685 211.714 158.722 211.805 158.722 211.911V213.063C158.722 213.17 158.685 213.261 158.61 213.335C158.546 213.41 158.456 213.447 158.338 213.447H157.09C156.578 213.447 156.178 213.591 155.89 213.879C155.613 214.167 155.474 214.562 155.474 215.063V219.463C155.474 219.57 155.437 219.661 155.362 219.735C155.288 219.81 155.192 219.847 155.074 219.847H153.682ZM162.261 220.007C161.706 220.007 161.205 219.901 160.757 219.687C160.309 219.463 159.952 219.17 159.685 218.807C159.429 218.434 159.301 218.018 159.301 217.559C159.301 216.813 159.6 216.221 160.197 215.783C160.805 215.335 161.605 215.037 162.597 214.887L164.789 214.567V214.231C164.789 213.783 164.677 213.437 164.453 213.191C164.229 212.946 163.845 212.823 163.301 212.823C162.917 212.823 162.602 212.903 162.357 213.063C162.122 213.213 161.946 213.415 161.829 213.671C161.744 213.81 161.621 213.879 161.461 213.879H160.197C160.08 213.879 159.989 213.847 159.925 213.783C159.872 213.719 159.845 213.634 159.845 213.527C159.856 213.357 159.925 213.149 160.053 212.903C160.181 212.658 160.384 212.423 160.661 212.199C160.938 211.965 161.296 211.767 161.733 211.607C162.17 211.447 162.698 211.367 163.317 211.367C163.989 211.367 164.554 211.453 165.013 211.623C165.482 211.783 165.856 212.002 166.133 212.279C166.41 212.557 166.613 212.882 166.741 213.255C166.869 213.629 166.933 214.023 166.933 214.439V219.463C166.933 219.57 166.896 219.661 166.821 219.735C166.746 219.81 166.656 219.847 166.549 219.847H165.253C165.136 219.847 165.04 219.81 164.965 219.735C164.901 219.661 164.869 219.57 164.869 219.463V218.839C164.73 219.042 164.544 219.234 164.309 219.415C164.074 219.586 163.786 219.73 163.445 219.847C163.114 219.954 162.72 220.007 162.261 220.007ZM162.805 218.487C163.178 218.487 163.514 218.407 163.813 218.247C164.122 218.087 164.362 217.842 164.533 217.511C164.714 217.17 164.805 216.743 164.805 216.231V215.895L163.205 216.151C162.576 216.247 162.106 216.402 161.797 216.615C161.488 216.829 161.333 217.09 161.333 217.399C161.333 217.634 161.402 217.837 161.541 218.007C161.69 218.167 161.877 218.29 162.101 218.375C162.325 218.45 162.56 218.487 162.805 218.487Z" fill="white"/>
<rect x="4" y="4" width="250" height="250" rx="16" stroke="url(#paint0_linear_2247_718)" stroke-width="8"/>
<defs>
<linearGradient id="paint0_linear_2247_718" x1="9.61124e-07" y1="129" x2="258" y2="129" gradientUnits="userSpaceOnUse">
<stop stop-color="#C512B9"/>
<stop offset="0.153829" stop-color="#FF0CF6"/>
<stop offset="0.391805" stop-color="#FF8AFA"/>
<stop offset="0.572773" stop-color="#7CEDFF"/>
<stop offset="0.840816" stop-color="#00DEFF"/>
<stop offset="1" stop-color="#00A6C3"/>
</linearGradient>
<clipPath id="clip0_2247_718">
<rect width="165" height="153" fill="white" transform="translate(46.5 16)"/>
</clipPath>
</defs>
</svg>
